<svg width="230" height="24" viewBox="0 0 230 24" fill="none" xmlns="http://www.w3.org/2000/svg">
<path d="M12 22C17.5 22 22 17.5 22 12C22 6.5 17.5 2 12 2C6.5 2 2 6.5 2 12C2 17.5 6.5 22 12 22Z" stroke="#9E9E9E" stroke-width="1.5" stroke-linecap="round" stroke-linejoin="round"/>
<path d="M7.75 12L10.58 14.83L16.25 9.16998" stroke="#9E9E9E" stroke-width="1.5" stroke-linecap="round" stroke-linejoin="round"/>
<path d="M44 22C49.5 22 54 17.5 54 12C54 6.5 49.5 2 44 2C38.5 2 34 6.5 34 12C34 17.5 38.5 22 44 22Z" stroke="#9E9E9E" stroke-width="1.5" stroke-linecap="round" stroke-linejoin="round"/>
<path d="M39.75 12L42.58 14.83L48.25 9.16998" stroke="#9E9E9E" stroke-width="1.5" stroke-linecap="round" stroke-linejoin="round"/>
<path d="M76 22C81.5 22 86 17.5 86 12C86 6.5 81.5 2 76 2C70.5 2 66 6.5 66 12C66 17.5 70.5 22 76 22Z" stroke="#9E9E9E" stroke-width="1.5" stroke-linecap="round" stroke-linejoin="round"/>
<path d="M71.75 12L74.58 14.83L80.25 9.16998" stroke="#9E9E9E" stroke-width="1.5" stroke-linecap="round" stroke-linejoin="round"/>
<path d="M103.8 19.42L104.32 17.78C105.88 17.78 107.22 17.74 108.34 17.66C109.473 17.58 110.4 17.4533 111.12 17.28C111.853 17.0933 112.393 16.8467 112.74 16.54C113.1 16.22 113.28 15.8333 113.28 15.38C113.28 14.8733 113.187 14.2867 113 13.62C112.813 12.9533 112.573 12.24 112.28 11.48L113.82 10.94C113.993 11.3667 114.153 11.8267 114.3 12.32C114.46 12.8 114.593 13.28 114.7 13.76C114.807 14.2267 114.86 14.66 114.86 15.06C114.86 15.8467 114.68 16.52 114.32 17.08C113.96 17.6267 113.36 18.0733 112.52 18.42C111.68 18.7667 110.547 19.02 109.12 19.18C107.707 19.34 105.933 19.42 103.8 19.42ZM103.8 19.42C102.613 19.42 101.567 19.34 100.66 19.18C99.7667 19.0333 99.02 18.8 98.42 18.48C97.82 18.16 97.3667 17.7467 97.06 17.24C96.7533 16.72 96.6 16.0933 96.6 15.36C96.6 15.0267 96.6267 14.6867 96.68 14.34C96.7333 13.98 96.8 13.62 96.88 13.26C96.9733 12.9 97.0667 12.5533 97.16 12.22L98.66 12.6C98.6067 12.8 98.5467 13.04 98.48 13.32C98.4133 13.5867 98.3533 13.86 98.3 14.14C98.26 14.42 98.24 14.6733 98.24 14.9C98.24 15.5933 98.4133 16.1533 98.76 16.58C99.12 16.9933 99.74 17.3 100.62 17.5C101.5 17.6867 102.733 17.78 104.32 17.78L104.72 18.78L103.8 19.42ZM107.14 10.98C106.86 10.98 106.62 10.8867 106.42 10.7C106.233 10.5 106.14 10.2667 106.14 10C106.14 9.73333 106.233 9.5 106.42 9.3C106.62 9.1 106.86 9 107.14 9C107.407 9 107.633 9.1 107.82 9.3C108.02 9.5 108.12 9.73333 108.12 10C108.12 10.2667 108.02 10.5 107.82 10.7C107.633 10.8867 107.407 10.98 107.14 10.98ZM104.4 10.98C104.12 10.98 103.88 10.8867 103.68 10.7C103.493 10.5 103.4 10.2667 103.4 10C103.4 9.73333 103.493 9.5 103.68 9.3C103.88 9.1 104.12 9 104.4 9C104.667 9 104.893 9.1 105.08 9.3C105.28 9.5 105.38 9.73333 105.38 10C105.38 10.2667 105.28 10.5 105.08 10.7C104.893 10.8867 104.667 10.98 104.4 10.98ZM121.683 19.1C120.617 19.1 119.797 18.98 119.223 18.74C118.663 18.5 118.277 18.1267 118.063 17.62C117.85 17.1133 117.73 16.46 117.703 15.66L117.303 4.72H118.943L119.343 15.02C119.37 15.6733 119.43 16.18 119.523 16.54C119.63 16.8867 119.857 17.1267 120.203 17.26C120.563 17.3933 121.123 17.46 121.883 17.46C122.163 17.46 122.363 17.54 122.483 17.7C122.617 17.8467 122.683 18.0267 122.683 18.24C122.683 18.4533 122.59 18.6533 122.403 18.84C122.217 19.0133 121.977 19.1 121.683 19.1ZM121.684 19.1L121.884 17.46C122.217 17.46 122.557 17.46 122.904 17.46C123.264 17.4467 123.617 17.4267 123.964 17.4C124.31 17.3733 124.644 17.34 124.964 17.3C125.284 17.26 125.57 17.2 125.824 17.12C126.29 16.9733 126.717 16.78 127.104 16.54C127.504 16.3 127.824 16.0067 128.064 15.66C128.317 15.3133 128.444 14.9133 128.444 14.46C128.444 14.1533 128.37 13.84 128.224 13.52C128.077 13.1867 127.877 12.9067 127.624 12.68C127.37 12.4533 127.077 12.34 126.744 12.34C126.424 12.34 126.124 12.4467 125.844 12.66C125.577 12.8733 125.357 13.1533 125.184 13.5C125.024 13.8333 124.944 14.18 124.944 14.54C124.944 14.9667 125.05 15.3533 125.264 15.7C125.49 16.0333 125.764 16.32 126.084 16.56C126.404 16.8 126.724 16.9933 127.044 17.14L125.144 17.7C124.93 17.54 124.677 17.32 124.384 17.04C124.104 16.7467 123.85 16.3867 123.624 15.96C123.41 15.5333 123.304 15.0467 123.304 14.5C123.304 13.9667 123.397 13.4733 123.584 13.02C123.784 12.5533 124.044 12.1467 124.364 11.8C124.697 11.4533 125.07 11.1867 125.484 11C125.91 10.8 126.35 10.7 126.804 10.7C127.457 10.7 128.03 10.88 128.524 11.24C129.017 11.6 129.397 12.06 129.664 12.62C129.944 13.1667 130.084 13.74 130.084 14.34C130.084 14.9133 129.977 15.4333 129.764 15.9C129.55 16.3533 129.257 16.76 128.884 17.12C128.524 17.48 128.097 17.7867 127.604 18.04C127.124 18.2933 126.61 18.5 126.064 18.66C125.757 18.7533 125.424 18.8267 125.064 18.88C124.717 18.9333 124.35 18.9733 123.964 19C123.577 19.04 123.19 19.0667 122.804 19.08C122.417 19.0933 122.044 19.1 121.684 19.1ZM131.584 19.1C130.917 19.1 130.224 19.06 129.504 18.98C128.797 18.8867 128.124 18.7733 127.484 18.64C126.857 18.4933 126.337 18.3333 125.924 18.16L127.304 17.16C127.704 17.2133 128.177 17.2667 128.724 17.32C129.27 17.36 129.817 17.3933 130.364 17.42C130.91 17.4467 131.384 17.46 131.784 17.46C132.064 17.46 132.264 17.54 132.384 17.7C132.517 17.8467 132.584 18.0267 132.584 18.24C132.584 18.4533 132.49 18.6533 132.304 18.84C132.117 19.0133 131.877 19.1 131.584 19.1ZM128.024 8.64C127.744 8.64 127.504 8.54667 127.304 8.36C127.117 8.16 127.024 7.92667 127.024 7.66C127.024 7.39333 127.117 7.16 127.304 6.96C127.504 6.76 127.744 6.66 128.024 6.66C128.29 6.66 128.517 6.76 128.704 6.96C128.904 7.16 129.004 7.39333 129.004 7.66C129.004 7.92667 128.904 8.16 128.704 8.36C128.517 8.54667 128.29 8.64 128.024 8.64ZM125.284 8.64C125.004 8.64 124.764 8.54667 124.564 8.36C124.377 8.16 124.284 7.92667 124.284 7.66C124.284 7.39333 124.377 7.16 124.564 6.96C124.764 6.76 125.004 6.66 125.284 6.66C125.55 6.66 125.777 6.76 125.964 6.96C126.164 7.16 126.264 7.39333 126.264 7.66C126.264 7.92667 126.164 8.16 125.964 8.36C125.777 8.54667 125.55 8.64 125.284 8.64ZM131.586 19.1L131.786 17.46C132.119 17.46 132.486 17.46 132.886 17.46C133.299 17.4467 133.713 17.4333 134.126 17.42C134.553 17.4067 134.946 17.38 135.306 17.34C135.666 17.2867 135.966 17.22 136.206 17.14C136.686 16.9667 137.059 16.7533 137.326 16.5C137.593 16.2333 137.779 15.8867 137.886 15.46C138.006 15.02 138.066 14.46 138.066 13.78C138.066 13.22 137.993 12.7 137.846 12.22C137.699 11.74 137.493 11.3533 137.226 11.06C136.959 10.7667 136.639 10.62 136.266 10.62C135.959 10.62 135.679 10.74 135.426 10.98C135.186 11.2067 134.993 11.5 134.846 11.86C134.713 12.22 134.646 12.58 134.646 12.94C134.646 13.22 134.699 13.46 134.806 13.66C134.926 13.86 135.119 14.02 135.386 14.14C135.653 14.2467 135.999 14.3 136.426 14.3C136.813 14.3 137.199 14.26 137.586 14.18C137.986 14.1 138.326 13.9933 138.606 13.86L138.686 15.26C138.473 15.4067 138.233 15.5267 137.966 15.62C137.699 15.7133 137.419 15.78 137.126 15.82C136.833 15.86 136.539 15.88 136.246 15.88C135.566 15.88 134.986 15.7733 134.506 15.56C134.039 15.3333 133.679 15.0333 133.426 14.66C133.186 14.2733 133.066 13.8333 133.066 13.34C133.066 12.8333 133.146 12.3267 133.306 11.82C133.466 11.3 133.693 10.8267 133.986 10.4C134.279 9.97333 134.633 9.63333 135.046 9.38C135.459 9.11333 135.919 8.98 136.426 8.98C137.146 8.98 137.739 9.21333 138.206 9.68C138.686 10.1467 139.039 10.76 139.266 11.52C139.506 12.2667 139.626 13.06 139.626 13.9C139.626 14.9 139.453 15.76 139.106 16.48C138.773 17.1867 138.213 17.7733 137.426 18.24C137.119 18.4133 136.746 18.56 136.306 18.68C135.879 18.7867 135.406 18.8733 134.886 18.94C134.379 19.0067 133.846 19.0467 133.286 19.06C132.726 19.0867 132.159 19.1 131.586 19.1ZM136.046 6.92C135.766 6.92 135.526 6.82667 135.326 6.64C135.139 6.44 135.046 6.20667 135.046 5.94C135.046 5.67333 135.139 5.44 135.326 5.24C135.526 5.04 135.766 4.94 136.046 4.94C136.313 4.94 136.539 5.04 136.726 5.24C136.926 5.44 137.026 5.67333 137.026 5.94C137.026 6.20667 136.926 6.44 136.726 6.64C136.539 6.82667 136.313 6.92 136.046 6.92ZM140.006 23.64L139.426 22.12C140.399 21.8 141.206 21.4333 141.846 21.02C142.499 20.6067 143.012 20.1667 143.386 19.7C143.772 19.2333 144.046 18.76 144.206 18.28C144.366 17.7867 144.446 17.3133 144.446 16.86C144.446 16.2067 144.299 15.5467 144.006 14.88C143.726 14.2 143.412 13.56 143.066 12.96L144.526 12.22C144.779 12.6867 144.999 13.1467 145.186 13.6C145.386 14.0533 145.559 14.48 145.706 14.88C145.866 15.28 145.992 15.6467 146.086 15.98C146.272 16.5533 146.512 16.9467 146.806 17.16C147.112 17.36 147.526 17.46 148.046 17.46C148.326 17.46 148.526 17.54 148.646 17.7C148.779 17.8467 148.846 18.0267 148.846 18.24C148.846 18.4533 148.752 18.6533 148.566 18.84C148.379 19.0133 148.139 19.1 147.846 19.1C147.259 19.1 146.779 19 146.406 18.8C146.046 18.5867 145.772 18.3133 145.586 17.98C145.399 17.6333 145.272 17.2733 145.206 16.9L145.846 17.26C145.846 18.14 145.646 18.94 145.246 19.66C144.859 20.3933 144.359 21.0267 143.746 21.56C143.132 22.1067 142.492 22.5533 141.826 22.9C141.159 23.2467 140.552 23.4933 140.006 23.64ZM147.855 19.1L148.055 17.46C148.429 17.46 148.722 17.38 148.935 17.22C149.162 17.06 149.375 16.7933 149.575 16.42C149.789 16.0467 150.055 15.5467 150.375 14.92C150.695 14.28 151.015 13.76 151.335 13.36C151.669 12.9467 151.989 12.6267 152.295 12.4C152.615 12.16 152.915 11.9933 153.195 11.9C153.475 11.8067 153.735 11.76 153.975 11.76C154.415 11.76 154.809 11.86 155.155 12.06C155.502 12.2467 155.829 12.5733 156.135 13.04C156.442 13.4933 156.755 14.12 157.075 14.92C157.382 15.6533 157.655 16.2067 157.895 16.58C158.149 16.94 158.409 17.18 158.675 17.3C158.955 17.4067 159.269 17.46 159.615 17.46C159.895 17.46 160.095 17.54 160.215 17.7C160.349 17.8467 160.415 18.0267 160.415 18.24C160.415 18.4533 160.322 18.6533 160.135 18.84C159.949 19.0133 159.709 19.1 159.415 19.1C158.895 19.1 158.415 19.0133 157.975 18.84C157.549 18.6667 157.189 18.3933 156.895 18.02L157.175 17.6C157.029 18.0133 156.829 18.3533 156.575 18.62C156.335 18.8733 156.062 19.06 155.755 19.18C155.449 19.3133 155.122 19.38 154.775 19.38C154.335 19.38 153.882 19.2867 153.415 19.1C152.962 18.9133 152.522 18.6467 152.095 18.3C151.669 17.9533 151.295 17.5467 150.975 17.08C150.629 17.6933 150.295 18.1467 149.975 18.44C149.669 18.72 149.349 18.9 149.015 18.98C148.682 19.06 148.295 19.1 147.855 19.1ZM151.735 15.56C151.962 15.9333 152.202 16.26 152.455 16.54C152.722 16.82 152.989 17.0533 153.255 17.24C153.522 17.4133 153.782 17.5467 154.035 17.64C154.302 17.72 154.542 17.76 154.755 17.76C155.222 17.76 155.562 17.5933 155.775 17.26C156.002 16.9267 155.995 16.46 155.755 15.86C155.635 15.5533 155.509 15.2533 155.375 14.96C155.255 14.6667 155.122 14.4 154.975 14.16C154.829 13.9067 154.662 13.7133 154.475 13.58C154.289 13.4333 154.082 13.36 153.855 13.36C153.655 13.36 153.442 13.4267 153.215 13.56C153.002 13.6933 152.769 13.92 152.515 14.24C152.275 14.56 152.015 15 151.735 15.56ZM159.418 19.1L159.598 17.46C160.358 17.46 160.891 17.3867 161.198 17.24C161.505 17.0933 161.678 16.8333 161.718 16.46C161.771 16.0867 161.785 15.5667 161.758 14.9L161.378 4.72H162.998L163.398 14.72C163.425 15.4267 163.398 16.0533 163.318 16.6C163.251 17.1467 163.078 17.6067 162.798 17.98C162.531 18.3533 162.125 18.6333 161.578 18.82C161.045 19.0067 160.325 19.1 159.418 19.1ZM166.453 19L166.053 4.72H167.673L168.073 19H166.453Z" fill="#116845"/>
<path d="M190 2C184.49 2 180 6.49 180 12C180 17.51 184.49 22 190 22C195.51 22 200 17.51 200 12C200 6.49 195.51 2 190 2ZM194.78 9.7L189.11 15.37C188.97 15.51 188.78 15.59 188.58 15.59C188.38 15.59 188.19 15.51 188.05 15.37L185.22 12.54C184.93 12.25 184.93 11.77 185.22 11.48C185.51 11.19 185.99 11.19 186.28 11.48L188.58 13.78L193.72 8.64C194.01 8.35 194.49 8.35 194.78 8.64C195.07 8.93 195.07 9.4 194.78 9.7Z" fill="#116845"/>
<path d="M218 2C212.49 2 208 6.49 208 12C208 17.51 212.49 22 218 22C223.51 22 228 17.51 228 12C228 6.49 223.51 2 218 2ZM222.78 9.7L217.11 15.37C216.97 15.51 216.78 15.59 216.58 15.59C216.38 15.59 216.19 15.51 216.05 15.37L213.22 12.54C212.93 12.25 212.93 11.77 213.22 11.48C213.51 11.19 213.99 11.19 214.28 11.48L216.58 13.78L221.72 8.64C222.01 8.35 222.49 8.35 222.78 8.64C223.07 8.93 223.07 9.4 222.78 9.7Z" fill="#9E9E9E"/>
</svg>
