<svg width="306" height="24" viewBox="0 0 306 24" fill="none" xmlns="http://www.w3.org/2000/svg">
<path d="M12 22C17.5 22 22 17.5 22 12C22 6.5 17.5 2 12 2C6.5 2 2 6.5 2 12C2 17.5 6.5 22 12 22Z" stroke="#9E9E9E" stroke-width="1.5" stroke-linecap="round" stroke-linejoin="round"/>
<path d="M7.75 11.9999L10.58 14.8299L16.25 9.16992" stroke="#9E9E9E" stroke-width="1.5" stroke-linecap="round" stroke-linejoin="round"/>
<path d="M44 22C49.5 22 54 17.5 54 12C54 6.5 49.5 2 44 2C38.5 2 34 6.5 34 12C34 17.5 38.5 22 44 22Z" stroke="#9E9E9E" stroke-width="1.5" stroke-linecap="round" stroke-linejoin="round"/>
<path d="M39.75 11.9999L42.58 14.8299L48.25 9.16992" stroke="#9E9E9E" stroke-width="1.5" stroke-linecap="round" stroke-linejoin="round"/>
<path d="M76 22C81.5 22 86 17.5 86 12C86 6.5 81.5 2 76 2C70.5 2 66 6.5 66 12C66 17.5 70.5 22 76 22Z" stroke="#9E9E9E" stroke-width="1.5" stroke-linecap="round" stroke-linejoin="round"/>
<path d="M71.75 11.9999L74.58 14.8299L80.25 9.16992" stroke="#9E9E9E" stroke-width="1.5" stroke-linecap="round" stroke-linejoin="round"/>
<path d="M108 22C113.5 22 118 17.5 118 12C118 6.5 113.5 2 108 2C102.5 2 98 6.5 98 12C98 17.5 102.5 22 108 22Z" stroke="#9E9E9E" stroke-width="1.5" stroke-linecap="round" stroke-linejoin="round"/>
<path d="M103.75 11.9999L106.58 14.8299L112.25 9.16992" stroke="#9E9E9E" stroke-width="1.5" stroke-linecap="round" stroke-linejoin="round"/>
<path d="M145.72 19.1C145 19.1 144.36 19 143.8 18.8C143.253 18.5867 142.813 18.2333 142.48 17.74C142.16 17.2333 141.98 16.5333 141.94 15.64L141.62 8.68H143.24L143.56 15.28C143.6 15.9067 143.713 16.38 143.9 16.7C144.087 17.0067 144.347 17.2133 144.68 17.32C145.027 17.4133 145.44 17.46 145.92 17.46C146.2 17.46 146.4 17.54 146.52 17.7C146.653 17.8467 146.72 18.0267 146.72 18.24C146.72 18.4533 146.627 18.6533 146.44 18.84C146.253 19.0133 146.013 19.1 145.72 19.1ZM142.7 16.9C141.94 17.14 141.2 17.26 140.48 17.26C139.76 17.26 139.107 17.1533 138.52 16.94C137.933 16.7267 137.467 16.42 137.12 16.02C136.773 15.6067 136.6 15.1133 136.6 14.54C136.6 13.98 136.74 13.4533 137.02 12.96C137.313 12.4667 137.707 12.0267 138.2 11.64C138.707 11.2533 139.287 10.9333 139.94 10.68C140.607 10.4133 141.313 10.2333 142.06 10.14L142.34 11.82C141.673 11.8467 141.08 11.94 140.56 12.1C140.053 12.2467 139.62 12.44 139.26 12.68C138.913 12.92 138.647 13.18 138.46 13.46C138.273 13.74 138.18 14.0133 138.18 14.28C138.18 14.5733 138.287 14.8133 138.5 15C138.713 15.1867 138.987 15.3333 139.32 15.44C139.653 15.5333 140.02 15.5933 140.42 15.62C140.82 15.6333 141.207 15.62 141.58 15.58C141.953 15.5267 142.273 15.4533 142.54 15.36L142.7 16.9ZM142.28 6.38C142 6.38 141.76 6.28667 141.56 6.1C141.373 5.9 141.28 5.66667 141.28 5.4C141.28 5.13333 141.373 4.9 141.56 4.7C141.76 4.5 142 4.4 142.28 4.4C142.547 4.4 142.773 4.5 142.96 4.7C143.16 4.9 143.26 5.13333 143.26 5.4C143.26 5.66667 143.16 5.9 142.96 6.1C142.773 6.28667 142.547 6.38 142.28 6.38ZM139.54 6.38C139.26 6.38 139.02 6.28667 138.82 6.1C138.633 5.9 138.54 5.66667 138.54 5.4C138.54 5.13333 138.633 4.9 138.82 4.7C139.02 4.5 139.26 4.4 139.54 4.4C139.807 4.4 140.033 4.5 140.22 4.7C140.42 4.9 140.52 5.13333 140.52 5.4C140.52 5.66667 140.42 5.9 140.22 6.1C140.033 6.28667 139.807 6.38 139.54 6.38ZM145.727 19.1L145.927 17.46C146.593 17.46 147.113 17.4133 147.487 17.32C147.86 17.2133 148.14 17.02 148.327 16.74C148.527 16.4467 148.687 16.0267 148.807 15.48C148.927 14.9333 149.073 14.22 149.247 13.34L150.807 13.64C150.753 13.88 150.693 14.1467 150.627 14.44C150.56 14.7333 150.5 15.0267 150.447 15.32C150.407 15.6 150.387 15.8467 150.387 16.06C150.387 16.26 150.4 16.4467 150.427 16.62C150.453 16.7933 150.553 16.94 150.727 17.06C150.9 17.18 151.193 17.28 151.607 17.36C152.02 17.4267 152.613 17.46 153.387 17.46C153.667 17.46 153.867 17.54 153.987 17.7C154.12 17.8467 154.187 18.0267 154.187 18.24C154.187 18.4533 154.093 18.6533 153.907 18.84C153.72 19.0133 153.48 19.1 153.187 19.1C152.373 19.1 151.727 19.06 151.247 18.98C150.767 18.8867 150.4 18.7533 150.147 18.58C149.907 18.4067 149.733 18.1933 149.627 17.94C149.533 17.6733 149.46 17.3667 149.407 17.02L150.007 17.06C149.793 17.4867 149.56 17.8333 149.307 18.1C149.067 18.3667 148.787 18.5733 148.467 18.72C148.147 18.8667 147.76 18.9667 147.307 19.02C146.867 19.0733 146.34 19.1 145.727 19.1ZM150.767 22.88C150.487 22.88 150.247 22.78 150.047 22.58C149.86 22.3933 149.767 22.1667 149.767 21.9C149.767 21.6333 149.86 21.4 150.047 21.2C150.247 21 150.487 20.9 150.767 20.9C151.033 20.9 151.26 21 151.447 21.2C151.647 21.4 151.747 21.6333 151.747 21.9C151.747 22.1667 151.647 22.3933 151.447 22.58C151.26 22.78 151.033 22.88 150.767 22.88ZM148.027 22.88C147.747 22.88 147.507 22.78 147.307 22.58C147.12 22.3933 147.027 22.1667 147.027 21.9C147.027 21.6333 147.12 21.4 147.307 21.2C147.507 21 147.747 20.9 148.027 20.9C148.293 20.9 148.52 21 148.707 21.2C148.907 21.4 149.007 21.6333 149.007 21.9C149.007 22.1667 148.907 22.3933 148.707 22.58C148.52 22.78 148.293 22.88 148.027 22.88ZM153.188 19.1L153.388 17.46C153.814 17.46 154.161 17.4333 154.428 17.38C154.694 17.3133 154.914 17.16 155.088 16.92C155.274 16.6667 155.448 16.2733 155.608 15.74C155.768 15.2067 155.954 14.46 156.168 13.5L157.668 13.92C157.614 14.1467 157.554 14.4067 157.488 14.7C157.421 14.98 157.361 15.2733 157.308 15.58C157.254 15.8733 157.228 16.1467 157.228 16.4C157.228 16.7333 157.354 16.9933 157.608 17.18C157.861 17.3667 158.321 17.46 158.988 17.46C159.388 17.46 159.714 17.4267 159.968 17.36C160.221 17.2933 160.428 17.1333 160.588 16.88C160.761 16.6267 160.914 16.22 161.048 15.66C161.181 15.1 161.321 14.3333 161.468 13.36L162.988 13.64C162.948 13.88 162.901 14.1733 162.848 14.52C162.794 14.8667 162.741 15.2133 162.688 15.56C162.648 15.8933 162.628 16.1733 162.628 16.4C162.628 16.5867 162.668 16.7667 162.748 16.94C162.841 17.1 163.014 17.2267 163.268 17.32C163.534 17.4133 163.928 17.46 164.448 17.46C164.834 17.46 165.168 17.4133 165.448 17.32C165.741 17.2267 165.961 17.0533 166.108 16.8C166.268 16.5467 166.348 16.1933 166.348 15.74C166.348 15.2333 166.228 14.6 165.988 13.84C165.761 13.0667 165.501 12.3 165.208 11.54L166.828 10.94C167.001 11.3667 167.161 11.8533 167.308 12.4C167.468 12.9467 167.601 13.4867 167.708 14.02C167.814 14.5533 167.868 15.02 167.868 15.42C167.868 16.0333 167.788 16.5733 167.628 17.04C167.468 17.5067 167.241 17.8933 166.948 18.2C166.654 18.4933 166.294 18.72 165.868 18.88C165.441 19.0267 164.961 19.1 164.428 19.1C163.801 19.1 163.288 19.0267 162.888 18.88C162.488 18.7333 162.181 18.5133 161.968 18.22C161.754 17.9133 161.614 17.5267 161.548 17.06H162.228C161.974 17.6333 161.708 18.0667 161.428 18.36C161.148 18.6533 160.801 18.8533 160.388 18.96C159.974 19.0533 159.428 19.1 158.748 19.1C158.414 19.1 158.054 19.0467 157.668 18.94C157.294 18.8333 156.968 18.6267 156.688 18.32C156.408 18 156.241 17.5267 156.188 16.9L156.788 16.78C156.561 17.46 156.281 17.9667 155.948 18.3C155.628 18.62 155.241 18.8333 154.788 18.94C154.334 19.0467 153.801 19.1 153.188 19.1ZM174.691 19.1C173.624 19.1 172.804 18.98 172.231 18.74C171.671 18.5 171.284 18.1267 171.071 17.62C170.858 17.1133 170.738 16.46 170.711 15.66L170.311 4.72H171.951L172.351 15.02C172.378 15.6733 172.438 16.18 172.531 16.54C172.638 16.8867 172.864 17.1267 173.211 17.26C173.571 17.3933 174.131 17.46 174.891 17.46C175.171 17.46 175.371 17.54 175.491 17.7C175.624 17.8467 175.691 18.0267 175.691 18.24C175.691 18.4533 175.598 18.6533 175.411 18.84C175.224 19.0133 174.984 19.1 174.691 19.1ZM174.691 19.1L174.891 17.46C175.318 17.46 175.665 17.4333 175.931 17.38C176.198 17.3133 176.418 17.16 176.591 16.92C176.778 16.6667 176.951 16.2733 177.111 15.74C177.271 15.2067 177.458 14.46 177.671 13.5L179.171 13.92C179.118 14.1467 179.058 14.4067 178.991 14.7C178.925 14.98 178.865 15.2733 178.811 15.58C178.758 15.8733 178.731 16.1467 178.731 16.4C178.731 16.7333 178.858 16.9933 179.111 17.18C179.365 17.3667 179.825 17.46 180.491 17.46C180.891 17.46 181.218 17.4267 181.471 17.36C181.725 17.2933 181.931 17.1333 182.091 16.88C182.265 16.6267 182.418 16.22 182.551 15.66C182.685 15.1 182.825 14.3333 182.971 13.36L184.491 13.64C184.451 13.88 184.405 14.1733 184.351 14.52C184.298 14.8667 184.245 15.2133 184.191 15.56C184.151 15.8933 184.131 16.1733 184.131 16.4C184.131 16.5867 184.171 16.7667 184.251 16.94C184.345 17.1 184.518 17.2267 184.771 17.32C185.038 17.4133 185.431 17.46 185.951 17.46C186.338 17.46 186.671 17.4133 186.951 17.32C187.245 17.2267 187.465 17.0533 187.611 16.8C187.771 16.5467 187.851 16.1933 187.851 15.74C187.851 15.2333 187.731 14.6 187.491 13.84C187.265 13.0667 187.005 12.3 186.711 11.54L188.331 10.94C188.505 11.3667 188.665 11.8533 188.811 12.4C188.971 12.9467 189.105 13.4867 189.211 14.02C189.318 14.5533 189.371 15.02 189.371 15.42C189.371 16.0333 189.291 16.5733 189.131 17.04C188.971 17.5067 188.745 17.8933 188.451 18.2C188.158 18.4933 187.798 18.72 187.371 18.88C186.945 19.0267 186.465 19.1 185.931 19.1C185.305 19.1 184.791 19.0267 184.391 18.88C183.991 18.7333 183.685 18.5133 183.471 18.22C183.258 17.9133 183.118 17.5267 183.051 17.06H183.731C183.478 17.6333 183.211 18.0667 182.931 18.36C182.651 18.6533 182.305 18.8533 181.891 18.96C181.478 19.0533 180.931 19.1 180.251 19.1C179.918 19.1 179.558 19.0467 179.171 18.94C178.798 18.8333 178.471 18.6267 178.191 18.32C177.911 18 177.745 17.5267 177.691 16.9L178.291 16.78C178.065 17.46 177.785 17.9667 177.451 18.3C177.131 18.62 176.745 18.8333 176.291 18.94C175.838 19.0467 175.305 19.1 174.691 19.1ZM198.235 8.28C198.235 7.98667 198.215 7.63333 198.175 7.22C198.135 6.80667 198.088 6.39333 198.035 5.98C197.982 5.56667 197.928 5.21333 197.875 4.92L199.595 4.72C199.635 4.98667 199.675 5.34 199.715 5.78C199.768 6.20667 199.808 6.63333 199.835 7.06C199.862 7.48667 199.875 7.84 199.875 8.12C199.875 8.76 199.828 9.38667 199.735 10C199.655 10.6 199.522 11.1933 199.335 11.78C199.148 12.3533 198.902 12.9133 198.595 13.46L198.355 13.9C197.982 14.5267 197.522 15.1333 196.975 15.72C196.428 16.2933 195.788 16.84 195.055 17.36H197.575C198.028 17.36 198.375 17.3067 198.615 17.2C198.855 17.08 199.015 16.9267 199.095 16.74C199.188 16.5533 199.235 16.3533 199.235 16.14C199.235 15.78 199.015 15.3333 198.575 14.8C198.148 14.2533 197.555 13.6533 196.795 13C196.035 12.3333 195.175 11.6333 194.215 10.9C193.255 10.1667 192.242 9.42 191.175 8.66L192.115 7.34C193.342 8.24667 194.422 9.06667 195.355 9.8C196.302 10.5333 197.108 11.2067 197.775 11.82C198.455 12.42 199.008 12.98 199.435 13.5C199.875 14.0067 200.195 14.4933 200.395 14.96C200.608 15.4133 200.715 15.86 200.715 16.3C200.715 16.5933 200.662 16.9 200.555 17.22C200.462 17.5267 200.288 17.82 200.035 18.1C199.795 18.3667 199.448 18.5867 198.995 18.76C198.555 18.92 197.982 19 197.275 19H192.675V17.38C194.048 16.3933 195.135 15.4333 195.935 14.5C196.748 13.5667 197.335 12.5933 197.695 11.58C198.055 10.5667 198.235 9.46667 198.235 8.28ZM190.895 6.28L190.655 5.2C191.002 5.12 191.282 5.05333 191.495 5C191.708 4.94667 191.948 4.88667 192.215 4.82L192.115 5.24C191.768 5.13333 191.435 4.90667 191.115 4.56C190.808 4.21333 190.655 3.82 190.655 3.38C190.655 2.98 190.748 2.64667 190.935 2.38C191.135 2.1 191.388 1.89333 191.695 1.76C192.015 1.62667 192.355 1.56 192.715 1.56C192.862 1.56 193.015 1.57333 193.175 1.6C193.348 1.62667 193.508 1.66667 193.655 1.72L193.495 2.72C193.362 2.69333 193.235 2.66667 193.115 2.64C192.995 2.61333 192.862 2.6 192.715 2.6C192.408 2.6 192.168 2.66667 191.995 2.8C191.822 2.92 191.735 3.09333 191.735 3.32C191.735 3.6 191.822 3.84 191.995 4.04C192.182 4.24 192.388 4.4 192.615 4.52C192.855 4.62667 193.048 4.68 193.195 4.68L192.375 4.76C192.735 4.66667 193.068 4.57333 193.375 4.48C193.695 4.37333 193.982 4.27333 194.235 4.18L194.555 5.2C194.235 5.32 193.855 5.44667 193.415 5.58C192.988 5.71333 192.555 5.84 192.115 5.96C191.675 6.08 191.268 6.18667 190.895 6.28ZM203.856 19L203.456 4.72H205.076L205.476 19H203.856ZM219.874 19.42L220.394 17.78C221.954 17.78 223.294 17.74 224.414 17.66C225.548 17.58 226.474 17.4533 227.194 17.28C227.928 17.0933 228.468 16.8467 228.814 16.54C229.174 16.22 229.354 15.8333 229.354 15.38C229.354 14.8733 229.261 14.2867 229.074 13.62C228.888 12.9533 228.648 12.24 228.354 11.48L229.894 10.94C230.068 11.3667 230.228 11.8267 230.374 12.32C230.534 12.8 230.668 13.28 230.774 13.76C230.881 14.2267 230.934 14.66 230.934 15.06C230.934 15.8467 230.754 16.52 230.394 17.08C230.034 17.6267 229.434 18.0733 228.594 18.42C227.754 18.7667 226.621 19.02 225.194 19.18C223.781 19.34 222.008 19.42 219.874 19.42ZM219.874 19.42C218.688 19.42 217.641 19.34 216.734 19.18C215.841 19.0333 215.094 18.8 214.494 18.48C213.894 18.16 213.441 17.7467 213.134 17.24C212.828 16.72 212.674 16.0933 212.674 15.36C212.674 15.0267 212.701 14.6867 212.754 14.34C212.808 13.98 212.874 13.62 212.954 13.26C213.048 12.9 213.141 12.5533 213.234 12.22L214.734 12.6C214.681 12.8 214.621 13.04 214.554 13.32C214.488 13.5867 214.428 13.86 214.374 14.14C214.334 14.42 214.314 14.6733 214.314 14.9C214.314 15.5933 214.488 16.1533 214.834 16.58C215.194 16.9933 215.814 17.3 216.694 17.5C217.574 17.6867 218.808 17.78 220.394 17.78L220.794 18.78L219.874 19.42ZM223.214 10.98C222.934 10.98 222.694 10.8867 222.494 10.7C222.308 10.5 222.214 10.2667 222.214 10C222.214 9.73333 222.308 9.5 222.494 9.3C222.694 9.1 222.934 9 223.214 9C223.481 9 223.708 9.1 223.894 9.3C224.094 9.5 224.194 9.73333 224.194 10C224.194 10.2667 224.094 10.5 223.894 10.7C223.708 10.8867 223.481 10.98 223.214 10.98ZM220.474 10.98C220.194 10.98 219.954 10.8867 219.754 10.7C219.568 10.5 219.474 10.2667 219.474 10C219.474 9.73333 219.568 9.5 219.754 9.3C219.954 9.1 220.194 9 220.474 9C220.741 9 220.968 9.1 221.154 9.3C221.354 9.5 221.454 9.73333 221.454 10C221.454 10.2667 221.354 10.5 221.154 10.7C220.968 10.8867 220.741 10.98 220.474 10.98ZM237.758 19.1C236.691 19.1 235.871 18.98 235.298 18.74C234.738 18.5 234.351 18.1267 234.138 17.62C233.924 17.1133 233.804 16.46 233.778 15.66L233.378 4.72H235.018L235.418 15.02C235.444 15.6733 235.504 16.18 235.598 16.54C235.704 16.8867 235.931 17.1267 236.278 17.26C236.638 17.3933 237.198 17.46 237.958 17.46C238.238 17.46 238.438 17.54 238.558 17.7C238.691 17.8467 238.758 18.0267 238.758 18.24C238.758 18.4533 238.664 18.6533 238.478 18.84C238.291 19.0133 238.051 19.1 237.758 19.1ZM237.758 19.1L237.958 17.46C238.611 17.46 239.131 17.42 239.518 17.34C239.904 17.26 240.184 17.1 240.358 16.86C240.531 16.6067 240.618 16.2333 240.618 15.74C240.618 15.4067 240.564 15.0133 240.458 14.56C240.351 14.0933 240.211 13.6 240.038 13.08C239.864 12.56 239.678 12.0467 239.478 11.54L241.098 10.94C241.271 11.3667 241.431 11.8533 241.578 12.4C241.738 12.9467 241.871 13.4867 241.978 14.02C242.084 14.5533 242.138 15.02 242.138 15.42C242.138 15.9533 242.078 16.4267 241.958 16.84C241.851 17.24 241.684 17.5867 241.458 17.88C241.231 18.16 240.938 18.3933 240.578 18.58C240.231 18.7533 239.824 18.8867 239.358 18.98C238.891 19.06 238.358 19.1 237.758 19.1ZM240.318 8.86C240.038 8.86 239.798 8.76667 239.598 8.58C239.411 8.38 239.318 8.14667 239.318 7.88C239.318 7.61333 239.411 7.38 239.598 7.18C239.798 6.98 240.038 6.88 240.318 6.88C240.584 6.88 240.811 6.98 240.998 7.18C241.198 7.38 241.298 7.61333 241.298 7.88C241.298 8.14667 241.198 8.38 240.998 8.58C240.811 8.76667 240.584 8.86 240.318 8.86ZM248.949 19.1C247.882 19.1 247.062 18.98 246.489 18.74C245.929 18.5 245.542 18.1267 245.329 17.62C245.116 17.1133 244.996 16.46 244.969 15.66L244.569 4.72H246.209L246.609 15.02C246.636 15.6733 246.696 16.18 246.789 16.54C246.896 16.8867 247.122 17.1267 247.469 17.26C247.829 17.3933 248.389 17.46 249.149 17.46C249.429 17.46 249.629 17.54 249.749 17.7C249.882 17.8467 249.949 18.0267 249.949 18.24C249.949 18.4533 249.856 18.6533 249.669 18.84C249.482 19.0133 249.242 19.1 248.949 19.1ZM248.949 19.1L249.149 17.46C249.816 17.46 250.336 17.4133 250.709 17.32C251.083 17.2133 251.363 17.02 251.549 16.74C251.749 16.4467 251.909 16.0267 252.029 15.48C252.149 14.9333 252.296 14.22 252.469 13.34L254.029 13.64C253.976 13.88 253.916 14.1467 253.849 14.44C253.783 14.7333 253.723 15.0267 253.669 15.32C253.629 15.6 253.609 15.8467 253.609 16.06C253.609 16.26 253.623 16.4467 253.649 16.62C253.676 16.7933 253.776 16.94 253.949 17.06C254.123 17.18 254.416 17.28 254.829 17.36C255.243 17.4267 255.836 17.46 256.609 17.46C256.889 17.46 257.089 17.54 257.209 17.7C257.343 17.8467 257.409 18.0267 257.409 18.24C257.409 18.4533 257.316 18.6533 257.129 18.84C256.943 19.0133 256.703 19.1 256.409 19.1C255.596 19.1 254.949 19.06 254.469 18.98C253.989 18.8867 253.623 18.7533 253.369 18.58C253.129 18.4067 252.956 18.1933 252.849 17.94C252.756 17.6733 252.683 17.3667 252.629 17.02L253.229 17.06C253.016 17.4867 252.783 17.8333 252.529 18.1C252.289 18.3667 252.009 18.5733 251.689 18.72C251.369 18.8667 250.983 18.9667 250.529 19.02C250.089 19.0733 249.563 19.1 248.949 19.1ZM253.989 22.88C253.709 22.88 253.469 22.78 253.269 22.58C253.083 22.3933 252.989 22.1667 252.989 21.9C252.989 21.6333 253.083 21.4 253.269 21.2C253.469 21 253.709 20.9 253.989 20.9C254.256 20.9 254.483 21 254.669 21.2C254.869 21.4 254.969 21.6333 254.969 21.9C254.969 22.1667 254.869 22.3933 254.669 22.58C254.483 22.78 254.256 22.88 253.989 22.88ZM251.249 22.88C250.969 22.88 250.729 22.78 250.529 22.58C250.343 22.3933 250.249 22.1667 250.249 21.9C250.249 21.6333 250.343 21.4 250.529 21.2C250.729 21 250.969 20.9 251.249 20.9C251.516 20.9 251.743 21 251.929 21.2C252.129 21.4 252.229 21.6333 252.229 21.9C252.229 22.1667 252.129 22.3933 251.929 22.58C251.743 22.78 251.516 22.88 251.249 22.88ZM256.41 19.1L256.61 17.46C257.17 17.46 257.61 17.4133 257.93 17.32C258.25 17.2133 258.49 17.02 258.65 16.74C258.823 16.4467 258.97 16.0267 259.09 15.48C259.21 14.9333 259.357 14.22 259.53 13.34L261.09 13.64C261.037 13.88 260.977 14.1467 260.91 14.44C260.843 14.7333 260.783 15.0267 260.73 15.32C260.69 15.6 260.67 15.8467 260.67 16.06C260.67 16.3267 260.73 16.5667 260.85 16.78C260.97 16.9933 261.23 17.16 261.63 17.28C262.03 17.4 262.643 17.46 263.47 17.46C263.75 17.46 263.95 17.54 264.07 17.7C264.203 17.8467 264.27 18.0267 264.27 18.24C264.27 18.4533 264.177 18.6533 263.99 18.84C263.803 19.0133 263.563 19.1 263.27 19.1C262.403 19.1 261.723 19.0267 261.23 18.88C260.737 18.72 260.377 18.4867 260.15 18.18C259.923 17.86 259.77 17.4733 259.69 17.02L260.29 17.06C260.077 17.4867 259.843 17.8333 259.59 18.1C259.35 18.3667 259.083 18.5733 258.79 18.72C258.497 18.8667 258.157 18.9667 257.77 19.02C257.383 19.0733 256.93 19.1 256.41 19.1ZM259.81 22.82C259.53 22.82 259.29 22.72 259.09 22.52C258.903 22.3333 258.81 22.1067 258.81 21.84C258.81 21.5733 258.903 21.34 259.09 21.14C259.29 20.94 259.53 20.84 259.81 20.84C260.077 20.84 260.303 20.94 260.49 21.14C260.69 21.34 260.79 21.5733 260.79 21.84C260.79 22.1067 260.69 22.3333 260.49 22.52C260.303 22.72 260.077 22.82 259.81 22.82ZM263.266 19.1L263.446 17.46C264.206 17.46 264.739 17.3867 265.046 17.24C265.352 17.0933 265.526 16.8333 265.566 16.46C265.619 16.0867 265.632 15.5667 265.606 14.9L265.226 4.72H266.846L267.246 14.72C267.272 15.4267 267.246 16.0533 267.166 16.6C267.099 17.1467 266.926 17.6067 266.646 17.98C266.379 18.3533 265.972 18.6333 265.426 18.82C264.892 19.0067 264.172 19.1 263.266 19.1ZM270.301 19L269.901 4.72H271.521L271.921 19H270.301Z" fill="#116845"/>
<path d="M294 2C288.49 2 284 6.49 284 12C284 17.51 288.49 22 294 22C299.51 22 304 17.51 304 12C304 6.49 299.51 2 294 2ZM298.78 9.7L293.11 15.37C292.97 15.51 292.78 15.59 292.58 15.59C292.38 15.59 292.19 15.51 292.05 15.37L289.22 12.54C288.93 12.25 288.93 11.77 289.22 11.48C289.51 11.19 289.99 11.19 290.28 11.48L292.58 13.78L297.72 8.64C298.01 8.35 298.49 8.35 298.78 8.64C299.07 8.93 299.07 9.4 298.78 9.7Z" fill="#116845"/>
</svg>
