<svg width="279" height="206" viewBox="0 0 279 206" fill="none" xmlns="http://www.w3.org/2000/svg">
<path d="M279 181.03H0V181.168H279V181.03Z" fill="#EBEBEB"/>
<path d="M251.044 189.926H232.563V190.065H251.044V189.926Z" fill="#EBEBEB"/>
<path d="M184.821 191.43H179.972V191.569H184.821V191.43Z" fill="#EBEBEB"/>
<path d="M232.005 184.795H221.297V184.934H232.005V184.795Z" fill="#EBEBEB"/>
<path d="M53.3735 185.724H29.2734V185.863H53.3735V185.724Z" fill="#EBEBEB"/>
<path d="M61.8769 185.724H58.3447V185.863H61.8769V185.724Z" fill="#EBEBEB"/>
<path d="M125.633 188.057H73.3599V188.196H125.633V188.057Z" fill="#EBEBEB"/>
<path d="M132.246 156.369H24.502C23.658 156.367 22.849 156.034 22.2526 155.442C21.6563 154.85 21.3214 154.048 21.3214 153.212V3.12961C21.3288 2.29801 21.6669 1.50287 22.2624 0.916896C22.858 0.330921 23.6628 0.00143982 24.502 1.52588e-05H132.246C133.091 1.52588e-05 133.902 0.332652 134.499 0.924749C135.097 1.51685 135.432 2.3199 135.432 3.15725V153.212C135.432 154.049 135.097 154.852 134.499 155.444C133.902 156.036 133.091 156.369 132.246 156.369ZM24.502 0.110602C23.6949 0.112067 22.9214 0.430785 22.3513 0.996799C21.7811 1.56281 21.4609 2.32987 21.4609 3.12961V153.212C21.4609 154.011 21.7811 154.779 22.3513 155.345C22.9214 155.911 23.6949 156.229 24.502 156.231H132.246C133.054 156.229 133.828 155.911 134.399 155.345C134.97 154.779 135.291 154.012 135.293 153.212V3.12961C135.291 2.32937 134.97 1.56232 134.399 0.996462C133.828 0.430605 133.054 0.112064 132.246 0.110602H24.502Z" fill="#EBEBEB"/>
<path d="M252.947 156.369H145.197C144.353 156.367 143.543 156.034 142.946 155.443C142.349 154.851 142.012 154.049 142.011 153.212V3.12961C142.02 2.29751 142.359 1.50237 142.956 0.91655C143.552 0.330728 144.357 0.00142429 145.197 1.52588e-05H252.947C253.785 0.00289299 254.589 0.333018 255.183 0.918836C255.777 1.50466 256.115 2.29897 256.122 3.12961V153.212C256.122 154.047 255.788 154.849 255.193 155.44C254.598 156.032 253.79 156.366 252.947 156.369ZM145.197 0.110602C144.39 0.112064 143.616 0.430605 143.044 0.996462C142.473 1.56232 142.152 2.32937 142.15 3.12961V153.212C142.152 154.012 142.473 154.779 143.044 155.345C143.616 155.911 144.39 156.229 145.197 156.231H252.947C253.755 156.229 254.529 155.911 255.1 155.345C255.671 154.779 255.992 154.012 255.994 153.212V3.12961C255.992 2.32937 255.671 1.56232 255.1 0.996462C254.529 0.430605 253.755 0.112064 252.947 0.110602H145.197Z" fill="#EBEBEB"/>
<path d="M91.7858 5.94417H52.0283V139.593H91.7858V5.94417Z" fill="#FAFAFA"/>
<path d="M85.8653 5.94417H83.544L69.6777 139.593H71.999L85.8653 5.94417Z" fill="#F5F5F5"/>
<path d="M91.0821 6.45828H51.771V7.63602H91.0821V6.45828Z" fill="#E0E0E0"/>
<path d="M91.0821 138.421H51.771V140.942H91.0821V138.421Z" fill="#EBEBEB"/>
<path d="M90.4297 140.832H53.2837V140.942H90.4297V140.832Z" fill="#EBEBEB"/>
<path d="M53.284 6.45821H90.4301V140.832H92.6565V4.80495H51.0576V140.832H53.284V6.45821Z" fill="#EBEBEB"/>
<path d="M136.029 5.94417H96.272V139.593H136.029V5.94417Z" fill="#FAFAFA"/>
<path d="M124.998 5.94417H112.326L98.4595 139.593H111.132L124.998 5.94417Z" fill="#F5F5F5"/>
<path d="M136.443 6.45828H96.0156V7.63602H136.443V6.45828Z" fill="#E0E0E0"/>
<path d="M136.443 138.421H96.0156V140.942H136.443V138.421Z" fill="#EBEBEB"/>
<path d="M134.673 140.832H97.5269V140.942H134.673V140.832Z" fill="#EBEBEB"/>
<path d="M97.5272 6.45821H134.673V140.832H136.894V4.80495H95.3008V140.832H97.5272V6.45821Z" fill="#EBEBEB"/>
<path d="M179.151 5.94417H140.51V139.593H179.151V5.94417Z" fill="#FAFAFA"/>
<path d="M162.406 5.94417H160.085L146.218 139.593H148.54L162.406 5.94417Z" fill="#F5F5F5"/>
<path d="M179.57 6.45828H140.259V7.63602H179.57V6.45828Z" fill="#E0E0E0"/>
<path d="M179.57 138.421H140.259V140.942H179.57V138.421Z" fill="#EBEBEB"/>
<path d="M178.917 140.832H141.771V140.942H178.917V140.832Z" fill="#EBEBEB"/>
<path d="M141.771 6.45821H178.912V140.832H181.138V4.80495H139.545V140.832H141.771V6.45821Z" fill="#EBEBEB"/>
<path d="M224.511 5.94417H184.754V139.593H224.511V5.94417Z" fill="#FAFAFA"/>
<path d="M220.622 5.94417H207.95L194.078 139.593H206.756L220.622 5.94417Z" fill="#F5F5F5"/>
<path d="M223.808 6.45828H184.497V7.63602H223.808V6.45828Z" fill="#E0E0E0"/>
<path d="M223.808 138.421H184.497V140.942H223.808V138.421Z" fill="#EBEBEB"/>
<path d="M186.009 6.45821H223.155V140.832H225.382V4.80495H183.789V140.832H186.009V6.45821Z" fill="#EBEBEB"/>
<path d="M223.155 140.832H186.009V140.942H223.155V140.832Z" fill="#EBEBEB"/>
<path d="M82.2716 108.85H65.0127V138.426H82.2716V108.85Z" fill="#EBEBEB"/>
<path d="M78.9571 104.714V112.135H77.6011H69.6887H68.3271V104.714H78.9571Z" fill="#EBEBEB"/>
<path d="M78.9568 112.134H81.1665V109.945H78.9568V112.134Z" fill="#FAFAFA"/>
<path d="M74.6829 112.134H76.8926V109.945H74.6829V112.134Z" fill="#FAFAFA"/>
<path d="M70.4026 112.134H72.6123V109.945H70.4026V112.134Z" fill="#FAFAFA"/>
<path d="M66.1233 112.134H68.333V109.945H66.1233V112.134Z" fill="#F0F0F0"/>
<path d="M78.9568 116.11H81.1665V113.921H78.9568V116.11Z" fill="#F0F0F0"/>
<path d="M74.6829 116.11H76.8926V113.921H74.6829V116.11Z" fill="#F0F0F0"/>
<path d="M70.4026 116.11H72.6123V113.921H70.4026V116.11Z" fill="#FAFAFA"/>
<path d="M66.1233 116.11H68.333V113.921H66.1233V116.11Z" fill="#FAFAFA"/>
<path d="M78.9568 120.091H81.1665V117.901H78.9568V120.091Z" fill="#F0F0F0"/>
<path d="M74.6829 120.091H76.8926V117.901H74.6829V120.091Z" fill="#FAFAFA"/>
<path d="M70.4026 120.091H72.6123V117.901H70.4026V120.091Z" fill="#FAFAFA"/>
<path d="M74.6829 108.695H76.8926V106.506H74.6829V108.695Z" fill="#FAFAFA"/>
<path d="M70.4026 108.695H72.6123V106.506H70.4026V108.695Z" fill="#F0F0F0"/>
<path d="M66.1233 120.091H68.333V117.901H66.1233V120.091Z" fill="#F0F0F0"/>
<path d="M78.9568 124.072H81.1665V121.883H78.9568V124.072Z" fill="#FAFAFA"/>
<path d="M74.6829 124.072H76.8926V121.883H74.6829V124.072Z" fill="#F0F0F0"/>
<path d="M70.4026 124.072H72.6123V121.883H70.4026V124.072Z" fill="#F0F0F0"/>
<path d="M66.1233 124.072H68.333V121.883H66.1233V124.072Z" fill="#FAFAFA"/>
<path d="M78.9568 128.053H81.1665V125.864H78.9568V128.053Z" fill="#F0F0F0"/>
<path d="M74.6829 128.053H76.8926V125.864H74.6829V128.053Z" fill="#FAFAFA"/>
<path d="M70.4026 128.053H72.6123V125.864H70.4026V128.053Z" fill="#FAFAFA"/>
<path d="M66.1233 128.053H68.333V125.864H66.1233V128.053Z" fill="#F0F0F0"/>
<path d="M78.9568 132.029H81.1665V129.839H78.9568V132.029Z" fill="#F0F0F0"/>
<path d="M74.6829 132.029H76.8926V129.839H74.6829V132.029Z" fill="#FAFAFA"/>
<path d="M70.4026 132.029H72.6123V129.839H70.4026V132.029Z" fill="#F0F0F0"/>
<path d="M66.1233 132.029H68.333V129.839H66.1233V132.029Z" fill="#FAFAFA"/>
<path d="M78.9568 136.01H81.1665V133.82H78.9568V136.01Z" fill="#FAFAFA"/>
<path d="M74.6829 136.01H76.8926V133.82H74.6829V136.01Z" fill="#FAFAFA"/>
<path d="M70.4026 136.01H72.6123V133.82H70.4026V136.01Z" fill="#F0F0F0"/>
<path d="M66.1233 136.01H68.333V133.82H66.1233V136.01Z" fill="#F0F0F0"/>
<path d="M203.86 119.621H188.397V138.421H203.86V119.621Z" fill="#F0F0F0"/>
<path d="M189.742 121.711H193.336H194.329H195.317V123.669H194.329H193.336H189.742V121.711Z" fill="#E6E6E6"/>
<path d="M189.742 125.51H193.336H194.329H195.317V127.473H194.329H193.336H189.742V125.51Z" fill="#FAFAFA"/>
<path d="M189.742 129.309H193.336H194.329H195.317V131.271H194.329H193.336H189.742V129.309Z" fill="#E6E6E6"/>
<path d="M189.742 133.107H193.336H194.865H195.317V135.07H194.865H193.336H189.742V133.107Z" fill="#FAFAFA"/>
<path d="M196.935 121.711H200.534H201.522H202.509V123.669H201.522H200.534H196.935V121.711Z" fill="#FAFAFA"/>
<path d="M196.935 125.51H200.534H201.929H202.509V127.473H201.929H200.534H196.935V125.51Z" fill="#FAFAFA"/>
<path d="M196.935 129.309H200.534H201.522H202.509V131.271H201.522H200.534H196.935V129.309Z" fill="#E6E6E6"/>
<path d="M196.935 133.107H200.534H201.522H202.509V135.07H201.522H200.534H196.935V133.107Z" fill="#FAFAFA"/>
<path d="M129.35 126.743H115.299V138.426H129.35V126.743Z" fill="#F0F0F0"/>
<path d="M126.655 129.983H128.452V128.203H126.655V129.983Z" fill="#FAFAFA"/>
<path d="M123.172 129.983H124.969V128.203H123.172V129.983Z" fill="#FAFAFA"/>
<path d="M119.686 129.983H121.482V128.203H119.686V129.983Z" fill="#FAFAFA"/>
<path d="M116.204 129.983H118V128.203H116.204V129.983Z" fill="#FAFAFA"/>
<path d="M126.655 133.218H128.452V131.437H126.655V133.218Z" fill="#FAFAFA"/>
<path d="M123.172 133.218H124.969V131.437H123.172V133.218Z" fill="#FAFAFA"/>
<path d="M119.686 133.218H121.482V131.437H119.686V133.218Z" fill="#FAFAFA"/>
<path d="M116.204 133.218H118V131.437H116.204V133.218Z" fill="#E6E6E6"/>
<path d="M126.655 136.458H128.452V134.677H126.655V136.458Z" fill="#E6E6E6"/>
<path d="M123.172 136.458H124.969V134.677H123.172V136.458Z" fill="#E6E6E6"/>
<path d="M119.686 136.458H121.482V134.677H119.686V136.458Z" fill="#FAFAFA"/>
<path d="M116.204 136.458H118V134.677H116.204V136.458Z" fill="#E6E6E6"/>
<path d="M113.397 118.106H99.3467V138.426H113.397V118.106Z" fill="#F0F0F0"/>
<path d="M112.499 118.996H107.214V124.017H112.499V118.996Z" fill="#FAFAFA"/>
<path d="M105.528 118.996H100.244V124.017H105.528V118.996Z" fill="#FAFAFA"/>
<path d="M112.499 125.471H107.214V130.492H112.499V125.471Z" fill="#FAFAFA"/>
<path d="M105.528 125.471H100.244V130.492H105.528V125.471Z" fill="#FAFAFA"/>
<path d="M112.499 131.946H107.214V136.967H112.499V131.946Z" fill="#FAFAFA"/>
<path d="M105.528 131.946H100.244V136.967H105.528V131.946Z" fill="#FAFAFA"/>
<path d="M139.5 206C199.252 206 247.691 203.198 247.691 199.741C247.691 196.284 199.252 193.482 139.5 193.482C79.7482 193.482 31.3096 196.284 31.3096 199.741C31.3096 203.198 79.7482 206 139.5 206Z" fill="#F5F5F5"/>
<path d="M248.07 13.6077V135.385L233.283 150.038H147.681V13.6077H248.07Z" fill="#116845"/>
<path opacity="0.8" d="M248.07 13.6077V135.385L233.283 150.038H147.681V13.6077H248.07Z" fill="white"/>
<path opacity="0.2" d="M233.283 150.038V135.816H248.07L233.573 150.182" fill="black"/>
<path opacity="0.1" d="M185.669 25.4348H157.981C157.592 25.4348 157.218 25.2816 156.943 25.0089C156.668 24.7361 156.513 24.3663 156.513 23.9806C156.512 23.7891 156.55 23.5995 156.623 23.4224C156.697 23.2453 156.805 23.0843 156.941 22.9487C157.077 22.8131 157.239 22.7055 157.418 22.6321C157.596 22.5586 157.788 22.5208 157.981 22.5208H185.669C186.058 22.5223 186.432 22.6767 186.707 22.9503C186.982 23.2239 187.136 23.5944 187.136 23.9806C187.136 24.3663 186.982 24.7361 186.706 25.0089C186.431 25.2816 186.058 25.4348 185.669 25.4348Z" fill="black"/>
<path opacity="0.1" d="M235.889 37.2343H169.141C168.948 37.2343 168.756 37.1965 168.578 37.1231C168.4 37.0496 168.238 36.942 168.101 36.8064C167.965 36.6708 167.857 36.5098 167.783 36.3327C167.71 36.1557 167.673 35.966 167.673 35.7745C167.673 35.3889 167.828 35.019 168.103 34.7463C168.378 34.4735 168.752 34.3203 169.141 34.3203H235.889C236.278 34.3203 236.651 34.4735 236.927 34.7463C237.202 35.019 237.356 35.3889 237.356 35.7745C237.356 36.1607 237.202 36.5312 236.927 36.8048C236.652 37.0784 236.279 37.2328 235.889 37.2343Z" fill="black"/>
<path opacity="0.1" d="M235.889 42.9684H157.981C157.592 42.9684 157.218 42.8152 156.943 42.5425C156.668 42.2697 156.513 41.8999 156.513 41.5142C156.512 41.3227 156.55 41.133 156.623 40.956C156.697 40.7789 156.805 40.6179 156.941 40.4823C157.077 40.3467 157.239 40.2391 157.418 40.1657C157.596 40.0922 157.788 40.0544 157.981 40.0544H235.889C236.278 40.0559 236.652 40.2103 236.927 40.4839C237.202 40.7575 237.356 41.128 237.356 41.5142C237.356 41.8999 237.202 42.2697 236.926 42.5425C236.651 42.8152 236.278 42.9684 235.889 42.9684Z" fill="black"/>
<path opacity="0.1" d="M235.889 49.4486H157.981C157.788 49.4486 157.596 49.4108 157.418 49.3374C157.239 49.2639 157.077 49.1563 156.941 49.0207C156.805 48.8851 156.697 48.7241 156.623 48.547C156.55 48.37 156.512 48.1803 156.513 47.9888C156.513 47.6031 156.668 47.2333 156.943 46.9606C157.218 46.6878 157.592 46.5346 157.981 46.5346H235.889C236.278 46.5346 236.651 46.6878 236.926 46.9606C237.202 47.2333 237.356 47.6031 237.356 47.9888C237.356 48.375 237.202 48.7455 236.927 49.0191C236.652 49.2927 236.278 49.4471 235.889 49.4486Z" fill="black"/>
<path opacity="0.1" d="M235.889 55.9235H157.981C157.592 55.9235 157.218 55.7703 156.943 55.4975C156.668 55.2248 156.513 54.8549 156.513 54.4693C156.513 54.0836 156.668 53.7137 156.943 53.441C157.218 53.1683 157.592 53.0151 157.981 53.0151H235.889C236.278 53.0151 236.651 53.1683 236.926 53.441C237.202 53.7137 237.356 54.0836 237.356 54.4693C237.356 54.8549 237.202 55.2248 236.926 55.4975C236.651 55.7703 236.278 55.9235 235.889 55.9235Z" fill="black"/>
<path opacity="0.1" d="M235.889 62.4039H157.981C157.592 62.4039 157.218 62.2507 156.943 61.978C156.668 61.7053 156.513 61.3354 156.513 60.9497C156.512 60.7585 156.55 60.5691 156.623 60.3923C156.697 60.2156 156.805 60.055 156.941 59.9198C157.078 59.7846 157.24 59.6775 157.418 59.6047C157.597 59.5319 157.788 59.4948 157.981 59.4955H235.889C236.278 59.4955 236.651 59.6487 236.926 59.9214C237.202 60.1942 237.356 60.564 237.356 60.9497C237.356 61.3354 237.202 61.7053 236.926 61.978C236.651 62.2507 236.278 62.4039 235.889 62.4039Z" fill="black"/>
<path opacity="0.1" d="M235.889 68.884H157.981C157.592 68.884 157.218 68.7308 156.943 68.4581C156.668 68.1854 156.513 67.8155 156.513 67.4298C156.512 67.2384 156.55 67.0487 156.623 66.8716C156.697 66.6946 156.805 66.5336 156.941 66.398C157.077 66.2624 157.239 66.1547 157.418 66.0813C157.596 66.0079 157.788 65.9701 157.981 65.9701H235.889C236.278 65.9716 236.652 66.126 236.927 66.3996C237.202 66.6732 237.356 67.0436 237.356 67.4298C237.356 67.8155 237.202 68.1854 236.926 68.4581C236.651 68.7308 236.278 68.884 235.889 68.884Z" fill="black"/>
<path opacity="0.1" d="M235.894 72.4505H157.981C157.17 72.4505 156.513 73.1016 156.513 73.9047V73.9103C156.513 74.7134 157.17 75.3645 157.981 75.3645H235.894C236.705 75.3645 237.362 74.7134 237.362 73.9103V73.9047C237.362 73.1016 236.705 72.4505 235.894 72.4505Z" fill="black"/>
<path opacity="0.1" d="M235.889 81.834H157.981C157.592 81.834 157.218 81.6808 156.943 81.4081C156.668 81.1354 156.513 80.7655 156.513 80.3798C156.513 79.9941 156.668 79.6242 156.943 79.3515C157.218 79.0788 157.592 78.9256 157.981 78.9256H235.889C236.278 78.9256 236.651 79.0788 236.926 79.3515C237.202 79.6242 237.356 79.9941 237.356 80.3798C237.356 80.7655 237.202 81.1354 236.926 81.4081C236.651 81.6808 236.278 81.834 235.889 81.834Z" fill="black"/>
<path opacity="0.1" d="M235.889 88.3198H157.981C157.592 88.3198 157.218 88.1666 156.943 87.8939C156.668 87.6212 156.513 87.2513 156.513 86.8656C156.512 86.6744 156.55 86.485 156.623 86.3082C156.697 86.1315 156.805 85.9709 156.941 85.8357C157.078 85.7005 157.24 85.5934 157.418 85.5206C157.597 85.4478 157.788 85.4107 157.981 85.4114H235.889C236.278 85.4114 236.651 85.5646 236.926 85.8373C237.202 86.11 237.356 86.4799 237.356 86.8656C237.356 87.2513 237.202 87.6212 236.926 87.8939C236.651 88.1666 236.278 88.3198 235.889 88.3198Z" fill="black"/>
<path opacity="0.1" d="M235.889 94.7999H157.981C157.592 94.7999 157.218 94.6467 156.943 94.374C156.668 94.1013 156.513 93.7314 156.513 93.3457C156.512 93.1543 156.55 92.9646 156.623 92.7875C156.697 92.6105 156.805 92.4495 156.941 92.3139C157.077 92.1782 157.239 92.0706 157.418 91.9972C157.596 91.9238 157.788 91.886 157.981 91.886H235.889C236.278 91.8874 236.652 92.0419 236.927 92.3155C237.202 92.5891 237.356 92.9595 237.356 93.3457C237.356 93.7314 237.202 94.1013 236.926 94.374C236.651 94.6467 236.278 94.7999 235.889 94.7999Z" fill="black"/>
<path opacity="0.1" d="M235.889 101.28H157.981C157.788 101.28 157.596 101.243 157.418 101.169C157.239 101.096 157.077 100.988 156.941 100.852C156.805 100.717 156.697 100.556 156.623 100.379C156.55 100.202 156.512 100.012 156.513 99.8206C156.513 99.435 156.668 99.0651 156.943 98.7923C157.218 98.5196 157.592 98.3664 157.981 98.3664H235.889C236.278 98.3664 236.651 98.5196 236.926 98.7923C237.202 99.0651 237.356 99.435 237.356 99.8206C237.356 100.207 237.202 100.577 236.927 100.851C236.652 101.124 236.278 101.279 235.889 101.28Z" fill="black"/>
<path opacity="0.1" d="M191.249 107.755H157.981C157.592 107.755 157.218 107.602 156.943 107.329C156.668 107.057 156.513 106.687 156.513 106.301C156.513 105.915 156.668 105.545 156.943 105.273C157.218 105 157.592 104.847 157.981 104.847H191.249C191.638 104.847 192.011 105 192.286 105.273C192.562 105.545 192.716 105.915 192.716 106.301C192.716 106.687 192.562 107.057 192.286 107.329C192.011 107.602 191.638 107.755 191.249 107.755Z" fill="black"/>
<path d="M229.896 43.4494L229.79 43.361C229.489 43.1343 229.316 43.2117 229.176 42.7749C229.076 42.4597 229.176 42.1058 229.059 41.7796C228.793 41.218 228.489 40.6749 228.15 40.154L226.777 37.7045C226.47 37.1621 225.96 36.7621 225.356 36.5922C224.753 36.4222 224.106 36.4961 223.557 36.7977L210.919 43.7757C210.868 44.1959 210.517 44.4834 210.444 44.8815C210.419 44.9992 210.426 45.1212 210.463 45.2356C210.5 45.3501 210.567 45.4529 210.656 45.534C210.514 45.5312 210.377 45.4827 210.266 45.3958C209.512 44.9811 209.312 44.6493 208.536 45.0695C208.201 45.2465 207.872 45.4345 207.543 45.6225L204.195 47.4748L193.704 53.264L181.428 60.054L171.2 65.6994C169.805 66.468 168.114 67.1425 166.87 68.1212C167.216 68.2982 167.277 68.5691 166.97 68.8345L166.412 69.3377C166.412 69.4759 166.613 69.4759 166.742 69.4206L167.434 69.1276C166.953 69.7324 166.374 70.2537 165.721 70.6702C164.623 71.3015 163.444 71.7814 162.216 72.0968L162.808 71.3614C162.852 71.3006 162.908 71.2232 162.869 71.1513C162.83 71.0794 162.758 71.0739 162.691 71.0684C162.395 71.0352 162.099 71.0684 161.882 70.8527C159.973 71.9586 157.976 73.0091 156.034 74.0818C155.486 74.3855 155.083 74.8918 154.911 75.4898C154.74 76.0877 154.814 76.7287 155.119 77.2723L167.863 99.9424C168.014 100.211 168.217 100.448 168.46 100.639C168.703 100.831 168.982 100.972 169.28 101.057C169.579 101.141 169.891 101.166 170.2 101.13C170.508 101.095 170.806 100.999 171.077 100.849L174.431 98.9748C174.431 98.5822 174.743 98.1454 174.509 97.786C174.476 97.7424 174.455 97.6909 174.448 97.6367C174.448 97.5648 174.515 97.5095 174.576 97.4708C174.92 97.2546 175.313 97.1289 175.72 97.1059C175.859 97.1059 176.044 97.1667 176.021 97.2994C176.021 97.1778 176.741 96.9234 176.858 96.8847C176.914 97.1833 176.708 97.504 177.059 97.5648C177.411 97.6256 177.946 97.0119 178.175 96.9013L181.523 95.049L192.125 89.2045L203.754 82.785L211.482 78.5163C211.761 78.356 212.09 78.168 212.358 78.0353C212.455 77.5282 212.704 77.0619 213.072 76.6972C213.63 76.3157 214.512 76.7359 214.975 76.194C215.065 76.089 215.12 75.9618 215.198 75.8512C215.354 75.6714 215.544 75.5231 215.756 75.4144C215.891 75.3094 216.054 75.246 216.225 75.2319C216.393 75.2319 216.571 75.3702 216.549 75.536C217.698 75.2706 218.736 74.5021 219.752 73.9325C220.12 73.728 223.351 72.224 223.34 71.9862C223.295 71.2508 223.747 70.6205 223.725 69.863C223.725 69.7192 223.44 68.7571 223.568 68.6852C220.667 70.3993 217.654 71.9586 214.696 73.5842C214.596 73.645 214.216 73.7722 214.138 73.8828C214.138 73.8828 214.11 73.9325 214.099 73.9602L214.015 74.1427V74.1869C213.895 74.5632 213.754 74.9324 213.591 75.2928C213.591 75.3425 212.961 76.1166 212.911 75.9342C212.665 75.0439 212.353 74.9057 211.666 75.2706L210.684 75.8236L207.565 77.5432L197.058 83.349L184.676 90.1832L174.358 95.8784L170.034 98.2615C169.171 96.7133 168.302 95.167 167.428 93.6224L165.754 90.6421C165.585 90.2289 165.334 89.8531 165.017 89.5363C164.778 89.3593 164.37 89.4036 164.158 89.2432C163.639 88.8506 163.265 88.1374 162.774 87.6784C162.44 87.3688 161.932 86.4398 162.071 85.9256C162.239 85.992 162.406 86.0639 162.573 86.1136C162.486 85.7732 162.505 85.4144 162.629 85.0852C160.955 82.2929 159.415 79.3734 157.814 76.5203L157.708 76.3378L161.614 74.1814L164.465 72.6055C165.051 72.3557 165.612 72.0502 166.139 71.6932C166.502 71.3835 166.87 70.9965 167.255 70.6647C167.513 70.47 167.794 70.3066 168.092 70.1781L169.147 69.6694C169.201 69.6371 169.262 69.6182 169.325 69.6141C169.388 69.621 169.45 69.6358 169.509 69.6584C170.067 69.7745 171.451 68.7516 171.953 68.4751L175.201 66.6836L184.999 61.2704L197.209 54.5357L209.429 47.7844L219.261 42.3602L224.283 39.5955L224.517 39.4683L229.946 49.128C230.282 49.7792 230.82 50.3063 231.481 50.632C231.704 50.7039 231.955 50.8587 231.927 51.0854C231.899 51.3121 231.565 51.5001 231.643 51.7324C231.721 51.9646 232.15 51.8761 232.251 52.0862C232.351 52.2963 232.078 52.6392 232.111 52.9267C232.227 53.2709 232.398 53.594 232.619 53.8833L234.198 56.6977C235.08 58.2569 235.956 59.8217 236.843 61.3976L227.19 66.7278C227.238 66.766 227.277 66.8129 227.307 66.8661L227.357 66.9933C227.549 67.0606 227.736 67.1419 227.915 67.2365C227.992 67.2792 228.056 67.3419 228.099 67.418C228.142 67.4941 228.164 67.5805 228.161 67.6678C228.159 67.7541 228.135 67.8386 228.09 67.9124C228.045 67.9862 227.981 68.0469 227.904 68.0881L227.313 68.4198C227.292 68.548 227.232 68.6669 227.141 68.7607C227.05 68.8545 226.933 68.9188 226.805 68.9451C226.736 68.9508 226.667 68.9508 226.598 68.9451C226.54 68.9877 226.472 69.0172 226.401 69.0316C226.33 69.0459 226.256 69.0447 226.185 69.028C226.059 68.9895 225.953 68.9042 225.888 68.7899C225.824 68.6756 225.806 68.541 225.839 68.4143C225.862 68.3574 225.892 68.3036 225.929 68.2539C225.886 68.1734 225.867 68.0828 225.873 67.9922C225.879 67.9016 225.91 67.8142 225.962 67.7397H225.784C225.683 67.7397 225.594 67.6844 225.499 67.6568C224.997 67.9639 224.607 68.4208 224.383 68.9617C224.359 68.9912 224.347 69.0288 224.35 69.0667C224.35 69.1442 224.472 69.1497 224.545 69.1829C224.712 69.2603 224.673 69.5036 224.59 69.6639C224.506 69.8243 224.405 70.0289 224.517 70.1726C224.559 70.221 224.606 70.2654 224.657 70.3053C224.896 70.5762 224.528 71.3614 225.114 71.0407C225.073 70.8699 225.099 70.6901 225.187 70.5375C225.286 70.3836 225.439 70.2714 225.616 70.2224C226.05 70.1181 226.493 70.0551 226.939 70.0344L238.573 63.5872C239.12 63.2835 239.524 62.7772 239.696 62.1793C239.867 61.5813 239.792 60.9404 239.488 60.3968L239.421 60.2807L234.165 50.9306L231.129 45.5229C230.834 45.0087 230.571 44.4724 230.248 43.9637C230.159 43.7749 230.04 43.6013 229.896 43.4494Z" fill="#116845"/>
<path d="M176.139 73.9987C175.754 73.5342 175.871 73.5232 175.798 73.0255C175.798 73.0255 175.798 73.0255 175.798 72.9923L175.754 72.9426L175.687 72.8652C175.424 72.9813 175.162 73.1085 174.9 73.2522L169.761 76.0888L171.831 79.7658C171.541 79.2571 172.567 79.4064 172.607 79.4008C172.715 79.369 172.828 79.3504 172.941 79.3455C173.053 79.369 173.151 79.4344 173.215 79.528C173.429 79.8998 173.493 80.3387 173.393 80.7555C173.332 81.3084 173.628 81.8614 173.31 82.4143C173.583 82.8566 176.055 87.3133 176.066 87.3077L181.205 84.4712C181.501 84.3053 182.204 84.0123 182.377 83.7192C182.55 83.4262 182.277 82.9672 182.584 82.829C182.699 82.787 182.823 82.7711 182.945 82.7826C183.068 82.7941 183.187 82.8326 183.292 82.8953C184.271 81.935 184.9 80.6798 185.081 79.3267C185.262 77.9736 184.984 76.5993 184.291 75.4197C182.846 72.8486 179.565 71.317 176.691 72.5113C176.49 72.5942 176.758 73.4845 176.278 73.584C176.37 73.4057 176.502 73.2506 176.663 73.1306M179.866 82.3867L177.472 83.7082C177.277 83.3598 177.087 83.0115 176.886 82.6742C177.137 83.0944 176.446 82.9617 176.301 82.8677C175.949 82.6355 175.854 81.9664 175.843 81.5904C175.835 80.9456 175.641 80.3166 175.285 79.7768C174.723 78.7705 174.165 77.7642 173.611 76.7578L176.005 75.4363C178.237 74.1977 180.469 74.712 181.674 76.8573C182.879 79.0027 182.115 81.1647 179.866 82.3867Z" fill="#116845"/>
<path d="M193.13 64.5823C193.252 64.8449 193.287 65.1391 193.23 65.4227C193.202 65.5776 192.951 65.9757 192.985 66.0752C193.074 66.2964 193.163 66.5175 193.247 66.7387C193.262 66.7749 193.283 66.8085 193.308 66.8383C193.351 66.8668 193.402 66.8822 193.453 66.8825C194.341 66.9599 194.302 67.0484 194.357 67.7893C194.408 68.4252 194.96 68.7901 195.272 69.343C195.692 70.0695 195.874 70.9069 195.794 71.7403C195.714 72.5736 195.376 73.3619 194.826 73.997C194.275 74.632 193.54 75.0826 192.721 75.2869C191.902 75.4912 191.039 75.4391 190.25 75.1377C190.23 75.1578 190.207 75.1763 190.183 75.193C190.066 75.2516 189.932 75.2672 189.804 75.2373C189.514 75.1559 189.251 74.9983 189.044 74.7813C188.837 74.5643 188.693 74.2958 188.627 74.0042C188.618 73.9604 188.618 73.9154 188.627 73.8715C188.469 73.6779 188.329 73.4706 188.208 73.2523C187.921 72.7954 187.733 72.2848 187.655 71.7524C187.576 71.22 187.609 70.6773 187.752 70.1583C187.895 69.6392 188.145 69.1551 188.486 68.736C188.826 68.317 189.25 67.9721 189.731 67.7229C190.429 67.3286 191.229 67.1477 192.03 67.2032L191.986 67.1368C191.506 66.5065 193.236 66.2521 192.455 65.8264C192.125 65.6494 192.181 64.8477 192.097 64.5215C190.83 64.5498 189.589 64.8899 188.487 65.5112C184.916 67.4852 183.683 71.3944 185.558 74.7286C186.347 76.163 187.651 77.2507 189.213 77.7752C189.58 77.9336 189.973 78.0236 190.373 78.0406C190.831 78.0019 190.608 78.0406 190.803 77.7697C190.998 77.4988 190.881 77.3826 191.177 77.0951C191.472 76.8076 191.818 76.6362 191.88 76.1938C191.88 76.3929 192.103 76.5367 192.103 76.7468C192.103 76.8076 192.103 76.8684 192.103 76.9237C192.115 76.996 192.148 77.0633 192.198 77.1172C192.388 77.3716 192.706 77.6702 192.711 77.9632C193.528 77.829 194.311 77.5439 195.021 77.1228C198.576 75.1599 199.837 71.2562 197.951 67.9109C196.974 66.2024 195.139 64.6929 193.13 64.5823Z" fill="#116845"/>
<path d="M204.541 56.8856L208.369 63.6922L198.916 59.9875L196.751 61.1874C198.213 63.7862 199.764 66.3573 201.137 69.0058C201.232 68.7183 201.455 68.663 201.723 68.6243C202.225 68.5579 202.208 68.8068 202.482 69.2989C202.515 69.3597 202.554 69.4205 202.616 69.4316C202.677 69.4426 202.8 69.3431 202.9 69.3542C203.001 69.3652 203.04 69.4869 203.012 69.5809C202.976 69.673 202.93 69.7603 202.872 69.8407C202.71 70.1449 202.978 70.3384 202.945 70.6149C202.945 70.7586 202.459 71.3447 202.515 71.4443L203.073 72.3953L205.662 70.9687L204.97 69.7412H204.842C204.089 69.8408 204.423 68.8621 204.256 68.4584C203.985 67.8866 203.678 67.3326 203.335 66.7996L201.812 64.14L209.496 67.1369C209.476 66.9182 209.502 66.6978 209.574 66.49C209.635 66.3739 210.132 66.1582 210.132 66.0476C210.161 66.4042 210.329 66.7356 210.601 66.971C210.896 67.2309 210.896 67.1922 210.84 67.6511L211.298 67.8336L213.452 66.6448L207.147 55.4369L204.541 56.8856Z" fill="#116845"/>
<path d="M217.548 61.6684L216.086 59.0752L221.342 56.1723L220.226 54.1541L214.975 57.057L213.608 54.6186L217.157 52.6612C217.307 52.4696 217.498 52.313 217.715 52.2023C217.825 52.1462 217.952 52.1324 218.072 52.1635L219.573 51.3397C219.573 51.3397 218.507 49.4542 218.407 49.2551C217.894 49.4874 218.407 50.1288 217.888 50.4384C217.994 50.549 218.15 50.9416 217.888 50.9913C217.737 50.9913 217.626 50.8033 217.475 50.8199C217.325 50.8365 217.319 50.9084 217.241 50.8863C217.217 50.8796 217.195 50.8677 217.177 50.8514C217.158 50.8351 217.144 50.8149 217.135 50.7923C217.063 50.6255 216.971 50.4678 216.861 50.3223C216.51 49.985 213.301 52.1027 212.855 52.3515L209.87 54.0103L216.169 65.2183L218.686 63.8304L218.736 63.764C218.92 63.5318 219.099 63.2941 219.294 63.0784C219.373 63.0037 219.475 62.9564 219.584 62.9434C219.692 62.9305 219.802 62.9526 219.897 63.0065C219.942 63.0298 219.982 63.0617 220.014 63.1005L224.93 60.3856L223.758 58.3011L217.548 61.6684Z" fill="#116845"/>
<path d="M224.26 180.925C224.26 180.925 220.589 172.996 224.779 165.172C228.97 157.348 230.192 155.506 227.519 153.908C224.846 152.31 223.613 160.162 223.613 160.162C223.613 160.162 221.381 154.754 223.217 149.103C225.053 143.452 226.247 134.23 223.708 133.24C221.169 132.25 223.222 144.735 221.018 148.993C219.895 146.004 219.169 142.884 218.859 139.709C218.558 135.164 219.032 127.91 217.023 126.046C215.014 124.183 213.736 125.493 215.706 135.501C216.89 141.496 217.546 147.58 217.665 153.687C217.665 153.687 213.307 140.527 210.411 140.146C207.515 139.764 207.492 144.016 209.998 147.716C212.503 151.415 217.302 158.028 218.089 161.456C218.089 161.456 213.312 151.558 209.01 154.589C204.708 157.619 212.754 163.607 216.337 165.769C219.919 167.931 222.413 181.472 222.413 181.472L224.26 180.925Z" fill="#116845"/>
<path opacity="0.2" d="M224.26 180.925C224.26 180.925 220.589 172.996 224.779 165.172C228.97 157.348 230.192 155.506 227.519 153.908C224.846 152.31 223.613 160.162 223.613 160.162C223.613 160.162 221.381 154.754 223.217 149.103C225.053 143.452 226.247 134.23 223.708 133.24C221.169 132.25 223.222 144.735 221.018 148.993C219.895 146.004 219.169 142.884 218.859 139.709C218.558 135.164 219.032 127.91 217.023 126.046C215.014 124.183 213.736 125.493 215.706 135.501C216.89 141.496 217.546 147.58 217.665 153.687C217.665 153.687 213.307 140.527 210.411 140.146C207.515 139.764 207.492 144.016 209.998 147.716C212.503 151.415 217.302 158.028 218.089 161.456C218.089 161.456 213.312 151.558 209.01 154.589C204.708 157.619 212.754 163.607 216.337 165.769C219.919 167.931 222.413 181.472 222.413 181.472L224.26 180.925Z" fill="black"/>
<path d="M221.359 184.181C221.359 184.181 224.935 176.191 220.65 168.434C216.365 160.676 215.12 158.851 217.776 157.209C220.432 155.567 221.749 163.408 221.749 163.408C221.749 163.408 223.937 157.972 222.012 152.349C220.086 146.726 218.803 137.519 221.331 136.496C223.859 135.473 221.956 147.986 224.21 152.205C225.299 149.203 225.985 146.073 226.252 142.894C226.503 138.343 225.94 131.094 227.926 129.203C229.913 127.312 231.213 128.584 229.36 138.642C228.25 144.65 227.669 150.742 227.625 156.85C227.625 156.85 231.821 143.629 234.74 143.203C237.658 142.778 237.702 147.035 235.247 150.768C232.792 154.5 228.049 161.19 227.296 164.591C227.296 164.591 231.955 154.638 236.291 157.596C240.626 160.554 232.658 166.664 229.104 168.876C225.549 171.088 223.2 184.679 223.2 184.679L221.359 184.181Z" fill="#116845"/>
<path d="M237.842 178.486H208.324L210.712 199.42H235.454L237.842 178.486Z" fill="#263238"/>
<path d="M86.842 46.8611H67.3623C66.6119 46.8611 65.8924 47.1564 65.3618 47.6822C64.8313 48.2079 64.5332 48.9209 64.5332 49.6644V68.4309C64.5332 69.1744 64.8313 69.8875 65.3618 70.4132C65.8924 70.9389 66.6119 71.2343 67.3623 71.2343H73.5951L69.399 76.8852L76.653 71.2343H86.8365C87.5868 71.2343 88.3064 70.9389 88.8369 70.4132C89.3675 69.8875 89.6655 69.1744 89.6655 68.4309V49.6644C89.6655 48.9219 89.3682 48.2097 88.8389 47.6841C88.3095 47.1585 87.5914 46.8625 86.842 46.8611Z" fill="#116845"/>
<path opacity="0.6" d="M86.842 46.8611H67.3623C66.6119 46.8611 65.8924 47.1564 65.3618 47.6822C64.8313 48.2079 64.5332 48.9209 64.5332 49.6644V68.4309C64.5332 69.1744 64.8313 69.8875 65.3618 70.4132C65.8924 70.9389 66.6119 71.2343 67.3623 71.2343H73.5951L69.399 76.8852L76.653 71.2343H86.8365C87.5868 71.2343 88.3064 70.9389 88.8369 70.4132C89.3675 69.8875 89.6655 69.1744 89.6655 68.4309V49.6644C89.6655 48.9219 89.3682 48.2097 88.8389 47.6841C88.3095 47.1585 87.5914 46.8625 86.842 46.8611Z" fill="white"/>
<path d="M77.1046 67.8115C81.9891 67.8115 85.9489 63.8878 85.9489 59.0476C85.9489 54.2074 81.9891 50.2836 77.1046 50.2836C72.22 50.2836 68.2603 54.2074 68.2603 59.0476C68.2603 63.8878 72.22 67.8115 77.1046 67.8115Z" fill="#116845"/>
<path opacity="0.2" d="M84.4818 60.7682C85.4439 56.7291 82.9194 52.682 78.8433 51.7286C74.7672 50.7753 70.683 53.2768 69.7209 57.3159C68.7589 61.355 71.2833 65.4021 75.3594 66.3554C79.4355 67.3087 83.5198 64.8072 84.4818 60.7682Z" fill="black"/>
<path d="M76.1612 62.6361C76.0585 62.6383 75.9563 62.6204 75.8606 62.5834C75.7648 62.5464 75.6774 62.491 75.6032 62.4205L72.3836 59.2964C72.2356 59.1542 72.1507 58.9595 72.1476 58.7552C72.1444 58.5509 72.2233 58.3538 72.3668 58.2071C72.5104 58.0605 72.7069 57.9764 72.913 57.9732C73.1192 57.9701 73.3181 58.0483 73.4661 58.1905L76.1054 60.7506L80.6699 55.7024C80.8098 55.5626 80.9986 55.4814 81.1972 55.4755C81.3958 55.4696 81.5892 55.5394 81.7373 55.6706C81.8855 55.8018 81.9772 55.9844 81.9935 56.1806C82.0098 56.3769 81.9495 56.5718 81.8249 56.7253L76.7192 62.3707C76.6488 62.4488 76.5629 62.5116 76.4669 62.5554C76.3709 62.5992 76.2669 62.6229 76.1612 62.6251V62.6361Z" fill="white"/>
<path d="M51.8381 186.847L67.9141 185.276V167.311H74.2865V185.271L90.4294 186.847C91.203 186.921 91.9208 187.278 92.4429 187.848C92.9649 188.419 93.2537 189.162 93.2529 189.932V192.326H49.0147V189.932C49.0138 189.162 49.3026 188.419 49.8247 187.848C50.3467 187.278 51.0646 186.921 51.8381 186.847Z" fill="#263238"/>
<path opacity="0.1" d="M51.8381 186.847L67.9141 185.276V167.311H74.2865V185.271L90.4294 186.847C91.203 186.921 91.9208 187.278 92.4429 187.848C92.9649 188.419 93.2537 189.162 93.2529 189.932V192.326H49.0147V189.932C49.0138 189.162 49.3026 188.419 49.8247 187.848C50.3467 187.278 51.0646 186.921 51.8381 186.847Z" fill="white"/>
<path d="M91.5511 199.42C93.8531 199.42 95.7193 197.571 95.7193 195.29C95.7193 193.009 93.8531 191.159 91.5511 191.159C89.249 191.159 87.3828 193.009 87.3828 195.29C87.3828 197.571 89.249 199.42 91.5511 199.42Z" fill="#263238"/>
<path d="M50.7171 199.42C53.0192 199.42 54.8853 197.571 54.8853 195.29C54.8853 193.009 53.0192 191.159 50.7171 191.159C48.415 191.159 46.5488 193.009 46.5488 195.29C46.5488 197.571 48.415 199.42 50.7171 199.42Z" fill="#263238"/>
<path d="M73.0753 172.122H69.1024C68.4912 172.122 67.905 171.881 67.4728 171.453C67.0406 171.025 66.7978 170.444 66.7978 169.838V152.178H75.3799V169.838C75.3799 170.444 75.1371 171.025 74.7049 171.453C74.2727 171.881 73.6865 172.122 73.0753 172.122Z" fill="#263238"/>
<path opacity="0.2" d="M73.0753 172.122H69.1024C68.4912 172.122 67.905 171.881 67.4728 171.453C67.0406 171.025 66.7978 170.444 66.7978 169.838V152.178H75.3799V169.838C75.3799 170.444 75.1371 171.025 74.7049 171.453C74.2727 171.881 73.6865 172.122 73.0753 172.122Z" fill="white"/>
<path d="M48.8477 117.564C48.8477 117.564 53.6242 147.08 63.0544 152.183H53.468C53.468 152.183 43.982 142.12 41.125 117.564H48.8477Z" fill="#263238"/>
<path opacity="0.1" d="M48.8477 117.564C48.8477 117.564 53.6242 147.08 63.0544 152.183H53.468C53.468 152.183 43.982 142.12 41.125 117.564H48.8477Z" fill="white"/>
<path d="M53.0097 148.009H90.3511C91.091 148.009 91.8007 148.3 92.3239 148.818C92.8471 149.337 93.1411 150.04 93.1411 150.773V154.472H50.2197V150.773C50.2197 150.04 50.5137 149.337 51.0369 148.818C51.5601 148.3 52.2698 148.009 53.0097 148.009Z" fill="#116845"/>
<path d="M93.7887 151.238H49.5337C48.9143 151.238 48.4121 151.735 48.4121 152.349V153.355C48.4121 153.969 48.9143 154.467 49.5337 154.467H93.7887C94.4081 154.467 94.9102 153.969 94.9102 153.355V152.349C94.9102 151.735 94.4081 151.238 93.7887 151.238Z" fill="#263238"/>
<path opacity="0.6" d="M93.7887 151.238H49.5337C48.9143 151.238 48.4121 151.735 48.4121 152.349V153.355C48.4121 153.969 48.9143 154.467 49.5337 154.467H93.7887C94.4081 154.467 94.9102 153.969 94.9102 153.355V152.349C94.9102 151.735 94.4081 151.238 93.7887 151.238Z" fill="white"/>
<path d="M39.9914 123.569H55.3308C59.8283 123.569 62.7467 119.997 61.8539 115.59L60.6597 109.707C59.7669 105.284 55.3978 101.734 50.9059 101.734H35.5665C31.069 101.734 28.1507 105.306 29.0435 109.707L30.2376 115.59C31.1304 119.986 35.4939 123.569 39.9914 123.569Z" fill="#116845"/>
<path d="M121.387 173.007L117.872 174.373L115.344 169.651L113.045 165.354L116.94 163.043L119.295 168.312L121.387 173.007Z" fill="#E4897B"/>
<path opacity="0.2" d="M119.295 168.312L115.344 169.651L113.045 165.354L116.94 163.043L119.295 168.312Z" fill="black"/>
<path d="M118.564 165.736L113.782 168.279C113.782 168.279 95.7082 136.79 92.9294 137.055C90.1505 137.321 63.785 153.964 55.7443 147.815C47.7035 141.667 55.5266 123.154 55.5266 123.154C55.5266 123.154 72.1606 118.443 73.9406 122.049C74.4098 123.128 74.8087 124.236 75.1348 125.366C75.4863 126.5 75.7541 127.456 75.7541 127.456C76.2619 127.252 92.6894 120.578 100.022 124.139C107.504 127.799 118.564 165.736 118.564 165.736Z" fill="#263238"/>
<path opacity="0.3" d="M118.564 165.736L113.782 168.279C113.782 168.279 95.7082 136.79 92.9294 137.055C90.1505 137.321 63.785 153.964 55.7443 147.815C47.7035 141.667 55.5266 123.154 55.5266 123.154C55.5266 123.154 72.1606 118.443 73.9406 122.049C74.4098 123.128 74.8087 124.236 75.1348 125.366C75.4863 126.5 75.7541 127.456 75.7541 127.456C76.2619 127.252 92.6894 120.578 100.022 124.139C107.504 127.799 118.564 165.736 118.564 165.736Z" fill="white"/>
<path d="M92.5833 191.414L88.8336 190.988L88.8112 185.746L88.8057 180.936L93.3422 180.726L92.9404 186.382L92.5833 191.414Z" fill="#E4897B"/>
<path opacity="0.2" d="M92.929 186.498L88.7998 185.846V180.985L93.3363 180.748L92.929 186.498Z" fill="black"/>
<path d="M111.444 166.714L118.441 163.242L119.172 166.183L113.871 168.893L111.444 166.714Z" fill="#116845"/>
<path d="M68.165 147.865C68.165 147.865 69.3145 147.738 86.9975 144.492C86.9975 144.492 87.3993 166.897 88.2363 183.601L93.6824 183.772C93.6824 183.772 101.494 146.726 100.574 141.108C99.653 135.49 92.9347 134.755 92.9347 134.755C92.9347 134.755 81.2669 143.762 68.165 147.865Z" fill="#263238"/>
<path opacity="0.4" d="M68.165 147.865C68.165 147.865 69.3145 147.738 86.9975 144.492C86.9975 144.492 87.3993 166.897 88.2363 183.601L93.6824 183.772C93.6824 183.772 101.494 146.726 100.574 141.108C99.653 135.49 92.9347 134.755 92.9347 134.755C92.9347 134.755 81.2669 143.762 68.165 147.865Z" fill="white"/>
<path opacity="0.3" d="M68.165 147.865C68.165 147.865 69.3145 147.738 86.9975 144.492C86.9975 144.492 87.3993 166.897 88.2363 183.601L93.6824 183.772C93.6824 183.772 101.494 146.726 100.574 141.108C99.653 135.49 92.9347 134.755 92.9347 134.755C92.9347 134.755 81.2669 143.762 68.165 147.865Z" fill="black"/>
<path d="M87.2373 182.108L94.6643 181.937L93.6487 184.967L87.6223 185.022L87.2373 182.108Z" fill="#116845"/>
<path opacity="0.3" d="M75.7763 127.467L66.1396 130.868C66.1396 130.868 71.2063 127.119 75.1569 125.377C75.5085 126.511 75.7763 127.467 75.7763 127.467Z" fill="black"/>
<path d="M54.4102 122.015L54.7673 124.664L72.8297 120.865L72.4112 117.736L54.4102 122.015Z" fill="#263238"/>
<path opacity="0.2" d="M54.4102 122.015L54.7673 124.664L72.8297 120.865L72.4112 117.736L54.4102 122.015Z" fill="black"/>
<path d="M60.3954 120.091L59.4956 120.256L60.3455 124.796L61.2453 124.63L60.3954 120.091Z" fill="#263238"/>
<path d="M68.2712 118.942L64.3301 119.822L65.0036 122.784L68.9446 121.904L68.2712 118.942Z" fill="white"/>
<path d="M70.8055 117.093L69.9087 117.256L70.7474 121.781L71.6442 121.618L70.8055 117.093Z" fill="#263238"/>
<path opacity="0.3" d="M60.3954 120.091L59.4956 120.256L60.3455 124.796L61.2453 124.63L60.3954 120.091Z" fill="white"/>
<path opacity="0.3" d="M70.8055 117.093L69.9087 117.256L70.7474 121.781L71.6442 121.618L70.8055 117.093Z" fill="white"/>
<path d="M128.373 179.188C127.787 179.01 127.172 178.941 126.56 178.984C126.56 178.984 124.289 178.044 121.538 173.571L119.194 173.875C118.8 173.933 118.433 174.111 118.144 174.383C117.854 174.655 117.656 175.008 117.576 175.395C117.559 175.505 117.559 175.617 117.576 175.727C117.677 176.288 117.815 176.842 117.989 177.386C118.59 179.183 119.3 180.943 120.115 182.655L120.494 182.5L119.284 179.15C118.882 178.005 120.282 178.973 121.025 180.079C121.767 181.184 122.821 182.257 125.327 181.317C128.239 180.189 129.395 179.592 128.373 179.188Z" fill="#263238"/>
<path d="M120.952 172.382C120.952 172.382 124.713 178.044 126.56 178.984C126.56 178.984 124.49 180.643 121.728 177.978C118.162 174.555 117.565 175.727 117.565 175.727C117.533 175.057 117.565 174.385 117.66 173.72C117.945 172.421 120.952 172.382 120.952 172.382Z" fill="#E4897B"/>
<path d="M98.2074 198.005C97.6729 197.699 97.0867 197.493 96.4776 197.396C96.4776 197.396 94.4967 195.953 92.9064 190.966L90.5572 190.712C90.1586 190.674 89.7581 190.761 89.4112 190.959C89.0643 191.157 88.7881 191.457 88.6209 191.817C88.5709 191.917 88.537 192.023 88.5205 192.133C88.4814 192.698 88.4814 193.265 88.5205 193.83C88.6719 195.717 88.9402 197.593 89.324 199.448L89.7314 199.387L89.3687 195.837C89.2515 194.632 90.3842 195.904 90.8418 197.153C91.2993 198.403 92.0638 199.691 94.7199 199.365C97.8224 198.95 99.0834 198.641 98.2074 198.005Z" fill="#263238"/>
<path d="M92.6282 189.655C92.6282 189.655 94.9271 196.042 96.4951 197.396C96.4951 197.396 94.0901 198.502 92.0311 195.284C89.3806 191.121 88.5269 192.121 88.5269 192.121C88.6517 191.464 88.8385 190.82 89.0849 190.197C89.6763 188.981 92.6282 189.655 92.6282 189.655Z" fill="#E4897B"/>
<path d="M50.4763 76.8575L45.7556 77.7974C45.5712 77.9514 45.3534 78.0609 45.1191 78.1175C44.8848 78.1741 44.6405 78.1762 44.4053 78.1237C42.9991 77.5707 40.9736 75.9506 40.7169 75.359C40.3375 74.5241 40.7169 72.0746 41.7101 71.6323C42.7034 71.1899 46.1239 75.2816 46.1239 75.2816L51.1961 74.1481L50.4763 76.8575Z" fill="#E4897B"/>
<path d="M65.364 92.4061C65.364 92.4061 64.9344 77.2502 63.1655 76.6033C61.3967 75.9564 48.0995 77.7645 48.0995 77.7645L47.7759 74.3031C47.7759 74.3031 63.2492 71.9421 66.2457 73.341C69.2421 74.7399 70.2298 97.3272 69.683 101.679L65.364 92.4061Z" fill="#116845"/>
<path opacity="0.6" d="M65.364 92.4061C65.364 92.4061 64.9344 77.2502 63.1655 76.6033C61.3967 75.9564 48.0995 77.7645 48.0995 77.7645L47.7759 74.3031C47.7759 74.3031 63.2492 71.9421 66.2457 73.341C69.2421 74.7399 70.2298 97.3272 69.683 101.679L65.364 92.4061Z" fill="white"/>
<path d="M48.3281 78.0959L47.4019 74.2917L48.7299 73.8162L49.5725 78.212L48.3281 78.0959Z" fill="#116845"/>
<path opacity="0.7" d="M48.3281 78.0959L47.4019 74.2917L48.7299 73.8162L49.5725 78.212L48.3281 78.0959Z" fill="white"/>
<path d="M65.2855 90.5148C65.2855 90.5148 64.0969 95.1263 58.3719 96.5971C52.6468 98.0678 46.3135 94.225 46.3135 94.225L47.5746 105.228L54.583 122.563L72.4948 117.935C72.4948 117.935 71.4235 97.7693 65.2855 90.5148Z" fill="#116845"/>
<path opacity="0.7" d="M65.2855 90.5148C65.2855 90.5148 64.0969 95.1263 58.3719 96.5971C52.6468 98.0678 46.3135 94.225 46.3135 94.225L47.5746 105.228L54.583 122.563L72.4948 117.935C72.4948 117.935 71.4235 97.7693 65.2855 90.5148Z" fill="white"/>
<path opacity="0.6" d="M68.3985 108.8L70.4951 108.145C70.7273 108.072 70.8561 107.827 70.7829 107.597L69.5338 103.673C69.4606 103.443 69.213 103.316 68.9808 103.388L66.8841 104.044C66.652 104.116 66.5231 104.362 66.5964 104.592L67.8455 108.515C67.9187 108.745 68.1663 108.873 68.3985 108.8Z" fill="#116845"/>
<path opacity="0.2" d="M67.9715 107.604L70.3555 106.859L69.3263 103.626L66.9423 104.372L67.9715 107.604Z" fill="black"/>
<path d="M67.8921 102.458L67.3652 102.622L67.9713 104.526L68.4981 104.361L67.8921 102.458Z" fill="#263238"/>
<path d="M53.1106 73.2911C48.6968 73.2911 45.784 77.9247 46.8163 85.2731C47.8486 92.6216 51.9834 94.7393 51.9834 94.7393L51.7212 92.9644C56.3113 93.9966 61.0438 94.2583 65.7214 93.7385C65.7214 93.7385 63.5898 87.7447 64.2817 81.6238C64.2817 81.6238 65.6823 73.28 53.1106 73.2911Z" fill="#263238"/>
<path opacity="0.2" d="M61.8764 95.1041L63.6787 101.739L60.5093 99.3451C60.5093 99.3451 63.595 106.334 64.4153 110.404C64.4153 110.404 61.748 103.476 59.4491 99.6769L58.1043 103.481L52.6973 98.0236C52.6973 98.0236 57.4737 94.3964 61.8764 95.1041Z" fill="black"/>
<path d="M59.2426 97.2441L53.7407 97.41C56.1792 94.3191 51.771 88.9335 51.771 88.9335L57.2059 90.1002C58.5005 95.4305 60.7381 95.5908 60.7381 95.5908L59.2426 97.2441Z" fill="#E4897B"/>
<path opacity="0.2" d="M58.7237 93.9265C56.6243 93.7526 54.6717 92.7891 53.2664 91.2338C52.8323 90.4348 52.3321 89.6728 51.771 88.9557L57.2059 90.1279C57.4937 91.4693 58.0068 92.7534 58.7237 93.9265Z" fill="black"/>
<path d="M57.2008 75.5415C61.9382 75.9341 63.2551 78.5716 63.1937 83.4429C63.1211 89.5252 61.4025 93.7109 55.5881 91.9304C47.6869 89.5141 49.3274 74.8891 57.2008 75.5415Z" fill="#E4897B"/>
<path d="M55.3924 79.7989C55.3397 79.7976 55.2896 79.7758 55.2529 79.7381C55.2335 79.72 55.218 79.6982 55.2074 79.6739C55.1969 79.6497 55.1914 79.6235 55.1914 79.5971C55.1914 79.5707 55.1969 79.5446 55.2074 79.5203C55.218 79.4961 55.2335 79.4742 55.2529 79.4561C55.5641 79.1864 55.9342 78.9921 56.3342 78.8884C56.7341 78.7848 57.1529 78.7747 57.5575 78.8589C57.61 78.8699 57.656 78.9012 57.6853 78.9458C57.7146 78.9904 57.7248 79.0447 57.7137 79.0967C57.7026 79.1488 57.6711 79.1943 57.6261 79.2234C57.5811 79.2524 57.5263 79.2625 57.4738 79.2515C57.1362 79.1832 56.7873 79.191 56.4532 79.2742C56.119 79.3575 55.808 79.5141 55.5431 79.7326C55.5244 79.7539 55.5012 79.7708 55.4752 79.7823C55.4491 79.7937 55.4209 79.7994 55.3924 79.7989Z" fill="#263238"/>
<path d="M62.8251 79.882C62.7809 79.8837 62.7374 79.87 62.7023 79.8433C62.479 79.6405 62.2129 79.4896 61.9233 79.4016C61.6337 79.3136 61.328 79.2907 61.0283 79.3346C61.0027 79.3415 60.9759 79.3433 60.9495 79.3399C60.9232 79.3366 60.8978 79.3281 60.8747 79.315C60.8516 79.3019 60.8314 79.2845 60.8152 79.2636C60.7989 79.2428 60.787 79.219 60.78 79.1936C60.7731 79.1682 60.7712 79.1416 60.7746 79.1155C60.778 79.0894 60.7865 79.0642 60.7997 79.0413C60.8129 79.0185 60.8306 78.9985 60.8516 78.9824C60.8726 78.9663 60.8967 78.9544 60.9223 78.9475C61.284 78.8841 61.6555 78.9035 62.0085 79.0041C62.3615 79.1047 62.6866 79.284 62.959 79.5281C63.0003 79.5617 63.0269 79.6098 63.0331 79.6624C63.0394 79.715 63.0248 79.7679 62.9925 79.8101C62.9723 79.8343 62.9466 79.8535 62.9175 79.866C62.8884 79.8784 62.8567 79.8839 62.8251 79.882Z" fill="#263238"/>
<path d="M51.336 83.0281C51.336 83.0281 53.8749 79.3566 53.7912 76.3487C53.7912 76.3487 63.5059 73.3186 63.1767 82.8069C63.1767 82.8069 64.7949 74.513 56.6649 73.6338C48.5348 72.7546 47.5918 84.5984 51.5034 88.4689C51.5034 88.4689 49.7791 85.3283 51.336 83.0281Z" fill="#263238"/>
<path d="M52.0447 84.0844C52.0447 83.5369 51.8256 83.0117 51.4354 82.624C51.0453 82.2364 50.5159 82.0179 49.9634 82.0164C48.4791 82.0551 47.5305 84.9856 51.124 86.0086C51.6374 86.1523 51.9777 85.6713 52.0447 84.0844Z" fill="#E4897B"/>
<path d="M57.0722 75.8896C57.0722 75.8896 54.511 83.4592 49.6118 82.9395C44.7125 82.4197 53.1104 73.2742 53.1104 73.2742C53.1104 73.2742 61.3744 70.9353 64.9735 75.486C68.5726 80.0366 63.1935 82.7957 63.1935 82.7957C63.1935 82.7957 63.997 76.8572 57.0722 75.8896Z" fill="#263238"/>
<path d="M53.1664 82.3315C53.1381 82.3302 53.1106 82.3213 53.087 82.3057C53.0634 82.2901 53.0446 82.2685 53.0325 82.2431C53.0197 82.2078 53.0213 82.1691 53.0369 82.135C53.0526 82.1009 53.081 82.0742 53.1162 82.0606C57.0222 80.5843 56.9329 75.3922 56.9329 75.3369C56.9313 75.3189 56.9336 75.3006 56.9397 75.2835C56.9457 75.2664 56.9555 75.2508 56.9681 75.2377C56.9808 75.2246 56.9962 75.2143 57.0132 75.2076C57.0302 75.2009 57.0485 75.1978 57.0668 75.1987C57.1031 75.1998 57.1377 75.2139 57.1643 75.2382C57.191 75.2626 57.2079 75.2957 57.2119 75.3314C57.2119 75.3867 57.3012 80.7723 53.2166 82.3205L53.1664 82.3315Z" fill="#263238"/>
<path d="M54.5164 95.1761L58.6624 97.2662L58.5954 101.43L52.6694 98.0071L54.5164 95.1761Z" fill="#116845"/>
<path d="M59.2935 94.3909L59.539 96.9177L62.2453 99.7543L61.877 95.0875L59.2935 94.3909Z" fill="#116845"/>
<path d="M40.1365 65.7988L38.4067 61.3754C38.4383 61.1389 38.4139 60.8983 38.3354 60.6728C38.257 60.4473 38.1266 60.2429 37.9547 60.076C36.7494 59.1857 34.2608 58.3785 33.6358 58.4725C32.7263 58.6052 30.8458 60.2363 31.0076 61.3035C31.1694 62.3706 36.4816 63.0286 36.4816 63.0286L38.2449 67.8778L40.1365 65.7988Z" fill="#E4897B"/>
<path d="M47.5857 105.228C47.5857 105.228 50.9337 102.591 49.6 96.763L46.0009 80.6395L39.8183 63.9852L36.7939 65.5003C36.7939 65.5003 41.8717 81.773 42.3405 82.8734C42.5804 83.4263 43.5346 91.8696 44.8347 97.526C46.0288 102.735 47.5857 105.228 47.5857 105.228Z" fill="#116845"/>
<path opacity="0.6" d="M47.5857 105.228C47.5857 105.228 50.9337 102.591 49.6 96.763L46.0009 80.6395L39.8183 63.9852L36.7939 65.5003C36.7939 65.5003 41.8717 81.773 42.3405 82.8734C42.5804 83.4263 43.5346 91.8696 44.8347 97.526C46.0288 102.735 47.5857 105.228 47.5857 105.228Z" fill="white"/>
<path d="M36.2642 65.0248L39.7963 63.272L40.5663 64.4387L36.4371 66.2523L36.2642 65.0248Z" fill="#116845"/>
<path opacity="0.7" d="M36.2642 65.0248L39.7963 63.272L40.5663 64.4387L36.4371 66.2523L36.2642 65.0248Z" fill="white"/>
<path opacity="0.6" d="M54.5164 95.1761L58.6624 97.2662L58.5954 101.43L52.6694 98.0071L54.5164 95.1761Z" fill="white"/>
<path opacity="0.6" d="M59.2935 94.3909L59.539 96.9177L62.2453 99.7543L61.877 95.0875L59.2935 94.3909Z" fill="white"/>
<path d="M177.031 86.4841H160.313V99.3563H177.031V86.4841Z" fill="white"/>
<path opacity="0.1" d="M177.031 86.4841H172.746V99.3563H177.031V86.4841Z" fill="black"/>
<path d="M159.353 110.724H178.253V87.3631H172.165L159.353 93.4398V110.724Z" fill="#116845"/>
<path opacity="0.2" d="M178.253 87.3631H172.166V110.724H178.253V87.3631Z" fill="black"/>
<path opacity="0.7" d="M170.151 98.0458H161.301V102.248H170.151V98.0458Z" fill="white"/>
<path opacity="0.7" d="M170.151 103.653H161.301V104.255H170.151V103.653Z" fill="white"/>
<path opacity="0.7" d="M177.662 105.416H172.746V108.983H177.662V105.416Z" fill="white"/>
<path d="M169.928 85.7818H153.21V99.3563H169.928V85.7818Z" fill="white"/>
<path opacity="0.1" d="M169.928 85.7818H165.643V99.3563H169.928V85.7818Z" fill="black"/>
<path d="M152.25 110.724H171.15V87.3631H165.062L152.25 93.4398V110.724Z" fill="#116845"/>
<path opacity="0.2" d="M171.15 87.3631H165.062V110.724H171.15V87.3631Z" fill="black"/>
<path opacity="0.7" d="M163.048 98.0458H154.198V102.248H163.048V98.0458Z" fill="white"/>
<path opacity="0.7" d="M163.048 103.653H154.198V104.255H163.048V103.653Z" fill="white"/>
<path opacity="0.7" d="M170.559 105.416H165.643V108.983H170.559V105.416Z" fill="white"/>
<path d="M140.51 199.42H143.931L150.069 114.683H145.532L140.51 199.42Z" fill="#263238"/>
<path opacity="0.1" d="M140.51 199.42H143.931L149.767 118.891L150.069 114.822H145.532L145.292 118.891L140.51 199.42Z" fill="white"/>
<path opacity="0.2" d="M145.292 118.692H149.768L150.069 114.822H145.532L145.292 118.692Z" fill="black"/>
<path d="M115.422 199.42H118.843L119.401 114.683H114.864L115.422 199.42Z" fill="#263238"/>
<path opacity="0.1" d="M114.858 114.822L114.953 128.49L115.416 199.42H118.837L119.306 128.49L119.395 114.822H114.858Z" fill="white"/>
<path opacity="0.2" d="M114.858 114.822L114.953 128.645H119.306L119.395 114.822H114.858Z" fill="black"/>
<path d="M79.1304 199.42H82.5509L88.6889 114.683H84.1524L79.1304 199.42Z" fill="#263238"/>
<path opacity="0.1" d="M79.1304 199.42H82.5509L88.3932 118.891L88.6889 114.822H84.1524L83.9124 118.891L79.1304 199.42Z" fill="white"/>
<path opacity="0.2" d="M83.9121 118.692H88.3928L88.6886 114.822H84.152L83.9121 118.692Z" fill="black"/>
<path d="M179.614 199.42H183.035L178.007 114.683H173.471L179.614 199.42Z" fill="#263238"/>
<path opacity="0.1" d="M173.471 114.822L173.778 118.891L179.614 199.42H183.029L178.253 118.891L178.007 114.822H173.471Z" fill="white"/>
<path opacity="0.2" d="M178.007 114.822H173.471L173.778 118.692H178.253L178.007 114.822Z" fill="black"/>
<path d="M180.402 116.807L81.7696 116.807C81.6113 116.807 81.4546 116.776 81.3083 116.716C81.1621 116.656 81.0292 116.568 80.9173 116.457C80.8054 116.346 80.7166 116.214 80.656 116.069C80.5955 115.925 80.5643 115.769 80.5643 115.612V112.566L181.607 112.566V115.612C181.607 115.769 181.576 115.925 181.515 116.069C181.455 116.214 181.366 116.346 181.254 116.457C181.142 116.568 181.009 116.656 180.863 116.716C180.717 116.776 180.56 116.807 180.402 116.807Z" fill="#116845"/>
<path opacity="0.4" d="M180.402 116.807L81.7696 116.807C81.6113 116.807 81.4546 116.776 81.3083 116.716C81.1621 116.656 81.0292 116.568 80.9173 116.457C80.8054 116.346 80.7166 116.214 80.656 116.069C80.5955 115.925 80.5643 115.769 80.5643 115.612V112.566L181.607 112.566V115.612C181.607 115.769 181.576 115.925 181.515 116.069C181.455 116.214 181.366 116.346 181.254 116.457C181.142 116.568 181.009 116.656 180.863 116.716C180.717 116.776 180.56 116.807 180.402 116.807Z" fill="white"/>
<path opacity="0.2" d="M80.5643 114.683L181.607 114.683V112.56L80.5643 112.56V114.683Z" fill="black"/>
<path d="M78.4438 113.113H183.722C183.88 113.114 184.037 113.084 184.184 113.024C184.33 112.964 184.463 112.876 184.576 112.765C184.688 112.654 184.776 112.522 184.837 112.377C184.897 112.232 184.928 112.076 184.927 111.919C184.927 111.602 184.8 111.298 184.574 111.074C184.348 110.85 184.041 110.725 183.722 110.725H78.4438C78.1236 110.725 77.8164 110.85 77.5895 111.074C77.3626 111.298 77.2344 111.602 77.2329 111.919C77.2329 112.076 77.2643 112.232 77.3252 112.377C77.3861 112.522 77.4754 112.654 77.5879 112.765C77.7004 112.876 77.8339 112.964 77.9808 113.024C78.1277 113.084 78.285 113.114 78.4438 113.113Z" fill="#116845"/>
<path opacity="0.4" d="M78.4438 113.113H183.722C183.88 113.114 184.037 113.084 184.184 113.024C184.33 112.964 184.463 112.876 184.576 112.765C184.688 112.654 184.776 112.522 184.837 112.377C184.897 112.232 184.928 112.076 184.927 111.919C184.927 111.602 184.8 111.298 184.574 111.074C184.348 110.85 184.041 110.725 183.722 110.725H78.4438C78.1236 110.725 77.8164 110.85 77.5895 111.074C77.3626 111.298 77.2344 111.602 77.2329 111.919C77.2329 112.076 77.2643 112.232 77.3252 112.377C77.3861 112.522 77.4754 112.654 77.5879 112.765C77.7004 112.876 77.8339 112.964 77.9808 113.024C78.1277 113.084 78.285 113.114 78.4438 113.113Z" fill="white"/>
<path d="M161.1 110.713V108.844H162.367L161.1 108.115H162.049L160.782 107.296H159.582V106.356H160.977L159.582 105.809V103.769H160.977V102.436H162.367L160.977 101.972V101.021H161.971L161.156 100.219L160.453 99.5165H138.892V100.473H137.469L139.054 101.181V101.972H136.146V103.442H134.857L136.146 104.084V105.726H137.062V106.511H138.892V108.844H137.865L138.708 109.679V110.724L161.1 110.713Z" fill="#116845"/>
<path opacity="0.7" d="M161.1 110.713V108.844H162.367L161.1 108.115H162.049L160.782 107.296H159.582V106.356H160.977L159.582 105.809V103.769H160.977V102.436H162.367L160.977 101.972V101.021H161.971L161.156 100.219L160.453 99.5165H138.892V100.473H137.469L139.054 101.181V101.972H136.146V103.442H134.857L136.146 104.084V105.726H137.062V106.511H138.892V108.844H137.865L138.708 109.679V110.724L161.1 110.713Z" fill="white"/>
<path opacity="0.1" d="M161.1 110.713V108.844H162.367L161.1 108.115H162.049L160.782 107.296H159.582V106.356H160.977L159.582 105.809V103.769H160.977V102.436H162.367L160.977 101.972V101.021H161.971L161.156 100.219L160.453 99.5165H149.098V100.473H147.675L149.254 101.181V101.972H146.347V103.442H145.058L146.347 104.084V105.726H147.262V106.511H149.098V108.844H148.071L148.908 109.679V110.724L161.1 110.713Z" fill="black"/>
<path opacity="0.1" d="M139.054 101.972H149.254L139.054 101.607V101.972Z" fill="black"/>
<path opacity="0.1" d="M138.892 106.511H149.097L149.142 107.219L138.892 106.511Z" fill="black"/>
<path opacity="0.1" d="M137.062 105.726H147.262L137.062 106.08V105.726Z" fill="black"/>
<path opacity="0.1" d="M138.892 108.845H149.097L138.892 108.474V108.845Z" fill="black"/>
<path opacity="0.1" d="M138.708 109.679H148.908V110.067L138.708 109.679Z" fill="black"/>
<path opacity="0.1" d="M136.146 103.443H146.347L136.146 103.122V103.443Z" fill="black"/>
<path opacity="0.1" d="M138.892 100.473H149.097L138.892 100.119V100.473Z" fill="black"/>
<path opacity="0.1" d="M160.978 101.02H150.627L160.978 101.337V101.02Z" fill="black"/>
<path opacity="0.1" d="M149.254 101.971H160.977L150.348 102.314L149.254 101.971Z" fill="black"/>
<path opacity="0.1" d="M146.347 103.442L160.977 103.769V103.442H146.347Z" fill="black"/>
<path opacity="0.1" d="M146.347 104.084H153.584L146.347 104.432V104.084Z" fill="black"/>
<path opacity="0.1" d="M159.582 105.81L149.098 105.727L159.582 105.494V105.81Z" fill="black"/>
<path opacity="0.1" d="M159.582 106.356H148.908L159.582 106.71V106.356Z" fill="black"/>
<path opacity="0.1" d="M161.1 108.115H149.254V108.474L161.1 108.115Z" fill="black"/>
<path opacity="0.1" d="M161.1 108.844H152.518L161.1 109.083V108.844Z" fill="black"/>
<path d="M133.646 108.303V110.078C133.646 110.531 133.088 110.719 132.647 110.719H96.8684C96.4108 110.719 95.8584 110.531 95.8584 110.078V108.303H133.646Z" fill="#263238"/>
<path opacity="0.4" d="M133.646 108.303V110.078C133.646 110.531 133.088 110.719 132.647 110.719H96.8684C96.4108 110.719 95.8584 110.531 95.8584 110.078V108.303H133.646Z" fill="white"/>
<path opacity="0.2" d="M133.647 108.303V110.078C133.647 110.531 133.089 110.719 132.648 110.719H109.05C108.593 110.719 108.046 110.531 108.046 110.078V108.303H133.647Z" fill="black"/>
<path d="M139.634 89.879L135.371 109.027C135.298 109.338 135.122 109.615 134.871 109.816C134.62 110.016 134.309 110.128 133.987 110.133H110.724C110.579 110.13 110.437 110.093 110.309 110.027C110.181 109.96 110.07 109.865 109.985 109.749C109.9 109.632 109.844 109.498 109.82 109.357C109.796 109.215 109.806 109.07 109.848 108.933L114.1 89.9343C114.187 89.6443 114.372 89.3927 114.624 89.2217C114.876 89.0506 115.179 88.9703 115.484 88.9943H138.752C139.377 88.9722 139.768 89.2542 139.634 89.879Z" fill="#263238"/>
<path opacity="0.4" d="M139.634 89.8789L135.371 109.027C135.297 109.338 135.121 109.615 134.871 109.816C134.62 110.016 134.309 110.128 133.987 110.133H111.511C111.366 110.13 111.224 110.093 111.096 110.027C110.967 109.96 110.857 109.865 110.772 109.749C110.687 109.632 110.63 109.498 110.606 109.357C110.583 109.215 110.592 109.07 110.635 108.933L114.892 89.9342C114.978 89.6436 115.163 89.3914 115.415 89.2202C115.667 89.049 115.971 88.9691 116.276 88.9942H138.752C139.377 88.9721 139.768 89.2541 139.634 89.8789Z" fill="white"/>
<path opacity="0.2" d="M128.161 99.6105C128.161 101.269 126.387 102.58 125.087 102.58C123.787 102.58 123.017 101.247 123.413 99.6105C123.809 97.9739 125.087 96.6966 126.348 96.6468C125.98 98.3056 126.772 99.6105 128.067 99.6105H128.161Z" fill="black"/>
</svg>
