<svg width="345" height="27" viewBox="0 0 345 27" fill="none" xmlns="http://www.w3.org/2000/svg">
<path d="M12 22C17.5 22 22 17.5 22 12C22 6.5 17.5 2 12 2C6.5 2 2 6.5 2 12C2 17.5 6.5 22 12 22Z" stroke="#9E9E9E" stroke-width="1.5" stroke-linecap="round" stroke-linejoin="round"/>
<path d="M7.75 11.9999L10.58 14.8299L16.25 9.16992" stroke="#9E9E9E" stroke-width="1.5" stroke-linecap="round" stroke-linejoin="round"/>
<path d="M47 21.28C46.72 21.28 46.48 21.18 46.28 20.98C46.0933 20.7933 46 20.5667 46 20.3C46 20.0333 46.0933 19.8 46.28 19.6C46.48 19.4 46.72 19.3 47 19.3C47.2667 19.3 47.4933 19.4 47.68 19.6C47.88 19.8 47.98 20.0333 47.98 20.3C47.98 20.5667 47.88 20.7933 47.68 20.98C47.4933 21.18 47.2667 21.28 47 21.28ZM47.2 26.88C46.2667 26.88 45.3733 26.7733 44.52 26.56C43.68 26.3467 42.9333 26.0133 42.28 25.56C41.64 25.12 41.1333 24.56 40.76 23.88C40.3867 23.2 40.2 22.4 40.2 21.48C40.2 20.7067 40.3133 19.9667 40.54 19.26C40.7667 18.5667 41.0933 17.9133 41.52 17.3C41.96 16.6733 42.4933 16.1 43.12 15.58C43.7467 15.06 44.46 14.6 45.26 14.2C46.06 13.7867 46.9333 13.44 47.88 13.16L47.66 13.42C47.3133 13.3133 46.96 13.2 46.6 13.08C46.24 12.9467 45.8667 12.8267 45.48 12.72C45.0933 12.6 44.68 12.5067 44.24 12.44C43.8 12.3733 43.3267 12.34 42.82 12.34C42.42 12.34 42.0667 12.3733 41.76 12.44C41.4667 12.5067 41.1867 12.5733 40.92 12.64L40.64 11.16C40.9867 11.0133 41.3733 10.9 41.8 10.82C42.24 10.7267 42.68 10.68 43.12 10.68C43.7333 10.68 44.28 10.74 44.76 10.86C45.24 10.9667 45.6933 11.1 46.12 11.26C46.56 11.42 47.02 11.5867 47.5 11.76C47.98 11.92 48.5133 12.06 49.1 12.18C49.7 12.2867 50.4067 12.3467 51.22 12.36H51.4L51.44 14C50.8 14 50.12 14.0733 49.4 14.22C48.68 14.3667 47.96 14.58 47.24 14.86C46.5333 15.14 45.8533 15.4867 45.2 15.9C44.5467 16.3133 43.9667 16.7933 43.46 17.34C42.9667 17.8733 42.5733 18.4667 42.28 19.12C41.9867 19.7867 41.84 20.5067 41.84 21.28C41.84 21.9733 41.9867 22.5667 42.28 23.06C42.5733 23.5667 42.9733 23.98 43.48 24.3C44 24.62 44.5933 24.8533 45.26 25C45.94 25.1467 46.6533 25.22 47.4 25.22C48.0533 25.22 48.72 25.1467 49.4 25C50.0933 24.8667 50.7667 24.6733 51.42 24.42L51.98 25.78C51.2067 26.1533 50.4133 26.4267 49.6 26.6C48.7867 26.7867 47.9867 26.88 47.2 26.88ZM52.8534 23.64L52.2734 22.12C53.2468 21.8 54.0534 21.4333 54.6934 21.02C55.3468 20.6067 55.8601 20.1667 56.2334 19.7C56.6201 19.2333 56.8934 18.76 57.0534 18.28C57.2134 17.7867 57.2934 17.3133 57.2934 16.86C57.2934 16.2067 57.1468 15.5467 56.8534 14.88C56.5734 14.2 56.2601 13.56 55.9134 12.96L57.3734 12.22C57.6268 12.6867 57.8468 13.1467 58.0334 13.6C58.2334 14.0533 58.4068 14.48 58.5534 14.88C58.7134 15.28 58.8401 15.6467 58.9334 15.98C59.1201 16.5533 59.3601 16.9467 59.6534 17.16C59.9601 17.36 60.3734 17.46 60.8934 17.46C61.1734 17.46 61.3734 17.54 61.4934 17.7C61.6268 17.8467 61.6934 18.0267 61.6934 18.24C61.6934 18.4533 61.6001 18.6533 61.4134 18.84C61.2268 19.0133 60.9868 19.1 60.6934 19.1C60.1068 19.1 59.6268 19 59.2534 18.8C58.8934 18.5867 58.6201 18.3133 58.4334 17.98C58.2468 17.6333 58.1201 17.2733 58.0534 16.9L58.6934 17.26C58.6934 18.14 58.4934 18.94 58.0934 19.66C57.7068 20.3933 57.2068 21.0267 56.5934 21.56C55.9801 22.1067 55.3401 22.5533 54.6734 22.9C54.0068 23.2467 53.4001 23.4933 52.8534 23.64ZM73.4431 19.1C72.8831 19.1 72.3698 19.0667 71.9031 19C71.4365 18.92 71.0165 18.78 70.6431 18.58C70.2698 18.38 69.9565 18.0933 69.7031 17.72C69.4498 17.3333 69.2565 16.8267 69.1231 16.2L70.3031 15.5C70.4765 16.0333 70.6898 16.44 70.9431 16.72C71.1965 17 71.5365 17.1933 71.9631 17.3C72.4031 17.4067 72.9631 17.46 73.6431 17.46C73.9231 17.46 74.1231 17.54 74.2431 17.7C74.3765 17.8467 74.4431 18.0267 74.4431 18.24C74.4431 18.4533 74.3498 18.6533 74.1631 18.84C73.9765 19.0133 73.7365 19.1 73.4431 19.1ZM60.7031 19.1L60.8831 17.46C61.5765 17.46 62.2565 17.4067 62.9231 17.3C63.5898 17.1933 64.2431 17.04 64.8831 16.84C65.5231 16.64 66.1365 16.4 66.7231 16.12C67.3231 15.8267 67.8898 15.4933 68.4231 15.12C68.0765 14.8133 67.6765 14.5467 67.2231 14.32C66.7698 14.0933 66.2698 13.92 65.7231 13.8C65.1898 13.6667 64.6231 13.6 64.0231 13.6C63.8098 13.6 63.6098 13.6067 63.4231 13.62C63.2365 13.6333 63.0498 13.66 62.8631 13.7C62.6765 13.7267 62.4631 13.7667 62.2231 13.82L61.9031 12.3C62.2631 12.1933 62.6231 12.1133 62.9831 12.06C63.3431 11.9933 63.6898 11.96 64.0231 11.96C64.7165 11.96 65.3431 12.0467 65.9031 12.22C66.4631 12.38 66.9698 12.58 67.4231 12.82C67.8898 13.06 68.3231 13.3 68.7231 13.54C69.1365 13.78 69.5365 13.9867 69.9231 14.16C70.3098 14.32 70.7098 14.4 71.1231 14.4H71.5431L71.6831 15.84C71.1098 15.84 70.5831 15.92 70.1031 16.08C69.6231 16.24 69.1498 16.4467 68.6831 16.7C68.2298 16.94 67.7498 17.2 67.2431 17.48C66.7365 17.7467 66.1765 18.0067 65.5631 18.26C64.9498 18.5 64.2431 18.7 63.4431 18.86C62.6565 19.02 61.7431 19.1 60.7031 19.1ZM63.8431 9.9C63.5631 9.9 63.3231 9.80667 63.1231 9.62C62.9365 9.42 62.8431 9.18667 62.8431 8.92C62.8431 8.65333 62.9365 8.42 63.1231 8.22C63.3231 8.02 63.5631 7.92 63.8431 7.92C64.1098 7.92 64.3365 8.02 64.5231 8.22C64.7231 8.42 64.8231 8.65333 64.8231 8.92C64.8231 9.18667 64.7231 9.42 64.5231 9.62C64.3365 9.80667 64.1098 9.9 63.8431 9.9ZM73.4375 19.1L73.6375 17.46C74.3042 17.46 74.8242 17.4133 75.1975 17.32C75.5708 17.2133 75.8508 17.02 76.0375 16.74C76.2375 16.4467 76.3975 16.0267 76.5175 15.48C76.6375 14.9333 76.7842 14.22 76.9575 13.34L78.5175 13.64C78.4642 13.88 78.4042 14.1467 78.3375 14.44C78.2708 14.7333 78.2108 15.0267 78.1575 15.32C78.1175 15.6 78.0975 15.8467 78.0975 16.06C78.0975 16.26 78.1108 16.4467 78.1375 16.62C78.1642 16.7933 78.2642 16.94 78.4375 17.06C78.6108 17.18 78.9042 17.28 79.3175 17.36C79.7308 17.4267 80.3242 17.46 81.0975 17.46C81.3775 17.46 81.5775 17.54 81.6975 17.7C81.8308 17.8467 81.8975 18.0267 81.8975 18.24C81.8975 18.4533 81.8042 18.6533 81.6175 18.84C81.4308 19.0133 81.1908 19.1 80.8975 19.1C80.0842 19.1 79.4375 19.06 78.9575 18.98C78.4775 18.8867 78.1108 18.7533 77.8575 18.58C77.6175 18.4067 77.4442 18.1933 77.3375 17.94C77.2442 17.6733 77.1708 17.3667 77.1175 17.02L77.7175 17.06C77.5042 17.4867 77.2708 17.8333 77.0175 18.1C76.7775 18.3667 76.4975 18.5733 76.1775 18.72C75.8575 18.8667 75.4708 18.9667 75.0175 19.02C74.5775 19.0733 74.0508 19.1 73.4375 19.1ZM78.7775 11.28C78.4975 11.28 78.2575 11.1867 78.0575 11C77.8708 10.8 77.7775 10.5667 77.7775 10.3C77.7775 10.0333 77.8708 9.8 78.0575 9.6C78.2575 9.4 78.4975 9.3 78.7775 9.3C79.0442 9.3 79.2708 9.4 79.4575 9.6C79.6575 9.8 79.7575 10.0333 79.7575 10.3C79.7575 10.5667 79.6575 10.8 79.4575 11C79.2708 11.1867 79.0442 11.28 78.7775 11.28ZM76.0375 11.28C75.7575 11.28 75.5175 11.1867 75.3175 11C75.1308 10.8 75.0375 10.5667 75.0375 10.3C75.0375 10.0333 75.1308 9.8 75.3175 9.6C75.5175 9.4 75.7575 9.3 76.0375 9.3C76.3042 9.3 76.5308 9.4 76.7175 9.6C76.9175 9.8 77.0175 10.0333 77.0175 10.3C77.0175 10.5667 76.9175 10.8 76.7175 11C76.5308 11.1867 76.3042 11.28 76.0375 11.28ZM80.8984 19.1L81.0784 17.46C81.8384 17.46 82.3718 17.3867 82.6784 17.24C82.9851 17.0933 83.1584 16.8333 83.1984 16.46C83.2518 16.0867 83.2651 15.5667 83.2384 14.9L82.8584 4.72H84.4784L84.8784 14.72C84.9051 15.4267 84.8784 16.0533 84.7984 16.6C84.7318 17.1467 84.5584 17.6067 84.2784 17.98C84.0118 18.3533 83.6051 18.6333 83.0584 18.82C82.5251 19.0067 81.8051 19.1 80.8984 19.1ZM87.9338 19L87.5338 4.72H89.1538L89.5538 19H87.9338ZM105.872 19.1C105.152 19.1 104.512 19 103.952 18.8C103.406 18.5867 102.966 18.2333 102.632 17.74C102.312 17.2333 102.132 16.5333 102.092 15.64L101.772 8.68H103.392L103.712 15.28C103.752 15.9067 103.866 16.38 104.052 16.7C104.239 17.0067 104.499 17.2133 104.832 17.32C105.179 17.4133 105.592 17.46 106.072 17.46C106.352 17.46 106.552 17.54 106.672 17.7C106.806 17.8467 106.872 18.0267 106.872 18.24C106.872 18.4533 106.779 18.6533 106.592 18.84C106.406 19.0133 106.166 19.1 105.872 19.1ZM102.852 16.9C102.092 17.14 101.352 17.26 100.632 17.26C99.9123 17.26 99.259 17.1533 98.6723 16.94C98.0857 16.7267 97.619 16.42 97.2723 16.02C96.9257 15.6067 96.7523 15.1133 96.7523 14.54C96.7523 13.98 96.8923 13.4533 97.1723 12.96C97.4657 12.4667 97.859 12.0267 98.3523 11.64C98.859 11.2533 99.439 10.9333 100.092 10.68C100.759 10.4133 101.466 10.2333 102.212 10.14L102.492 11.82C101.826 11.8467 101.232 11.94 100.712 12.1C100.206 12.2467 99.7723 12.44 99.4123 12.68C99.0657 12.92 98.799 13.18 98.6123 13.46C98.4257 13.74 98.3323 14.0133 98.3323 14.28C98.3323 14.5733 98.439 14.8133 98.6523 15C98.8657 15.1867 99.139 15.3333 99.4723 15.44C99.8057 15.5333 100.172 15.5933 100.572 15.62C100.972 15.6333 101.359 15.62 101.732 15.58C102.106 15.5267 102.426 15.4533 102.692 15.36L102.852 16.9ZM102.432 6.38C102.152 6.38 101.912 6.28667 101.712 6.1C101.526 5.9 101.432 5.66667 101.432 5.4C101.432 5.13333 101.526 4.9 101.712 4.7C101.912 4.5 102.152 4.4 102.432 4.4C102.699 4.4 102.926 4.5 103.112 4.7C103.312 4.9 103.412 5.13333 103.412 5.4C103.412 5.66667 103.312 5.9 103.112 6.1C102.926 6.28667 102.699 6.38 102.432 6.38ZM99.6923 6.38C99.4123 6.38 99.1723 6.28667 98.9723 6.1C98.7857 5.9 98.6923 5.66667 98.6923 5.4C98.6923 5.13333 98.7857 4.9 98.9723 4.7C99.1723 4.5 99.4123 4.4 99.6923 4.4C99.959 4.4 100.186 4.5 100.372 4.7C100.572 4.9 100.672 5.13333 100.672 5.4C100.672 5.66667 100.572 5.9 100.372 6.1C100.186 6.28667 99.959 6.38 99.6923 6.38ZM105.879 19.1L106.079 17.46C106.412 17.46 106.752 17.46 107.099 17.46C107.459 17.4467 107.812 17.4267 108.159 17.4C108.506 17.3733 108.839 17.34 109.159 17.3C109.479 17.26 109.766 17.2 110.019 17.12C110.486 16.9733 110.912 16.78 111.299 16.54C111.699 16.3 112.019 16.0067 112.259 15.66C112.512 15.3133 112.639 14.9133 112.639 14.46C112.639 14.1533 112.566 13.84 112.419 13.52C112.272 13.1867 112.072 12.9067 111.819 12.68C111.566 12.4533 111.272 12.34 110.939 12.34C110.619 12.34 110.319 12.4467 110.039 12.66C109.772 12.8733 109.552 13.1533 109.379 13.5C109.219 13.8333 109.139 14.18 109.139 14.54C109.139 14.9667 109.246 15.3533 109.459 15.7C109.686 16.0333 109.959 16.32 110.279 16.56C110.599 16.8 110.919 16.9933 111.239 17.14L109.339 17.7C109.126 17.54 108.872 17.32 108.579 17.04C108.299 16.7467 108.046 16.3867 107.819 15.96C107.606 15.5333 107.499 15.0467 107.499 14.5C107.499 13.9667 107.592 13.4733 107.779 13.02C107.979 12.5533 108.239 12.1467 108.559 11.8C108.892 11.4533 109.266 11.1867 109.679 11C110.106 10.8 110.546 10.7 110.999 10.7C111.652 10.7 112.226 10.88 112.719 11.24C113.212 11.6 113.592 12.06 113.859 12.62C114.139 13.1667 114.279 13.74 114.279 14.34C114.279 14.9133 114.172 15.4333 113.959 15.9C113.746 16.3533 113.452 16.76 113.079 17.12C112.719 17.48 112.292 17.7867 111.799 18.04C111.319 18.2933 110.806 18.5 110.259 18.66C109.952 18.7533 109.619 18.8267 109.259 18.88C108.912 18.9333 108.546 18.9733 108.159 19C107.772 19.04 107.386 19.0667 106.999 19.08C106.612 19.0933 106.239 19.1 105.879 19.1ZM115.779 19.1C115.112 19.1 114.419 19.06 113.699 18.98C112.992 18.8867 112.319 18.7733 111.679 18.64C111.052 18.4933 110.532 18.3333 110.119 18.16L111.499 17.16C111.899 17.2133 112.372 17.2667 112.919 17.32C113.466 17.36 114.012 17.3933 114.559 17.42C115.106 17.4467 115.579 17.46 115.979 17.46C116.259 17.46 116.459 17.54 116.579 17.7C116.712 17.8467 116.779 18.0267 116.779 18.24C116.779 18.4533 116.686 18.6533 116.499 18.84C116.312 19.0133 116.072 19.1 115.779 19.1ZM112.219 8.64C111.939 8.64 111.699 8.54667 111.499 8.36C111.312 8.16 111.219 7.92667 111.219 7.66C111.219 7.39333 111.312 7.16 111.499 6.96C111.699 6.76 111.939 6.66 112.219 6.66C112.486 6.66 112.712 6.76 112.899 6.96C113.099 7.16 113.199 7.39333 113.199 7.66C113.199 7.92667 113.099 8.16 112.899 8.36C112.712 8.54667 112.486 8.64 112.219 8.64ZM109.479 8.64C109.199 8.64 108.959 8.54667 108.759 8.36C108.572 8.16 108.479 7.92667 108.479 7.66C108.479 7.39333 108.572 7.16 108.759 6.96C108.959 6.76 109.199 6.66 109.479 6.66C109.746 6.66 109.972 6.76 110.159 6.96C110.359 7.16 110.459 7.39333 110.459 7.66C110.459 7.92667 110.359 8.16 110.159 8.36C109.972 8.54667 109.746 8.64 109.479 8.64ZM115.781 19.1L115.981 17.46C116.648 17.46 117.168 17.4133 117.541 17.32C117.915 17.2133 118.195 17.02 118.381 16.74C118.581 16.4467 118.741 16.0267 118.861 15.48C118.981 14.9333 119.128 14.22 119.301 13.34L120.861 13.64C120.808 13.88 120.748 14.1467 120.681 14.44C120.615 14.7333 120.555 15.0267 120.501 15.32C120.461 15.6 120.441 15.8467 120.441 16.06C120.441 16.26 120.455 16.4467 120.481 16.62C120.508 16.7933 120.608 16.94 120.781 17.06C120.955 17.18 121.248 17.28 121.661 17.36C122.075 17.4267 122.668 17.46 123.441 17.46C123.721 17.46 123.921 17.54 124.041 17.7C124.175 17.8467 124.241 18.0267 124.241 18.24C124.241 18.4533 124.148 18.6533 123.961 18.84C123.775 19.0133 123.535 19.1 123.241 19.1C122.428 19.1 121.781 19.06 121.301 18.98C120.821 18.8867 120.455 18.7533 120.201 18.58C119.961 18.4067 119.788 18.1933 119.681 17.94C119.588 17.6733 119.515 17.3667 119.461 17.02L120.061 17.06C119.848 17.4867 119.615 17.8333 119.361 18.1C119.121 18.3667 118.841 18.5733 118.521 18.72C118.201 18.8667 117.815 18.9667 117.361 19.02C116.921 19.0733 116.395 19.1 115.781 19.1ZM120.821 22.88C120.541 22.88 120.301 22.78 120.101 22.58C119.915 22.3933 119.821 22.1667 119.821 21.9C119.821 21.6333 119.915 21.4 120.101 21.2C120.301 21 120.541 20.9 120.821 20.9C121.088 20.9 121.315 21 121.501 21.2C121.701 21.4 121.801 21.6333 121.801 21.9C121.801 22.1667 121.701 22.3933 121.501 22.58C121.315 22.78 121.088 22.88 120.821 22.88ZM118.081 22.88C117.801 22.88 117.561 22.78 117.361 22.58C117.175 22.3933 117.081 22.1667 117.081 21.9C117.081 21.6333 117.175 21.4 117.361 21.2C117.561 21 117.801 20.9 118.081 20.9C118.348 20.9 118.575 21 118.761 21.2C118.961 21.4 119.061 21.6333 119.061 21.9C119.061 22.1667 118.961 22.3933 118.761 22.58C118.575 22.78 118.348 22.88 118.081 22.88ZM123.242 19.1L123.442 17.46C124.229 17.46 124.842 17.4333 125.282 17.38C125.722 17.3133 126.036 17.16 126.222 16.92C126.409 16.6667 126.502 16.2733 126.502 15.74C126.502 15.4067 126.449 15.0133 126.342 14.56C126.236 14.0933 126.096 13.6 125.922 13.08C125.749 12.56 125.562 12.0467 125.362 11.54L126.982 10.94C127.156 11.3667 127.316 11.8533 127.462 12.4C127.622 12.9467 127.756 13.4867 127.862 14.02C127.969 14.5533 128.022 15.02 128.022 15.42C128.022 16.0867 127.929 16.6533 127.742 17.12C127.569 17.5867 127.289 17.9667 126.902 18.26C126.516 18.5533 126.016 18.7667 125.402 18.9C124.802 19.0333 124.082 19.1 123.242 19.1ZM126.242 6.66C125.962 6.66 125.722 6.56667 125.522 6.38C125.336 6.18 125.242 5.94667 125.242 5.68C125.242 5.41333 125.336 5.18 125.522 4.98C125.722 4.78 125.962 4.68 126.242 4.68C126.509 4.68 126.736 4.78 126.922 4.98C127.122 5.18 127.222 5.41333 127.222 5.68C127.222 5.94667 127.122 6.18 126.922 6.38C126.736 6.56667 126.509 6.66 126.242 6.66ZM124.882 8.86C124.602 8.86 124.362 8.76667 124.162 8.58C123.976 8.38 123.882 8.14667 123.882 7.88C123.882 7.61333 123.976 7.38 124.162 7.18C124.362 6.98 124.602 6.88 124.882 6.88C125.149 6.88 125.376 6.98 125.562 7.18C125.762 7.38 125.862 7.61333 125.862 7.88C125.862 8.14667 125.762 8.38 125.562 8.58C125.376 8.76667 125.149 8.86 124.882 8.86ZM127.602 8.86C127.322 8.86 127.082 8.76667 126.882 8.58C126.696 8.38 126.602 8.14667 126.602 7.88C126.602 7.61333 126.696 7.38 126.882 7.18C127.082 6.98 127.322 6.88 127.602 6.88C127.869 6.88 128.096 6.98 128.282 7.18C128.482 7.38 128.582 7.61333 128.582 7.88C128.582 8.14667 128.482 8.38 128.282 8.58C128.096 8.76667 127.869 8.86 127.602 8.86ZM130.379 23.6L130.019 21.96C130.819 21.8533 131.552 21.7 132.219 21.5C132.899 21.3133 133.479 21.04 133.959 20.68C134.452 20.32 134.832 19.8467 135.099 19.26C135.365 18.6733 135.499 17.94 135.499 17.06C135.499 16.6467 135.459 16.2533 135.379 15.88C135.299 15.4933 135.179 15.1533 135.019 14.86C134.859 14.5667 134.665 14.3333 134.439 14.16C134.225 13.9867 133.979 13.9 133.699 13.9C133.392 13.9 133.112 14.02 132.859 14.26C132.619 14.4867 132.425 14.78 132.279 15.14C132.145 15.5 132.079 15.86 132.079 16.22C132.079 16.5 132.132 16.7467 132.239 16.96C132.359 17.16 132.552 17.3133 132.819 17.42C133.085 17.5267 133.432 17.58 133.859 17.58C134.245 17.58 134.632 17.54 135.019 17.46C135.419 17.38 135.759 17.2733 136.039 17.14L136.119 18.54C135.799 18.7667 135.419 18.9267 134.979 19.02C134.552 19.1133 134.119 19.16 133.679 19.16C133.172 19.16 132.719 19.1067 132.319 19C131.932 18.8933 131.599 18.74 131.319 18.54C131.052 18.3267 130.845 18.06 130.699 17.74C130.565 17.42 130.499 17.0467 130.499 16.62C130.499 16.1133 130.579 15.6067 130.739 15.1C130.899 14.58 131.125 14.1067 131.419 13.68C131.712 13.2533 132.065 12.9133 132.479 12.66C132.892 12.3933 133.352 12.26 133.859 12.26C134.392 12.26 134.859 12.4 135.259 12.68C135.659 12.9467 135.992 13.3133 136.259 13.78C136.525 14.2467 136.725 14.7733 136.859 15.36C136.992 15.9467 137.059 16.5533 137.059 17.18C137.059 18.42 136.805 19.4867 136.299 20.38C135.805 21.2867 135.059 22.0067 134.059 22.54C133.072 23.0733 131.845 23.4267 130.379 23.6ZM151.257 19.42L151.777 17.78C153.337 17.78 154.677 17.74 155.797 17.66C156.93 17.58 157.857 17.4533 158.577 17.28C159.31 17.0933 159.85 16.8467 160.197 16.54C160.557 16.22 160.737 15.8333 160.737 15.38C160.737 14.8733 160.644 14.2867 160.457 13.62C160.27 12.9533 160.03 12.24 159.737 11.48L161.277 10.94C161.45 11.3667 161.61 11.8267 161.757 12.32C161.917 12.8 162.05 13.28 162.157 13.76C162.264 14.2267 162.317 14.66 162.317 15.06C162.317 15.8467 162.137 16.52 161.777 17.08C161.417 17.6267 160.817 18.0733 159.977 18.42C159.137 18.7667 158.004 19.02 156.577 19.18C155.164 19.34 153.39 19.42 151.257 19.42ZM151.257 19.42C150.07 19.42 149.024 19.34 148.117 19.18C147.224 19.0333 146.477 18.8 145.877 18.48C145.277 18.16 144.824 17.7467 144.517 17.24C144.21 16.72 144.057 16.0933 144.057 15.36C144.057 15.0267 144.084 14.6867 144.137 14.34C144.19 13.98 144.257 13.62 144.337 13.26C144.43 12.9 144.524 12.5533 144.617 12.22L146.117 12.6C146.064 12.8 146.004 13.04 145.937 13.32C145.87 13.5867 145.81 13.86 145.757 14.14C145.717 14.42 145.697 14.6733 145.697 14.9C145.697 15.5933 145.87 16.1533 146.217 16.58C146.577 16.9933 147.197 17.3 148.077 17.5C148.957 17.6867 150.19 17.78 151.777 17.78L152.177 18.78L151.257 19.42ZM154.597 10.98C154.317 10.98 154.077 10.8867 153.877 10.7C153.69 10.5 153.597 10.2667 153.597 10C153.597 9.73333 153.69 9.5 153.877 9.3C154.077 9.1 154.317 9 154.597 9C154.864 9 155.09 9.1 155.277 9.3C155.477 9.5 155.577 9.73333 155.577 10C155.577 10.2667 155.477 10.5 155.277 10.7C155.09 10.8867 154.864 10.98 154.597 10.98ZM151.857 10.98C151.577 10.98 151.337 10.8867 151.137 10.7C150.95 10.5 150.857 10.2667 150.857 10C150.857 9.73333 150.95 9.5 151.137 9.3C151.337 9.1 151.577 9 151.857 9C152.124 9 152.35 9.1 152.537 9.3C152.737 9.5 152.837 9.73333 152.837 10C152.837 10.2667 152.737 10.5 152.537 10.7C152.35 10.8867 152.124 10.98 151.857 10.98ZM169.14 19.1C168.074 19.1 167.254 18.98 166.68 18.74C166.12 18.5 165.734 18.1267 165.52 17.62C165.307 17.1133 165.187 16.46 165.16 15.66L164.76 4.72H166.4L166.8 15.02C166.827 15.6733 166.887 16.18 166.98 16.54C167.087 16.8867 167.314 17.1267 167.66 17.26C168.02 17.3933 168.58 17.46 169.34 17.46C169.62 17.46 169.82 17.54 169.94 17.7C170.074 17.8467 170.14 18.0267 170.14 18.24C170.14 18.4533 170.047 18.6533 169.86 18.84C169.674 19.0133 169.434 19.1 169.14 19.1ZM169.141 19.1L169.341 17.46C169.714 17.46 170.027 17.38 170.281 17.22C170.534 17.06 170.781 16.7933 171.021 16.42C171.261 16.0467 171.521 15.5467 171.801 14.92C172.187 14.0667 172.567 13.42 172.941 12.98C173.327 12.54 173.707 12.24 174.081 12.08C174.467 11.92 174.847 11.84 175.221 11.84C175.674 11.84 176.094 11.96 176.481 12.2C176.867 12.4267 177.207 12.7333 177.501 13.12C177.794 13.5067 178.021 13.9333 178.181 14.4C178.354 14.8533 178.441 15.3067 178.441 15.76C178.441 16.56 178.301 17.2 178.021 17.68C177.741 18.1467 177.381 18.4867 176.941 18.7C176.514 18.9 176.067 19 175.601 19C175.187 19 174.654 18.92 174.001 18.76C173.361 18.6 172.547 18.1933 171.561 17.54L172.341 16.28C172.994 16.6933 173.581 16.98 174.101 17.14C174.634 17.2867 175.074 17.36 175.421 17.36C175.807 17.36 176.114 17.3067 176.341 17.2C176.567 17.08 176.734 16.9133 176.841 16.7C176.947 16.4867 177.001 16.2467 177.001 15.98C177.001 15.5933 176.907 15.2067 176.721 14.82C176.534 14.4333 176.294 14.1133 176.001 13.86C175.721 13.6067 175.421 13.48 175.101 13.48C174.861 13.48 174.627 13.5467 174.401 13.68C174.174 13.8133 173.941 14.06 173.701 14.42C173.461 14.78 173.187 15.3 172.881 15.98C172.561 16.7 172.254 17.2733 171.961 17.7C171.681 18.1133 171.394 18.42 171.101 18.62C170.807 18.82 170.501 18.9467 170.181 19C169.874 19.0667 169.527 19.1 169.141 19.1ZM180.808 23.6L180.448 21.96C181.248 21.8533 181.982 21.7 182.648 21.5C183.328 21.3133 183.908 21.04 184.388 20.68C184.882 20.32 185.262 19.8467 185.528 19.26C185.795 18.6733 185.928 17.94 185.928 17.06C185.928 16.1533 185.762 15.4 185.428 14.8C185.095 14.2 184.662 13.9 184.128 13.9C183.848 13.9 183.588 14.0067 183.348 14.22C183.108 14.4333 182.908 14.72 182.748 15.08C182.602 15.44 182.528 15.8333 182.528 16.26C182.528 16.5 182.582 16.7 182.688 16.86C182.795 17.0067 182.948 17.1267 183.148 17.22C183.362 17.3 183.628 17.36 183.948 17.4C184.268 17.44 184.642 17.46 185.068 17.46H189.288C189.568 17.46 189.768 17.54 189.888 17.7C190.022 17.8467 190.088 18.0267 190.088 18.24C190.088 18.4533 189.995 18.6533 189.808 18.84C189.622 19.0133 189.382 19.1 189.088 19.1H184.308C183.708 19.1 183.148 19.0133 182.628 18.84C182.122 18.6667 181.708 18.4 181.388 18.04C181.082 17.6667 180.928 17.18 180.928 16.58C180.928 16.02 181.015 15.4867 181.188 14.98C181.362 14.46 181.595 14 181.888 13.6C182.195 13.1867 182.548 12.86 182.948 12.62C183.362 12.38 183.808 12.26 184.288 12.26C184.902 12.26 185.448 12.44 185.928 12.8C186.408 13.16 186.788 13.7067 187.068 14.44C187.348 15.16 187.488 16.0733 187.488 17.18C187.488 18.42 187.235 19.4867 186.728 20.38C186.235 21.2867 185.488 22.0067 184.488 22.54C183.502 23.0733 182.275 23.4267 180.808 23.6ZM189.082 19.1L189.262 17.46C190.022 17.46 190.555 17.3867 190.862 17.24C191.169 17.0933 191.342 16.8333 191.382 16.46C191.435 16.0867 191.449 15.5667 191.422 14.9L191.082 4.72H192.742L193.062 14.86C193.089 15.54 193.195 16.0733 193.382 16.46C193.582 16.8333 193.849 17.0933 194.182 17.24C194.515 17.3867 194.882 17.46 195.282 17.46C195.562 17.46 195.762 17.54 195.882 17.7C196.015 17.8467 196.082 18.0267 196.082 18.24C196.082 18.4533 195.989 18.6533 195.802 18.84C195.615 19.0133 195.375 19.1 195.082 19.1C194.522 19.1 194.055 19.0133 193.682 18.84C193.322 18.6533 193.035 18.42 192.822 18.14C192.622 17.8467 192.489 17.54 192.422 17.22L192.842 17.26C192.709 17.66 192.489 18 192.182 18.28C191.889 18.5467 191.489 18.7533 190.982 18.9C190.475 19.0333 189.842 19.1 189.082 19.1ZM195.078 19.1L195.278 17.46C196.078 17.46 196.831 17.3867 197.538 17.24C198.245 17.08 198.891 16.8733 199.478 16.62C200.078 16.3533 200.591 16.0533 201.018 15.72C201.445 15.3733 201.771 15.02 201.998 14.66C202.238 14.2867 202.358 13.92 202.358 13.56C202.358 13.3867 202.298 13.2133 202.178 13.04C202.058 12.8533 201.851 12.7 201.558 12.58C201.278 12.46 200.898 12.4 200.418 12.4C200.125 12.4 199.798 12.44 199.438 12.52C199.078 12.6 198.731 12.7133 198.398 12.86C198.078 12.9933 197.811 13.1467 197.598 13.32C197.958 13.6133 198.291 13.9 198.598 14.18C198.918 14.46 199.245 14.7667 199.578 15.1C199.911 15.42 200.271 15.7867 200.658 16.2C200.965 16.4267 201.305 16.62 201.678 16.78C202.065 16.94 202.478 17.0733 202.918 17.18C203.371 17.2733 203.831 17.3467 204.298 17.4C204.765 17.44 205.231 17.46 205.698 17.46C205.978 17.46 206.178 17.54 206.298 17.7C206.431 17.8467 206.498 18.0267 206.498 18.24C206.498 18.4533 206.405 18.6533 206.218 18.84C206.031 19.0133 205.791 19.1 205.498 19.1C204.765 19.1 204.011 19.0333 203.238 18.9C202.478 18.7533 201.765 18.54 201.098 18.26C200.431 17.9667 199.865 17.6 199.398 17.16C199.171 16.8667 198.918 16.5733 198.638 16.28C198.358 15.9867 198.051 15.6933 197.718 15.4C197.398 15.0933 197.051 14.8067 196.678 14.54C196.598 14.4733 196.518 14.3533 196.438 14.18C196.358 14.0067 196.291 13.8267 196.238 13.64C196.185 13.4533 196.158 13.3133 196.158 13.22C196.158 13.02 196.285 12.78 196.538 12.5C196.791 12.22 197.131 11.9533 197.558 11.7C197.985 11.4333 198.471 11.2133 199.018 11.04C199.565 10.8667 200.131 10.78 200.718 10.78C201.478 10.78 202.091 10.8933 202.558 11.12C203.038 11.3467 203.385 11.64 203.598 12C203.825 12.3467 203.938 12.72 203.938 13.12C203.938 13.7067 203.791 14.2933 203.498 14.88C203.205 15.4533 202.785 15.9933 202.238 16.5C201.691 17.0067 201.051 17.46 200.318 17.86C199.585 18.2467 198.771 18.5533 197.878 18.78C196.998 18.9933 196.065 19.1 195.078 19.1ZM205.508 19.1L205.708 17.46C206.081 17.46 206.394 17.38 206.648 17.22C206.901 17.06 207.148 16.7933 207.388 16.42C207.628 16.0467 207.888 15.5467 208.168 14.92C208.554 14.0667 208.934 13.42 209.308 12.98C209.694 12.54 210.074 12.24 210.448 12.08C210.834 11.92 211.214 11.84 211.588 11.84C212.041 11.84 212.461 11.96 212.848 12.2C213.234 12.4267 213.574 12.7333 213.868 13.12C214.161 13.5067 214.388 13.9333 214.548 14.4C214.721 14.8533 214.808 15.3067 214.808 15.76C214.808 16.56 214.668 17.2 214.388 17.68C214.108 18.1467 213.748 18.4867 213.308 18.7C212.881 18.9 212.434 19 211.968 19C211.554 19 211.021 18.92 210.368 18.76C209.728 18.6 208.914 18.1933 207.928 17.54L208.708 16.28C209.361 16.6933 209.948 16.98 210.468 17.14C211.001 17.2867 211.441 17.36 211.788 17.36C212.174 17.36 212.481 17.3067 212.708 17.2C212.934 17.08 213.101 16.9133 213.208 16.7C213.314 16.4867 213.368 16.2467 213.368 15.98C213.368 15.5933 213.274 15.2067 213.088 14.82C212.901 14.4333 212.661 14.1133 212.368 13.86C212.088 13.6067 211.788 13.48 211.468 13.48C211.228 13.48 210.994 13.5467 210.768 13.68C210.541 13.8133 210.308 14.06 210.068 14.42C209.828 14.78 209.554 15.3 209.248 15.98C208.928 16.7 208.621 17.2733 208.328 17.7C208.048 18.1133 207.761 18.42 207.468 18.62C207.174 18.82 206.868 18.9467 206.548 19C206.241 19.0667 205.894 19.1 205.508 19.1Z" fill="#116845"/>
<path d="M237 2C231.49 2 227 6.49 227 12C227 17.51 231.49 22 237 22C242.51 22 247 17.51 247 12C247 6.49 242.51 2 237 2ZM241.78 9.7L236.11 15.37C235.97 15.51 235.78 15.59 235.58 15.59C235.38 15.59 235.19 15.51 235.05 15.37L232.22 12.54C231.93 12.25 231.93 11.77 232.22 11.48C232.51 11.19 232.99 11.19 233.28 11.48L235.58 13.78L240.72 8.64C241.01 8.35 241.49 8.35 241.78 8.64C242.07 8.93 242.07 9.4 241.78 9.7Z" fill="#116845"/>
<path d="M269 2C263.49 2 259 6.49 259 12C259 17.51 263.49 22 269 22C274.51 22 279 17.51 279 12C279 6.49 274.51 2 269 2ZM273.78 9.7L268.11 15.37C267.97 15.51 267.78 15.59 267.58 15.59C267.38 15.59 267.19 15.51 267.05 15.37L264.22 12.54C263.93 12.25 263.93 11.77 264.22 11.48C264.51 11.19 264.99 11.19 265.28 11.48L267.58 13.78L272.72 8.64C273.01 8.35 273.49 8.35 273.78 8.64C274.07 8.93 274.07 9.4 273.78 9.7Z" fill="#9E9E9E"/>
<path d="M301 2C295.49 2 291 6.49 291 12C291 17.51 295.49 22 301 22C306.51 22 311 17.51 311 12C311 6.49 306.51 2 301 2ZM305.78 9.7L300.11 15.37C299.97 15.51 299.78 15.59 299.58 15.59C299.38 15.59 299.19 15.51 299.05 15.37L296.22 12.54C295.93 12.25 295.93 11.77 296.22 11.48C296.51 11.19 296.99 11.19 297.28 11.48L299.58 13.78L304.72 8.64C305.01 8.35 305.49 8.35 305.78 8.64C306.07 8.93 306.07 9.4 305.78 9.7Z" fill="#9E9E9E"/>
<path d="M333 2C327.49 2 323 6.49 323 12C323 17.51 327.49 22 333 22C338.51 22 343 17.51 343 12C343 6.49 338.51 2 333 2ZM337.78 9.7L332.11 15.37C331.97 15.51 331.78 15.59 331.58 15.59C331.38 15.59 331.19 15.51 331.05 15.37L328.22 12.54C327.93 12.25 327.93 11.77 328.22 11.48C328.51 11.19 328.99 11.19 329.28 11.48L331.58 13.78L336.72 8.64C337.01 8.35 337.49 8.35 337.78 8.64C338.07 8.93 338.07 9.4 337.78 9.7Z" fill="#9E9E9E"/>
</svg>
