<svg width="298" height="24" viewBox="0 0 298 24" fill="none" xmlns="http://www.w3.org/2000/svg">
<path d="M12 22C17.5 22 22 17.5 22 12C22 6.5 17.5 2 12 2C6.5 2 2 6.5 2 12C2 17.5 6.5 22 12 22Z" stroke="#9E9E9E" stroke-width="1.5" stroke-linecap="round" stroke-linejoin="round"/>
<path d="M7.75 11.9999L10.58 14.8299L16.25 9.16992" stroke="#9E9E9E" stroke-width="1.5" stroke-linecap="round" stroke-linejoin="round"/>
<path d="M44 22C49.5 22 54 17.5 54 12C54 6.5 49.5 2 44 2C38.5 2 34 6.5 34 12C34 17.5 38.5 22 44 22Z" stroke="#9E9E9E" stroke-width="1.5" stroke-linecap="round" stroke-linejoin="round"/>
<path d="M39.75 11.9999L42.58 14.8299L48.25 9.16992" stroke="#9E9E9E" stroke-width="1.5" stroke-linecap="round" stroke-linejoin="round"/>
<path d="M72.6 19.02C72.6 18.54 72.6667 18.0067 72.8 17.42C72.9333 16.8333 73.1467 16.1867 73.44 15.48L74.88 16.04C74.6667 16.6 74.5067 17.1133 74.4 17.58C74.2933 18.0467 74.24 18.48 74.24 18.88C74.24 19.6133 74.42 20.2067 74.78 20.66C75.1533 21.1267 75.6467 21.4667 76.26 21.68C76.8867 21.8933 77.5733 22 78.32 22C79.2267 22 79.9867 21.9 80.6 21.7C81.2133 21.5133 81.7 21.2533 82.06 20.92C82.42 20.5867 82.6733 20.2067 82.82 19.78C82.98 19.3667 83.06 18.9333 83.06 18.48C83.06 17.8933 83.0133 17.34 82.92 16.82C82.84 16.3 82.7267 15.7933 82.58 15.3C82.4467 14.7933 82.3 14.28 82.14 13.76L83.76 13.32C83.9067 13.8267 84.02 14.24 84.1 14.56C84.18 14.8667 84.24 15.1133 84.28 15.3C84.3333 15.4867 84.38 15.6533 84.42 15.8C84.5667 16.2933 84.76 16.66 85 16.9C85.24 17.1267 85.5133 17.28 85.82 17.36C86.14 17.4267 86.4667 17.46 86.8 17.46C87.08 17.46 87.28 17.54 87.4 17.7C87.5333 17.8467 87.6 18.0267 87.6 18.24C87.6 18.4533 87.5067 18.6533 87.32 18.84C87.1333 19.0133 86.8933 19.1 86.6 19.1C86.04 19.1 85.5733 19.0067 85.2 18.82C84.8267 18.62 84.5333 18.3733 84.32 18.08C84.12 17.7867 83.9867 17.48 83.92 17.16L84.74 18.18C84.7 18.86 84.5667 19.52 84.34 20.16C84.1267 20.8133 83.78 21.4 83.3 21.92C82.82 22.4533 82.1667 22.8733 81.34 23.18C80.5267 23.4867 79.5 23.64 78.26 23.64C77.5 23.64 76.78 23.5467 76.1 23.36C75.42 23.1733 74.8133 22.8867 74.28 22.5C73.76 22.1267 73.3467 21.6467 73.04 21.06C72.7467 20.4867 72.6 19.8067 72.6 19.02ZM78.64 11.04C78.36 11.04 78.12 10.9467 77.92 10.76C77.7333 10.56 77.64 10.3267 77.64 10.06C77.64 9.79333 77.7333 9.56 77.92 9.36C78.12 9.16 78.36 9.06 78.64 9.06C78.9067 9.06 79.1333 9.16 79.32 9.36C79.52 9.56 79.62 9.79333 79.62 10.06C79.62 10.3267 79.52 10.56 79.32 10.76C79.1333 10.9467 78.9067 11.04 78.64 11.04ZM86.6094 19.1L86.8094 17.46H88.3494C89.456 17.46 90.276 17.4 90.8094 17.28C91.3427 17.16 91.6894 17 91.8494 16.8C92.0227 16.6 92.1094 16.3933 92.1094 16.18C92.1094 15.86 91.9894 15.5067 91.7494 15.12C91.5094 14.7333 91.2027 14.34 90.8294 13.94C90.456 13.5267 90.056 13.12 89.6294 12.72C89.216 12.32 88.8227 11.9533 88.4494 11.62C88.076 11.2867 87.7694 11 87.5294 10.76C87.2894 10.5067 87.1694 10.3267 87.1694 10.22C87.1694 10.02 87.1827 9.82667 87.2094 9.64C87.2494 9.45333 87.296 9.28 87.3494 9.12C87.416 8.96 87.496 8.83333 87.5894 8.74C87.856 8.46 88.2227 8.16667 88.6894 7.86C89.156 7.54 89.696 7.22 90.3094 6.9C90.9227 6.56667 91.576 6.23333 92.2694 5.9C92.9627 5.55333 93.6627 5.20667 94.3694 4.86L95.0494 6.34C94.4094 6.66 93.7694 6.98 93.1294 7.3C92.4894 7.60667 91.8694 7.91333 91.2694 8.22C90.6694 8.52667 90.1027 8.84 89.5694 9.16C89.0494 9.46667 88.576 9.78 88.1494 10.1L88.2694 9.42C88.8694 9.92667 89.436 10.4133 89.9694 10.88C90.5027 11.3467 91.0094 11.8267 91.4894 12.32C91.9694 12.8 92.416 13.32 92.8294 13.88C93.2427 14.44 93.6294 15.06 93.9894 15.74C94.2694 16.26 94.596 16.64 94.9694 16.88C95.3427 17.12 95.7094 17.28 96.0694 17.36C96.4427 17.4267 96.7427 17.46 96.9694 17.46C97.2494 17.46 97.4494 17.54 97.5694 17.7C97.7027 17.8467 97.7694 18.0267 97.7694 18.24C97.7694 18.4533 97.676 18.6533 97.4894 18.84C97.3027 19.0133 97.0627 19.1 96.7694 19.1C96.4094 19.1 95.9827 19.0467 95.4894 18.94C95.0094 18.82 94.536 18.5933 94.0694 18.26C93.6027 17.9267 93.216 17.42 92.9094 16.74L93.5094 16.98C93.3094 17.34 93.076 17.6533 92.8094 17.92C92.556 18.1733 92.2294 18.3933 91.8294 18.58C91.4294 18.7533 90.9427 18.8867 90.3694 18.98C89.796 19.06 89.096 19.1 88.2694 19.1H86.6094ZM96.7656 19.1L96.9656 17.46C97.3923 17.46 97.739 17.4333 98.0056 17.38C98.2723 17.3133 98.4923 17.16 98.6656 16.92C98.8523 16.6667 99.0256 16.2733 99.1856 15.74C99.3456 15.2067 99.5323 14.46 99.7456 13.5L101.246 13.92C101.166 14.2533 101.072 14.6533 100.966 15.12C100.859 15.5867 100.806 16.0133 100.806 16.4C100.806 16.6133 100.859 16.8 100.966 16.96C101.072 17.12 101.252 17.2467 101.506 17.34C101.772 17.42 102.126 17.46 102.566 17.46C102.966 17.46 103.292 17.4267 103.546 17.36C103.799 17.2933 104.006 17.1333 104.166 16.88C104.339 16.6267 104.492 16.22 104.626 15.66C104.759 15.1 104.899 14.3333 105.046 13.36L106.566 13.64C106.526 13.88 106.479 14.1733 106.426 14.52C106.372 14.8667 106.319 15.2133 106.266 15.56C106.226 15.8933 106.206 16.1733 106.206 16.4C106.206 16.5867 106.246 16.7667 106.326 16.94C106.419 17.1 106.592 17.2267 106.846 17.32C107.112 17.4133 107.506 17.46 108.026 17.46C108.692 17.46 109.172 17.32 109.466 17.04C109.772 16.76 109.926 16.3333 109.926 15.76C109.926 15.4533 109.919 15.1333 109.906 14.8C109.892 14.4533 109.866 14.0733 109.826 13.66C109.799 13.2333 109.752 12.7467 109.686 12.2L111.146 12.1C111.226 13.18 111.312 14.0667 111.406 14.76C111.512 15.4533 111.659 16 111.846 16.4C112.046 16.7867 112.312 17.06 112.646 17.22C112.979 17.38 113.419 17.46 113.966 17.46C114.246 17.46 114.446 17.54 114.566 17.7C114.699 17.8467 114.766 18.0267 114.766 18.24C114.766 18.4533 114.672 18.6533 114.486 18.84C114.299 19.0133 114.059 19.1 113.766 19.1C113.312 19.1 112.906 19.04 112.546 18.92C112.199 18.7867 111.892 18.6133 111.626 18.4C111.372 18.1733 111.159 17.92 110.986 17.64C110.826 17.3467 110.712 17.04 110.646 16.72L111.006 16.84C110.859 17.44 110.626 17.9067 110.306 18.24C109.999 18.56 109.632 18.7867 109.206 18.92C108.779 19.04 108.326 19.1 107.846 19.1C107.259 19.1 106.779 19.0267 106.406 18.88C106.032 18.7333 105.739 18.5133 105.526 18.22C105.326 17.9133 105.192 17.5267 105.126 17.06H105.806C105.552 17.6333 105.286 18.0667 105.006 18.36C104.726 18.6533 104.379 18.8533 103.966 18.96C103.552 19.0533 103.006 19.1 102.326 19.1C101.992 19.1 101.632 19.0467 101.246 18.94C100.872 18.8333 100.546 18.6267 100.266 18.32C99.9856 18 99.819 17.5267 99.7656 16.9L100.366 16.78C100.139 17.46 99.859 17.9667 99.5256 18.3C99.2056 18.62 98.819 18.8333 98.3656 18.94C97.9123 19.0467 97.379 19.1 96.7656 19.1ZM113.758 19.1L113.938 17.46C114.698 17.46 115.231 17.3867 115.538 17.24C115.844 17.0933 116.018 16.8333 116.058 16.46C116.111 16.0867 116.124 15.5667 116.098 14.9L115.718 4.72H117.338L117.738 14.72C117.764 15.4267 117.738 16.0533 117.658 16.6C117.591 17.1467 117.418 17.6067 117.138 17.98C116.871 18.3533 116.464 18.6333 115.918 18.82C115.384 19.0067 114.664 19.1 113.758 19.1ZM120.793 19L120.393 4.72H122.013L122.413 19H120.793ZM136.812 19.42L137.332 17.78C138.892 17.78 140.232 17.74 141.352 17.66C142.485 17.58 143.412 17.4533 144.132 17.28C144.865 17.0933 145.405 16.8467 145.752 16.54C146.112 16.22 146.292 15.8333 146.292 15.38C146.292 14.8733 146.198 14.2867 146.012 13.62C145.825 12.9533 145.585 12.24 145.292 11.48L146.832 10.94C147.005 11.3667 147.165 11.8267 147.312 12.32C147.472 12.8 147.605 13.28 147.712 13.76C147.818 14.2267 147.872 14.66 147.872 15.06C147.872 15.8467 147.692 16.52 147.332 17.08C146.972 17.6267 146.372 18.0733 145.532 18.42C144.692 18.7667 143.558 19.02 142.132 19.18C140.718 19.34 138.945 19.42 136.812 19.42ZM136.812 19.42C135.625 19.42 134.578 19.34 133.672 19.18C132.778 19.0333 132.032 18.8 131.432 18.48C130.832 18.16 130.378 17.7467 130.072 17.24C129.765 16.72 129.612 16.0933 129.612 15.36C129.612 15.0267 129.638 14.6867 129.692 14.34C129.745 13.98 129.812 13.62 129.892 13.26C129.985 12.9 130.078 12.5533 130.172 12.22L131.672 12.6C131.618 12.8 131.558 13.04 131.492 13.32C131.425 13.5867 131.365 13.86 131.312 14.14C131.272 14.42 131.252 14.6733 131.252 14.9C131.252 15.5933 131.425 16.1533 131.772 16.58C132.132 16.9933 132.752 17.3 133.632 17.5C134.512 17.6867 135.745 17.78 137.332 17.78L137.732 18.78L136.812 19.42ZM140.152 10.98C139.872 10.98 139.632 10.8867 139.432 10.7C139.245 10.5 139.152 10.2667 139.152 10C139.152 9.73333 139.245 9.5 139.432 9.3C139.632 9.1 139.872 9 140.152 9C140.418 9 140.645 9.1 140.832 9.3C141.032 9.5 141.132 9.73333 141.132 10C141.132 10.2667 141.032 10.5 140.832 10.7C140.645 10.8867 140.418 10.98 140.152 10.98ZM137.412 10.98C137.132 10.98 136.892 10.8867 136.692 10.7C136.505 10.5 136.412 10.2667 136.412 10C136.412 9.73333 136.505 9.5 136.692 9.3C136.892 9.1 137.132 9 137.412 9C137.678 9 137.905 9.1 138.092 9.3C138.292 9.5 138.392 9.73333 138.392 10C138.392 10.2667 138.292 10.5 138.092 10.7C137.905 10.8867 137.678 10.98 137.412 10.98ZM154.695 19.1C153.628 19.1 152.808 18.98 152.235 18.74C151.675 18.5 151.288 18.1267 151.075 17.62C150.862 17.1133 150.742 16.46 150.715 15.66L150.315 4.72H151.955L152.355 15.02C152.382 15.6733 152.442 16.18 152.535 16.54C152.642 16.8867 152.868 17.1267 153.215 17.26C153.575 17.3933 154.135 17.46 154.895 17.46C155.175 17.46 155.375 17.54 155.495 17.7C155.628 17.8467 155.695 18.0267 155.695 18.24C155.695 18.4533 155.602 18.6533 155.415 18.84C155.228 19.0133 154.988 19.1 154.695 19.1ZM154.695 19.1L154.895 17.46C155.269 17.46 155.582 17.38 155.835 17.22C156.089 17.06 156.335 16.7933 156.575 16.42C156.815 16.0467 157.075 15.5467 157.355 14.92C157.742 14.0667 158.122 13.42 158.495 12.98C158.882 12.54 159.262 12.24 159.635 12.08C160.022 11.92 160.402 11.84 160.775 11.84C161.229 11.84 161.649 11.96 162.035 12.2C162.422 12.4267 162.762 12.7333 163.055 13.12C163.349 13.5067 163.575 13.9333 163.735 14.4C163.909 14.8533 163.995 15.3067 163.995 15.76C163.995 16.56 163.855 17.2 163.575 17.68C163.295 18.1467 162.935 18.4867 162.495 18.7C162.069 18.9 161.622 19 161.155 19C160.742 19 160.209 18.92 159.555 18.76C158.915 18.6 158.102 18.1933 157.115 17.54L157.895 16.28C158.549 16.6933 159.135 16.98 159.655 17.14C160.189 17.2867 160.629 17.36 160.975 17.36C161.362 17.36 161.669 17.3067 161.895 17.2C162.122 17.08 162.289 16.9133 162.395 16.7C162.502 16.4867 162.555 16.2467 162.555 15.98C162.555 15.5933 162.462 15.2067 162.275 14.82C162.089 14.4333 161.849 14.1133 161.555 13.86C161.275 13.6067 160.975 13.48 160.655 13.48C160.415 13.48 160.182 13.5467 159.955 13.68C159.729 13.8133 159.495 14.06 159.255 14.42C159.015 14.78 158.742 15.3 158.435 15.98C158.115 16.7 157.809 17.2733 157.515 17.7C157.235 18.1133 156.949 18.42 156.655 18.62C156.362 18.82 156.055 18.9467 155.735 19C155.429 19.0667 155.082 19.1 154.695 19.1ZM166.363 23.6L166.003 21.96C166.803 21.8533 167.536 21.7 168.203 21.5C168.883 21.3133 169.463 21.04 169.943 20.68C170.436 20.32 170.816 19.8467 171.083 19.26C171.35 18.6733 171.483 17.94 171.483 17.06C171.483 16.1533 171.316 15.4 170.983 14.8C170.65 14.2 170.216 13.9 169.683 13.9C169.403 13.9 169.143 14.0067 168.903 14.22C168.663 14.4333 168.463 14.72 168.303 15.08C168.156 15.44 168.083 15.8333 168.083 16.26C168.083 16.5 168.136 16.7 168.243 16.86C168.35 17.0067 168.503 17.1267 168.703 17.22C168.916 17.3 169.183 17.36 169.503 17.4C169.823 17.44 170.196 17.46 170.623 17.46H174.843C175.123 17.46 175.323 17.54 175.443 17.7C175.576 17.8467 175.643 18.0267 175.643 18.24C175.643 18.4533 175.55 18.6533 175.363 18.84C175.176 19.0133 174.936 19.1 174.643 19.1H169.863C169.263 19.1 168.703 19.0133 168.183 18.84C167.676 18.6667 167.263 18.4 166.943 18.04C166.636 17.6667 166.483 17.18 166.483 16.58C166.483 16.02 166.57 15.4867 166.743 14.98C166.916 14.46 167.15 14 167.443 13.6C167.75 13.1867 168.103 12.86 168.503 12.62C168.916 12.38 169.363 12.26 169.843 12.26C170.456 12.26 171.003 12.44 171.483 12.8C171.963 13.16 172.343 13.7067 172.623 14.44C172.903 15.16 173.043 16.0733 173.043 17.18C173.043 18.42 172.79 19.4867 172.283 20.38C171.79 21.2867 171.043 22.0067 170.043 22.54C169.056 23.0733 167.83 23.4267 166.363 23.6ZM174.637 19.1L174.817 17.46C175.577 17.46 176.11 17.3867 176.417 17.24C176.723 17.0933 176.897 16.8333 176.937 16.46C176.99 16.0867 177.003 15.5667 176.977 14.9L176.637 4.72H178.297L178.617 14.86C178.643 15.54 178.75 16.0733 178.937 16.46C179.137 16.8333 179.403 17.0933 179.737 17.24C180.07 17.3867 180.437 17.46 180.837 17.46C181.117 17.46 181.317 17.54 181.437 17.7C181.57 17.8467 181.637 18.0267 181.637 18.24C181.637 18.4533 181.543 18.6533 181.357 18.84C181.17 19.0133 180.93 19.1 180.637 19.1C180.077 19.1 179.61 19.0133 179.237 18.84C178.877 18.6533 178.59 18.42 178.377 18.14C178.177 17.8467 178.043 17.54 177.977 17.22L178.397 17.26C178.263 17.66 178.043 18 177.737 18.28C177.443 18.5467 177.043 18.7533 176.537 18.9C176.03 19.0333 175.397 19.1 174.637 19.1ZM180.633 19.1L180.833 17.46C181.633 17.46 182.386 17.3867 183.093 17.24C183.799 17.08 184.446 16.8733 185.033 16.62C185.633 16.3533 186.146 16.0533 186.573 15.72C186.999 15.3733 187.326 15.02 187.553 14.66C187.793 14.2867 187.913 13.92 187.913 13.56C187.913 13.3867 187.853 13.2133 187.733 13.04C187.613 12.8533 187.406 12.7 187.113 12.58C186.833 12.46 186.453 12.4 185.973 12.4C185.679 12.4 185.353 12.44 184.993 12.52C184.633 12.6 184.286 12.7133 183.953 12.86C183.633 12.9933 183.366 13.1467 183.153 13.32C183.513 13.6133 183.846 13.9 184.153 14.18C184.473 14.46 184.799 14.7667 185.133 15.1C185.466 15.42 185.826 15.7867 186.213 16.2C186.519 16.4267 186.859 16.62 187.233 16.78C187.619 16.94 188.033 17.0733 188.473 17.18C188.926 17.2733 189.386 17.3467 189.853 17.4C190.319 17.44 190.786 17.46 191.253 17.46C191.533 17.46 191.733 17.54 191.853 17.7C191.986 17.8467 192.053 18.0267 192.053 18.24C192.053 18.4533 191.959 18.6533 191.773 18.84C191.586 19.0133 191.346 19.1 191.053 19.1C190.319 19.1 189.566 19.0333 188.793 18.9C188.033 18.7533 187.319 18.54 186.653 18.26C185.986 17.9667 185.419 17.6 184.953 17.16C184.726 16.8667 184.473 16.5733 184.193 16.28C183.913 15.9867 183.606 15.6933 183.273 15.4C182.953 15.0933 182.606 14.8067 182.233 14.54C182.153 14.4733 182.073 14.3533 181.993 14.18C181.913 14.0067 181.846 13.8267 181.793 13.64C181.739 13.4533 181.713 13.3133 181.713 13.22C181.713 13.02 181.839 12.78 182.093 12.5C182.346 12.22 182.686 11.9533 183.113 11.7C183.539 11.4333 184.026 11.2133 184.573 11.04C185.119 10.8667 185.686 10.78 186.273 10.78C187.033 10.78 187.646 10.8933 188.113 11.12C188.593 11.3467 188.939 11.64 189.153 12C189.379 12.3467 189.493 12.72 189.493 13.12C189.493 13.7067 189.346 14.2933 189.053 14.88C188.759 15.4533 188.339 15.9933 187.793 16.5C187.246 17.0067 186.606 17.46 185.873 17.86C185.139 18.2467 184.326 18.5533 183.433 18.78C182.553 18.9933 181.619 19.1 180.633 19.1ZM191.062 19.1L191.263 17.46C191.636 17.46 191.949 17.38 192.203 17.22C192.456 17.06 192.703 16.7933 192.943 16.42C193.183 16.0467 193.443 15.5467 193.723 14.92C194.109 14.0667 194.489 13.42 194.863 12.98C195.249 12.54 195.629 12.24 196.003 12.08C196.389 11.92 196.769 11.84 197.143 11.84C197.596 11.84 198.016 11.96 198.403 12.2C198.789 12.4267 199.129 12.7333 199.423 13.12C199.716 13.5067 199.943 13.9333 200.103 14.4C200.276 14.8533 200.363 15.3067 200.363 15.76C200.363 16.56 200.223 17.2 199.943 17.68C199.663 18.1467 199.303 18.4867 198.863 18.7C198.436 18.9 197.989 19 197.523 19C197.109 19 196.576 18.92 195.923 18.76C195.283 18.6 194.469 18.1933 193.483 17.54L194.263 16.28C194.916 16.6933 195.503 16.98 196.023 17.14C196.556 17.2867 196.996 17.36 197.343 17.36C197.729 17.36 198.036 17.3067 198.263 17.2C198.489 17.08 198.656 16.9133 198.763 16.7C198.869 16.4867 198.923 16.2467 198.923 15.98C198.923 15.5933 198.829 15.2067 198.643 14.82C198.456 14.4333 198.216 14.1133 197.923 13.86C197.643 13.6067 197.343 13.48 197.023 13.48C196.783 13.48 196.549 13.5467 196.323 13.68C196.096 13.8133 195.863 14.06 195.623 14.42C195.383 14.78 195.109 15.3 194.803 15.98C194.483 16.7 194.176 17.2733 193.883 17.7C193.603 18.1133 193.316 18.42 193.023 18.62C192.729 18.82 192.423 18.9467 192.103 19C191.796 19.0667 191.449 19.1 191.062 19.1Z" fill="#116845"/>
<path d="M222 2C216.49 2 212 6.49 212 12C212 17.51 216.49 22 222 22C227.51 22 232 17.51 232 12C232 6.49 227.51 2 222 2ZM226.78 9.7L221.11 15.37C220.97 15.51 220.78 15.59 220.58 15.59C220.38 15.59 220.19 15.51 220.05 15.37L217.22 12.54C216.93 12.25 216.93 11.77 217.22 11.48C217.51 11.19 217.99 11.19 218.28 11.48L220.58 13.78L225.72 8.64C226.01 8.35 226.49 8.35 226.78 8.64C227.07 8.93 227.07 9.4 226.78 9.7Z" fill="#116845"/>
<path d="M254 2C248.49 2 244 6.49 244 12C244 17.51 248.49 22 254 22C259.51 22 264 17.51 264 12C264 6.49 259.51 2 254 2ZM258.78 9.7L253.11 15.37C252.97 15.51 252.78 15.59 252.58 15.59C252.38 15.59 252.19 15.51 252.05 15.37L249.22 12.54C248.93 12.25 248.93 11.77 249.22 11.48C249.51 11.19 249.99 11.19 250.28 11.48L252.58 13.78L257.72 8.64C258.01 8.35 258.49 8.35 258.78 8.64C259.07 8.93 259.07 9.4 258.78 9.7Z" fill="#9E9E9E"/>
<path d="M286 2C280.49 2 276 6.49 276 12C276 17.51 280.49 22 286 22C291.51 22 296 17.51 296 12C296 6.49 291.51 2 286 2ZM290.78 9.7L285.11 15.37C284.97 15.51 284.78 15.59 284.58 15.59C284.38 15.59 284.19 15.51 284.05 15.37L281.22 12.54C280.93 12.25 280.93 11.77 281.22 11.48C281.51 11.19 281.99 11.19 282.28 11.48L284.58 13.78L289.72 8.64C290.01 8.35 290.49 8.35 290.78 8.64C291.07 8.93 291.07 9.4 290.78 9.7Z" fill="#9E9E9E"/>
</svg>
