<svg width="91" height="90" viewBox="0 0 91 90" fill="none" xmlns="http://www.w3.org/2000/svg">
<path d="M82.875 79.6875C82.875 81.225 81.6 82.5 80.0625 82.5H10.6875C9.15 82.5 7.875 81.225 7.875 79.6875C7.875 78.15 9.15 76.875 10.6875 76.875H80.0625C81.6 76.875 82.875 78.15 82.875 79.6875Z" fill="#062418"/>
<path d="M58.0875 16.95L17.8125 57.225C16.275 58.7625 13.8 58.7625 12.3 57.225H12.2625C7.04999 51.975 7.04999 43.5 12.2625 38.2875L39.075 11.475C44.325 6.22498 52.8 6.22498 58.05 11.475C59.5875 12.9375 59.5875 15.45 58.0875 16.95Z" fill="#062418"/>
<path d="M78.45 31.8375L67.0125 20.4C65.475 18.8625 63 18.8625 61.5 20.4L21.225 60.675C19.6875 62.175 19.6875 64.65 21.225 66.1875L32.6625 77.6625C37.9125 82.875 46.3875 82.875 51.6375 77.6625L78.4125 50.85C83.7375 45.6 83.7375 37.0875 78.45 31.8375ZM48.225 65.7L43.6875 70.275C42.75 71.2125 41.2125 71.2125 40.2375 70.275C39.3 69.3375 39.3 67.8 40.2375 66.825L44.8125 62.25C45.7125 61.35 47.2875 61.35 48.225 62.25C49.1625 63.1875 49.1625 64.8 48.225 65.7ZM63.1125 50.8125L53.9625 60C53.025 60.9 51.4875 60.9 50.5125 60C49.575 59.0625 49.575 57.525 50.5125 56.55L59.7 47.3625C60.6 46.4625 62.175 46.4625 63.1125 47.3625C64.05 48.3375 64.05 49.875 63.1125 50.8125Z" fill="#062418"/>
</svg>
