<svg width="292" height="24" viewBox="0 0 292 24" fill="none" xmlns="http://www.w3.org/2000/svg">
<path d="M12 22C17.5 22 22 17.5 22 12C22 6.5 17.5 2 12 2C6.5 2 2 6.5 2 12C2 17.5 6.5 22 12 22Z" stroke="#9E9E9E" stroke-width="1.5" stroke-linecap="round" stroke-linejoin="round"/>
<path d="M7.75 11.9999L10.58 14.8299L16.25 9.16992" stroke="#9E9E9E" stroke-width="1.5" stroke-linecap="round" stroke-linejoin="round"/>
<path d="M44 22C49.5 22 54 17.5 54 12C54 6.5 49.5 2 44 2C38.5 2 34 6.5 34 12C34 17.5 38.5 22 44 22Z" stroke="#9E9E9E" stroke-width="1.5" stroke-linecap="round" stroke-linejoin="round"/>
<path d="M39.75 11.9999L42.58 14.8299L48.25 9.16992" stroke="#9E9E9E" stroke-width="1.5" stroke-linecap="round" stroke-linejoin="round"/>
<path d="M76 22C81.5 22 86 17.5 86 12C86 6.5 81.5 2 76 2C70.5 2 66 6.5 66 12C66 17.5 70.5 22 76 22Z" stroke="#9E9E9E" stroke-width="1.5" stroke-linecap="round" stroke-linejoin="round"/>
<path d="M71.75 11.9999L74.58 14.8299L80.25 9.16992" stroke="#9E9E9E" stroke-width="1.5" stroke-linecap="round" stroke-linejoin="round"/>
<path d="M113.72 19.1C113 19.1 112.36 19 111.8 18.8C111.253 18.5867 110.813 18.2333 110.48 17.74C110.16 17.2333 109.98 16.5333 109.94 15.64L109.62 8.68H111.24L111.56 15.28C111.6 15.9067 111.713 16.38 111.9 16.7C112.087 17.0067 112.347 17.2133 112.68 17.32C113.027 17.4133 113.44 17.46 113.92 17.46C114.2 17.46 114.4 17.54 114.52 17.7C114.653 17.8467 114.72 18.0267 114.72 18.24C114.72 18.4533 114.627 18.6533 114.44 18.84C114.253 19.0133 114.013 19.1 113.72 19.1ZM110.7 16.9C109.94 17.14 109.2 17.26 108.48 17.26C107.76 17.26 107.107 17.1533 106.52 16.94C105.933 16.7267 105.467 16.42 105.12 16.02C104.773 15.6067 104.6 15.1133 104.6 14.54C104.6 13.98 104.74 13.4533 105.02 12.96C105.313 12.4667 105.707 12.0267 106.2 11.64C106.707 11.2533 107.287 10.9333 107.94 10.68C108.607 10.4133 109.313 10.2333 110.06 10.14L110.34 11.82C109.673 11.8467 109.08 11.94 108.56 12.1C108.053 12.2467 107.62 12.44 107.26 12.68C106.913 12.92 106.647 13.18 106.46 13.46C106.273 13.74 106.18 14.0133 106.18 14.28C106.18 14.5733 106.287 14.8133 106.5 15C106.713 15.1867 106.987 15.3333 107.32 15.44C107.653 15.5333 108.02 15.5933 108.42 15.62C108.82 15.6333 109.207 15.62 109.58 15.58C109.953 15.5267 110.273 15.4533 110.54 15.36L110.7 16.9ZM110.28 6.38C110 6.38 109.76 6.28667 109.56 6.1C109.373 5.9 109.28 5.66667 109.28 5.4C109.28 5.13333 109.373 4.9 109.56 4.7C109.76 4.5 110 4.4 110.28 4.4C110.547 4.4 110.773 4.5 110.96 4.7C111.16 4.9 111.26 5.13333 111.26 5.4C111.26 5.66667 111.16 5.9 110.96 6.1C110.773 6.28667 110.547 6.38 110.28 6.38ZM107.54 6.38C107.26 6.38 107.02 6.28667 106.82 6.1C106.633 5.9 106.54 5.66667 106.54 5.4C106.54 5.13333 106.633 4.9 106.82 4.7C107.02 4.5 107.26 4.4 107.54 4.4C107.807 4.4 108.033 4.5 108.22 4.7C108.42 4.9 108.52 5.13333 108.52 5.4C108.52 5.66667 108.42 5.9 108.22 6.1C108.033 6.28667 107.807 6.38 107.54 6.38ZM113.727 19.1L113.927 17.46C114.713 17.46 115.327 17.4333 115.767 17.38C116.207 17.3133 116.52 17.16 116.707 16.92C116.893 16.6667 116.987 16.2733 116.987 15.74C116.987 15.4067 116.933 15.0133 116.827 14.56C116.72 14.0933 116.58 13.6 116.407 13.08C116.233 12.56 116.047 12.0467 115.847 11.54L117.467 10.94C117.64 11.3667 117.8 11.8533 117.947 12.4C118.107 12.9467 118.24 13.4867 118.347 14.02C118.453 14.5533 118.507 15.02 118.507 15.42C118.507 16.0867 118.413 16.6533 118.227 17.12C118.053 17.5867 117.773 17.9667 117.387 18.26C117 18.5533 116.5 18.7667 115.887 18.9C115.287 19.0333 114.567 19.1 113.727 19.1ZM117.427 22.88C117.147 22.88 116.907 22.78 116.707 22.58C116.52 22.3933 116.427 22.1667 116.427 21.9C116.427 21.6333 116.52 21.4 116.707 21.2C116.907 21 117.147 20.9 117.427 20.9C117.693 20.9 117.92 21 118.107 21.2C118.307 21.4 118.407 21.6333 118.407 21.9C118.407 22.1667 118.307 22.3933 118.107 22.58C117.92 22.78 117.693 22.88 117.427 22.88ZM114.687 22.88C114.407 22.88 114.167 22.78 113.967 22.58C113.78 22.3933 113.687 22.1667 113.687 21.9C113.687 21.6333 113.78 21.4 113.967 21.2C114.167 21 114.407 20.9 114.687 20.9C114.953 20.9 115.18 21 115.367 21.2C115.567 21.4 115.667 21.6333 115.667 21.9C115.667 22.1667 115.567 22.3933 115.367 22.58C115.18 22.78 114.953 22.88 114.687 22.88ZM120.863 23.6L120.503 21.96C121.303 21.8533 122.036 21.7 122.703 21.5C123.383 21.3133 123.963 21.04 124.443 20.68C124.936 20.32 125.316 19.8467 125.583 19.26C125.85 18.6733 125.983 17.94 125.983 17.06C125.983 16.1533 125.816 15.4 125.483 14.8C125.15 14.2 124.716 13.9 124.183 13.9C123.903 13.9 123.643 14.0067 123.403 14.22C123.163 14.4333 122.963 14.72 122.803 15.08C122.656 15.44 122.583 15.8333 122.583 16.26C122.583 16.5 122.636 16.7 122.743 16.86C122.85 17.0067 123.003 17.1267 123.203 17.22C123.416 17.3 123.683 17.36 124.003 17.4C124.323 17.44 124.696 17.46 125.123 17.46H129.343C129.623 17.46 129.823 17.54 129.943 17.7C130.076 17.8467 130.143 18.0267 130.143 18.24C130.143 18.4533 130.05 18.6533 129.863 18.84C129.676 19.0133 129.436 19.1 129.143 19.1H124.363C123.763 19.1 123.203 19.0133 122.683 18.84C122.176 18.6667 121.763 18.4 121.443 18.04C121.136 17.6667 120.983 17.18 120.983 16.58C120.983 16.02 121.07 15.4867 121.243 14.98C121.416 14.46 121.65 14 121.943 13.6C122.25 13.1867 122.603 12.86 123.003 12.62C123.416 12.38 123.863 12.26 124.343 12.26C124.956 12.26 125.503 12.44 125.983 12.8C126.463 13.16 126.843 13.7067 127.123 14.44C127.403 15.16 127.543 16.0733 127.543 17.18C127.543 18.42 127.29 19.4867 126.783 20.38C126.29 21.2867 125.543 22.0067 124.543 22.54C123.556 23.0733 122.33 23.4267 120.863 23.6ZM135.277 23.34C134.437 23.34 133.677 23.1467 132.997 22.76C132.317 22.3733 131.777 21.7867 131.377 21C130.977 20.2267 130.777 19.2533 130.777 18.08C130.777 17 130.903 16.0067 131.157 15.1C131.41 14.1933 131.743 13.4133 132.157 12.76C132.583 12.0933 133.05 11.58 133.557 11.22C134.063 10.86 134.563 10.68 135.057 10.68C135.497 10.68 135.89 10.8067 136.237 11.06C136.583 11.3133 136.857 11.6667 137.057 12.12C137.257 12.5733 137.357 13.1133 137.357 13.74C137.357 14.3 137.27 14.86 137.097 15.42C136.923 15.98 136.597 16.4867 136.117 16.94C135.65 17.3933 134.977 17.74 134.097 17.98L135.397 16.88C135.823 16.9867 136.25 17.0867 136.677 17.18C137.117 17.26 137.563 17.3267 138.017 17.38C138.483 17.4333 138.97 17.46 139.477 17.46C139.757 17.46 139.957 17.54 140.077 17.7C140.21 17.8467 140.277 18.0267 140.277 18.24C140.277 18.4533 140.183 18.6533 139.997 18.84C139.81 19.0133 139.57 19.1 139.277 19.1C138.917 19.1 138.53 19.08 138.117 19.04C137.703 19 137.29 18.9533 136.877 18.9C136.463 18.8333 136.07 18.76 135.697 18.68L137.437 18.62C137.77 18.98 137.997 19.3667 138.117 19.78C138.25 20.2067 138.283 20.6267 138.217 21.04C138.163 21.4667 138.01 21.8533 137.757 22.2C137.517 22.5467 137.19 22.82 136.777 23.02C136.363 23.2333 135.863 23.34 135.277 23.34ZM129.137 19.1L129.337 17.46C129.617 17.46 129.897 17.46 130.177 17.46C130.457 17.46 130.723 17.4533 130.977 17.44L131.057 18.92C130.75 18.9733 130.43 19.0133 130.097 19.04C129.777 19.08 129.457 19.1 129.137 19.1ZM135.317 21.7C135.557 21.7 135.79 21.6533 136.017 21.56C136.257 21.48 136.45 21.3333 136.597 21.12C136.757 20.92 136.837 20.6467 136.837 20.3C136.837 19.9667 136.75 19.66 136.577 19.38C136.417 19.1133 136.13 18.8933 135.717 18.72C135.303 18.5467 134.717 18.46 133.957 18.46C133.797 18.46 133.617 18.4733 133.417 18.5C133.23 18.5133 133.037 18.54 132.837 18.58C132.637 18.6067 132.43 18.6467 132.217 18.7V17.34C132.723 17.2733 133.183 17.1733 133.597 17.04C134.023 16.8933 134.397 16.6933 134.717 16.44C135.037 16.1867 135.283 15.8533 135.457 15.44C135.63 15.0267 135.717 14.52 135.717 13.92C135.717 13.72 135.69 13.4933 135.637 13.24C135.597 12.9867 135.517 12.7733 135.397 12.6C135.277 12.4133 135.117 12.32 134.917 12.32C134.717 12.32 134.47 12.4533 134.177 12.72C133.897 12.9867 133.617 13.36 133.337 13.84C133.07 14.32 132.843 14.8933 132.657 15.56C132.483 16.2133 132.397 16.9333 132.397 17.72C132.397 18.5867 132.49 19.28 132.677 19.8C132.877 20.3333 133.13 20.7333 133.437 21C133.743 21.28 134.063 21.4667 134.397 21.56C134.73 21.6533 135.037 21.7 135.317 21.7ZM139.273 19.1L139.453 17.46C140.213 17.46 140.747 17.3867 141.053 17.24C141.36 17.0933 141.533 16.8333 141.573 16.46C141.627 16.0867 141.64 15.5667 141.613 14.9L141.233 4.72H142.853L143.253 14.72C143.28 15.4267 143.253 16.0533 143.173 16.6C143.107 17.1467 142.933 17.6067 142.653 17.98C142.387 18.3533 141.98 18.6333 141.433 18.82C140.9 19.0067 140.18 19.1 139.273 19.1ZM146.309 19L145.909 4.72H147.529L147.929 19H146.309ZM162.327 19.42L162.847 17.78C164.407 17.78 165.747 17.74 166.867 17.66C168.001 17.58 168.927 17.4533 169.647 17.28C170.381 17.0933 170.921 16.8467 171.267 16.54C171.627 16.22 171.807 15.8333 171.807 15.38C171.807 14.8733 171.714 14.2867 171.527 13.62C171.341 12.9533 171.101 12.24 170.807 11.48L172.347 10.94C172.521 11.3667 172.681 11.8267 172.827 12.32C172.987 12.8 173.121 13.28 173.227 13.76C173.334 14.2267 173.387 14.66 173.387 15.06C173.387 15.8467 173.207 16.52 172.847 17.08C172.487 17.6267 171.887 18.0733 171.047 18.42C170.207 18.7667 169.074 19.02 167.647 19.18C166.234 19.34 164.461 19.42 162.327 19.42ZM162.327 19.42C161.141 19.42 160.094 19.34 159.187 19.18C158.294 19.0333 157.547 18.8 156.947 18.48C156.347 18.16 155.894 17.7467 155.587 17.24C155.281 16.72 155.127 16.0933 155.127 15.36C155.127 15.0267 155.154 14.6867 155.207 14.34C155.261 13.98 155.327 13.62 155.407 13.26C155.501 12.9 155.594 12.5533 155.687 12.22L157.187 12.6C157.134 12.8 157.074 13.04 157.007 13.32C156.941 13.5867 156.881 13.86 156.827 14.14C156.787 14.42 156.767 14.6733 156.767 14.9C156.767 15.5933 156.941 16.1533 157.287 16.58C157.647 16.9933 158.267 17.3 159.147 17.5C160.027 17.6867 161.261 17.78 162.847 17.78L163.247 18.78L162.327 19.42ZM165.667 10.98C165.387 10.98 165.147 10.8867 164.947 10.7C164.761 10.5 164.667 10.2667 164.667 10C164.667 9.73333 164.761 9.5 164.947 9.3C165.147 9.1 165.387 9 165.667 9C165.934 9 166.161 9.1 166.347 9.3C166.547 9.5 166.647 9.73333 166.647 10C166.647 10.2667 166.547 10.5 166.347 10.7C166.161 10.8867 165.934 10.98 165.667 10.98ZM162.927 10.98C162.647 10.98 162.407 10.8867 162.207 10.7C162.021 10.5 161.927 10.2667 161.927 10C161.927 9.73333 162.021 9.5 162.207 9.3C162.407 9.1 162.647 9 162.927 9C163.194 9 163.421 9.1 163.607 9.3C163.807 9.5 163.907 9.73333 163.907 10C163.907 10.2667 163.807 10.5 163.607 10.7C163.421 10.8867 163.194 10.98 162.927 10.98ZM180.211 19.1C179.144 19.1 178.324 18.98 177.751 18.74C177.191 18.5 176.804 18.1267 176.591 17.62C176.377 17.1133 176.257 16.46 176.231 15.66L175.831 4.72H177.471L177.871 15.02C177.897 15.6733 177.957 16.18 178.051 16.54C178.157 16.8867 178.384 17.1267 178.731 17.26C179.091 17.3933 179.651 17.46 180.411 17.46C180.691 17.46 180.891 17.54 181.011 17.7C181.144 17.8467 181.211 18.0267 181.211 18.24C181.211 18.4533 181.117 18.6533 180.931 18.84C180.744 19.0133 180.504 19.1 180.211 19.1ZM180.211 19.1L180.411 17.46C180.784 17.46 181.098 17.38 181.351 17.22C181.604 17.06 181.851 16.7933 182.091 16.42C182.331 16.0467 182.591 15.5467 182.871 14.92C183.258 14.0667 183.638 13.42 184.011 12.98C184.398 12.54 184.778 12.24 185.151 12.08C185.538 11.92 185.918 11.84 186.291 11.84C186.744 11.84 187.164 11.96 187.551 12.2C187.938 12.4267 188.278 12.7333 188.571 13.12C188.864 13.5067 189.091 13.9333 189.251 14.4C189.424 14.8533 189.511 15.3067 189.511 15.76C189.511 16.56 189.371 17.2 189.091 17.68C188.811 18.1467 188.451 18.4867 188.011 18.7C187.584 18.9 187.138 19 186.671 19C186.258 19 185.724 18.92 185.071 18.76C184.431 18.6 183.618 18.1933 182.631 17.54L183.411 16.28C184.064 16.6933 184.651 16.98 185.171 17.14C185.704 17.2867 186.144 17.36 186.491 17.36C186.878 17.36 187.184 17.3067 187.411 17.2C187.638 17.08 187.804 16.9133 187.911 16.7C188.018 16.4867 188.071 16.2467 188.071 15.98C188.071 15.5933 187.978 15.2067 187.791 14.82C187.604 14.4333 187.364 14.1133 187.071 13.86C186.791 13.6067 186.491 13.48 186.171 13.48C185.931 13.48 185.698 13.5467 185.471 13.68C185.244 13.8133 185.011 14.06 184.771 14.42C184.531 14.78 184.258 15.3 183.951 15.98C183.631 16.7 183.324 17.2733 183.031 17.7C182.751 18.1133 182.464 18.42 182.171 18.62C181.878 18.82 181.571 18.9467 181.251 19C180.944 19.0667 180.598 19.1 180.211 19.1ZM191.879 23.6L191.519 21.96C192.319 21.8533 193.052 21.7 193.719 21.5C194.399 21.3133 194.979 21.04 195.459 20.68C195.952 20.32 196.332 19.8467 196.599 19.26C196.865 18.6733 196.999 17.94 196.999 17.06C196.999 16.1533 196.832 15.4 196.499 14.8C196.165 14.2 195.732 13.9 195.199 13.9C194.919 13.9 194.659 14.0067 194.419 14.22C194.179 14.4333 193.979 14.72 193.819 15.08C193.672 15.44 193.599 15.8333 193.599 16.26C193.599 16.5 193.652 16.7 193.759 16.86C193.865 17.0067 194.019 17.1267 194.219 17.22C194.432 17.3 194.699 17.36 195.019 17.4C195.339 17.44 195.712 17.46 196.139 17.46H200.359C200.639 17.46 200.839 17.54 200.959 17.7C201.092 17.8467 201.159 18.0267 201.159 18.24C201.159 18.4533 201.065 18.6533 200.879 18.84C200.692 19.0133 200.452 19.1 200.159 19.1H195.379C194.779 19.1 194.219 19.0133 193.699 18.84C193.192 18.6667 192.779 18.4 192.459 18.04C192.152 17.6667 191.999 17.18 191.999 16.58C191.999 16.02 192.085 15.4867 192.259 14.98C192.432 14.46 192.665 14 192.959 13.6C193.265 13.1867 193.619 12.86 194.019 12.62C194.432 12.38 194.879 12.26 195.359 12.26C195.972 12.26 196.519 12.44 196.999 12.8C197.479 13.16 197.859 13.7067 198.139 14.44C198.419 15.16 198.559 16.0733 198.559 17.18C198.559 18.42 198.305 19.4867 197.799 20.38C197.305 21.2867 196.559 22.0067 195.559 22.54C194.572 23.0733 193.345 23.4267 191.879 23.6ZM200.152 19.1L200.332 17.46C201.092 17.46 201.626 17.3867 201.932 17.24C202.239 17.0933 202.412 16.8333 202.452 16.46C202.506 16.0867 202.519 15.5667 202.492 14.9L202.152 4.72H203.812L204.132 14.86C204.159 15.54 204.266 16.0733 204.452 16.46C204.652 16.8333 204.919 17.0933 205.252 17.24C205.586 17.3867 205.952 17.46 206.352 17.46C206.632 17.46 206.832 17.54 206.952 17.7C207.086 17.8467 207.152 18.0267 207.152 18.24C207.152 18.4533 207.059 18.6533 206.872 18.84C206.686 19.0133 206.446 19.1 206.152 19.1C205.592 19.1 205.126 19.0133 204.752 18.84C204.392 18.6533 204.106 18.42 203.892 18.14C203.692 17.8467 203.559 17.54 203.492 17.22L203.912 17.26C203.779 17.66 203.559 18 203.252 18.28C202.959 18.5467 202.559 18.7533 202.052 18.9C201.546 19.0333 200.912 19.1 200.152 19.1ZM206.148 19.1L206.348 17.46C207.148 17.46 207.902 17.3867 208.608 17.24C209.315 17.08 209.962 16.8733 210.548 16.62C211.148 16.3533 211.662 16.0533 212.088 15.72C212.515 15.3733 212.842 15.02 213.068 14.66C213.308 14.2867 213.428 13.92 213.428 13.56C213.428 13.3867 213.368 13.2133 213.248 13.04C213.128 12.8533 212.922 12.7 212.628 12.58C212.348 12.46 211.968 12.4 211.488 12.4C211.195 12.4 210.868 12.44 210.508 12.52C210.148 12.6 209.802 12.7133 209.468 12.86C209.148 12.9933 208.882 13.1467 208.668 13.32C209.028 13.6133 209.362 13.9 209.668 14.18C209.988 14.46 210.315 14.7667 210.648 15.1C210.982 15.42 211.342 15.7867 211.728 16.2C212.035 16.4267 212.375 16.62 212.748 16.78C213.135 16.94 213.548 17.0733 213.988 17.18C214.442 17.2733 214.902 17.3467 215.368 17.4C215.835 17.44 216.302 17.46 216.768 17.46C217.048 17.46 217.248 17.54 217.368 17.7C217.502 17.8467 217.568 18.0267 217.568 18.24C217.568 18.4533 217.475 18.6533 217.288 18.84C217.102 19.0133 216.862 19.1 216.568 19.1C215.835 19.1 215.082 19.0333 214.308 18.9C213.548 18.7533 212.835 18.54 212.168 18.26C211.502 17.9667 210.935 17.6 210.468 17.16C210.242 16.8667 209.988 16.5733 209.708 16.28C209.428 15.9867 209.122 15.6933 208.788 15.4C208.468 15.0933 208.122 14.8067 207.748 14.54C207.668 14.4733 207.588 14.3533 207.508 14.18C207.428 14.0067 207.362 13.8267 207.308 13.64C207.255 13.4533 207.228 13.3133 207.228 13.22C207.228 13.02 207.355 12.78 207.608 12.5C207.862 12.22 208.202 11.9533 208.628 11.7C209.055 11.4333 209.542 11.2133 210.088 11.04C210.635 10.8667 211.202 10.78 211.788 10.78C212.548 10.78 213.162 10.8933 213.628 11.12C214.108 11.3467 214.455 11.64 214.668 12C214.895 12.3467 215.008 12.72 215.008 13.12C215.008 13.7067 214.862 14.2933 214.568 14.88C214.275 15.4533 213.855 15.9933 213.308 16.5C212.762 17.0067 212.122 17.46 211.388 17.86C210.655 18.2467 209.842 18.5533 208.948 18.78C208.068 18.9933 207.135 19.1 206.148 19.1ZM216.578 19.1L216.778 17.46C217.151 17.46 217.465 17.38 217.718 17.22C217.971 17.06 218.218 16.7933 218.458 16.42C218.698 16.0467 218.958 15.5467 219.238 14.92C219.625 14.0667 220.005 13.42 220.378 12.98C220.765 12.54 221.145 12.24 221.518 12.08C221.905 11.92 222.285 11.84 222.658 11.84C223.111 11.84 223.531 11.96 223.918 12.2C224.305 12.4267 224.645 12.7333 224.938 13.12C225.231 13.5067 225.458 13.9333 225.618 14.4C225.791 14.8533 225.878 15.3067 225.878 15.76C225.878 16.56 225.738 17.2 225.458 17.68C225.178 18.1467 224.818 18.4867 224.378 18.7C223.951 18.9 223.505 19 223.038 19C222.625 19 222.091 18.92 221.438 18.76C220.798 18.6 219.985 18.1933 218.998 17.54L219.778 16.28C220.431 16.6933 221.018 16.98 221.538 17.14C222.071 17.2867 222.511 17.36 222.858 17.36C223.245 17.36 223.551 17.3067 223.778 17.2C224.005 17.08 224.171 16.9133 224.278 16.7C224.385 16.4867 224.438 16.2467 224.438 15.98C224.438 15.5933 224.345 15.2067 224.158 14.82C223.971 14.4333 223.731 14.1133 223.438 13.86C223.158 13.6067 222.858 13.48 222.538 13.48C222.298 13.48 222.065 13.5467 221.838 13.68C221.611 13.8133 221.378 14.06 221.138 14.42C220.898 14.78 220.625 15.3 220.318 15.98C219.998 16.7 219.691 17.2733 219.398 17.7C219.118 18.1133 218.831 18.42 218.538 18.62C218.245 18.82 217.938 18.9467 217.618 19C217.311 19.0667 216.965 19.1 216.578 19.1Z" fill="#116845"/>
<path d="M248 2C242.49 2 238 6.49 238 12C238 17.51 242.49 22 248 22C253.51 22 258 17.51 258 12C258 6.49 253.51 2 248 2ZM252.78 9.7L247.11 15.37C246.97 15.51 246.78 15.59 246.58 15.59C246.38 15.59 246.19 15.51 246.05 15.37L243.22 12.54C242.93 12.25 242.93 11.77 243.22 11.48C243.51 11.19 243.99 11.19 244.28 11.48L246.58 13.78L251.72 8.64C252.01 8.35 252.49 8.35 252.78 8.64C253.07 8.93 253.07 9.4 252.78 9.7Z" fill="#116845"/>
<path d="M280 2C274.49 2 270 6.49 270 12C270 17.51 274.49 22 280 22C285.51 22 290 17.51 290 12C290 6.49 285.51 2 280 2ZM284.78 9.7L279.11 15.37C278.97 15.51 278.78 15.59 278.58 15.59C278.38 15.59 278.19 15.51 278.05 15.37L275.22 12.54C274.93 12.25 274.93 11.77 275.22 11.48C275.51 11.19 275.99 11.19 276.28 11.48L278.58 13.78L283.72 8.64C284.01 8.35 284.49 8.35 284.78 8.64C285.07 8.93 285.07 9.4 284.78 9.7Z" fill="#9E9E9E"/>
</svg>
