<svg width="12" height="12" viewBox="0 0 12 12" fill="none" xmlns="http://www.w3.org/2000/svg">
<path d="M6 7.25C6.69036 7.25 7.25 6.69036 7.25 6C7.25 5.30964 6.69036 4.75 6 4.75C5.30964 4.75 4.75 5.30964 4.75 6C4.75 6.69036 5.30964 7.25 6 7.25Z" stroke="#FBFBFB" stroke-width="0.75" stroke-miterlimit="10" stroke-linecap="round" stroke-linejoin="round"/>
<path d="M9.25 4.75V7.25" stroke="#FBFBFB" stroke-width="0.75" stroke-miterlimit="10" stroke-linecap="round" stroke-linejoin="round"/>
<path d="M4.5 9C4.5 9.375 4.39501 9.73 4.21001 10.03C3.86501 10.61 3.23 11 2.5 11C1.77 11 1.13499 10.61 0.789993 10.03C0.604993 9.73 0.5 9.375 0.5 9C0.5 7.895 1.395 7 2.5 7C3.605 7 4.5 7.895 4.5 9Z" stroke="#FBFBFB" stroke-width="0.75" stroke-miterlimit="10" stroke-linecap="round" stroke-linejoin="round"/>
<path d="M3.24585 8.98975H1.75586" stroke="#FBFBFB" stroke-width="0.75" stroke-miterlimit="10" stroke-linecap="round" stroke-linejoin="round"/>
<path d="M2.5 8.25977V9.75476" stroke="#FBFBFB" stroke-width="0.75" stroke-miterlimit="10" stroke-linecap="round" stroke-linejoin="round"/>
<path d="M1 7.64999V4.5C1 2.75 2 2 3.5 2H8.5C10 2 11 2.75 11 4.5V7.5C11 9.25 10 10 8.5 10H4.25" stroke="#FBFBFB" stroke-width="0.75" stroke-miterlimit="10" stroke-linecap="round" stroke-linejoin="round"/>
</svg>
