<svg width="90" height="90" viewBox="0 0 90 90" fill="none" xmlns="http://www.w3.org/2000/svg">
<path d="M67.3529 11.6471H22.647C14.4137 11.6471 7.74509 18.2785 7.74509 26.4373V63.9157C7.74509 72.0745 14.4137 78.7059 22.647 78.7059H67.3529C75.5863 78.7059 82.2549 72.0745 82.2549 63.9157V26.4373C82.2549 18.2785 75.5863 11.6471 67.3529 11.6471ZM31.9608 27.1824C36.6921 27.1824 40.5667 31.0569 40.5667 35.7883C40.5667 40.5196 36.6921 44.3941 31.9608 44.3941C27.2294 44.3941 23.3549 40.5196 23.3549 35.7883C23.3549 31.0569 27.2294 27.1824 31.9608 27.1824ZM46.3784 62.5373C46.0431 62.9098 45.5216 63.1334 45 63.1334H18.9216C18.4 63.1334 17.8784 62.9098 17.5431 62.5373C17.2078 62.1647 17.0216 61.6432 17.0588 61.1216C17.6921 54.8628 22.6843 49.9079 28.9431 49.3118C30.9176 49.1255 32.9667 49.1255 34.9412 49.3118C41.2 49.9079 46.2294 54.8628 46.8255 61.1216C46.9 61.6432 46.7137 62.1647 46.3784 62.5373ZM71.0784 62.8726H63.6274C62.1 62.8726 60.8333 61.6059 60.8333 60.0785C60.8333 58.551 62.1 57.2843 63.6274 57.2843H71.0784C72.6059 57.2843 73.8725 58.551 73.8725 60.0785C73.8725 61.6059 72.6059 62.8726 71.0784 62.8726ZM71.0784 47.9706H56.1765C54.649 47.9706 53.3823 46.7039 53.3823 45.1765C53.3823 43.649 54.649 42.3824 56.1765 42.3824H71.0784C72.6059 42.3824 73.8725 43.649 73.8725 45.1765C73.8725 46.7039 72.6059 47.9706 71.0784 47.9706ZM71.0784 33.0687H52.451C50.9235 33.0687 49.6569 31.802 49.6569 30.2745C49.6569 28.7471 50.9235 27.4804 52.451 27.4804H71.0784C72.6059 27.4804 73.8725 28.7471 73.8725 30.2745C73.8725 31.802 72.6059 33.0687 71.0784 33.0687Z" fill="#062418"/>
</svg>
