<svg width="343" height="194" viewBox="0 0 343 194" fill="none" xmlns="http://www.w3.org/2000/svg">
<g clip-path="url(#clip0_478_1323)">
<path d="M334.936 163.576C333.697 153.642 327.518 143.855 318.011 140.622C321.76 150.847 321.76 162.063 318.009 172.288C316.548 176.225 314.512 180.454 315.886 184.422C316.741 186.892 318.832 188.781 321.17 189.963C323.509 191.144 326.103 191.707 328.666 192.259L329.17 192.674C333.238 183.521 336.176 173.51 334.936 163.576Z" fill="#F0F0F0"/>
<path d="M317.917 140.81C323.453 146.992 326.895 154.755 327.752 162.996C327.968 164.767 327.902 166.561 327.558 168.312C327.167 170.006 326.328 171.566 325.128 172.828C324.032 174.027 322.772 175.127 321.989 176.571C321.599 177.316 321.371 178.135 321.32 178.973C321.27 179.812 321.398 180.652 321.696 181.438C322.388 183.416 323.752 185.028 325.141 186.558C326.683 188.257 328.311 189.997 328.967 192.249C329.046 192.522 329.466 192.384 329.387 192.111C328.247 188.192 324.429 185.966 322.609 182.437C321.759 180.79 321.403 178.878 322.199 177.139C322.895 175.619 324.194 174.483 325.313 173.279C326.502 172.065 327.375 170.579 327.854 168.951C328.287 167.224 328.422 165.435 328.253 163.663C327.935 159.666 326.989 155.744 325.449 152.04C323.715 147.803 321.267 143.893 318.21 140.479C318.02 140.268 317.729 140.6 317.917 140.81Z" fill="white"/>
<path d="M327.632 160.326C329.001 159.995 330.206 159.191 331.034 158.056C331.861 156.921 332.257 155.53 332.15 154.131C332.128 153.848 331.686 153.869 331.708 154.153C331.81 155.455 331.441 156.751 330.668 157.806C329.895 158.861 328.769 159.607 327.494 159.907C327.216 159.973 327.357 160.392 327.632 160.326Z" fill="white"/>
<path d="M325.763 172.293C323.292 170.823 321.468 168.478 320.655 165.727C320.574 165.455 320.154 165.593 320.234 165.866C321.086 168.727 322.989 171.162 325.564 172.687C325.81 172.832 326.008 172.437 325.763 172.293Z" fill="white"/>
<path d="M323.305 148.221C322.802 148.459 322.248 148.569 321.692 148.541C321.137 148.513 320.597 148.348 320.121 148.06C319.877 147.912 319.68 148.307 319.922 148.454C320.449 148.769 321.045 148.951 321.659 148.983C322.273 149.016 322.886 148.898 323.444 148.64C323.498 148.62 323.543 148.58 323.569 148.528C323.595 148.477 323.601 148.417 323.584 148.361C323.566 148.306 323.526 148.26 323.473 148.234C323.421 148.208 323.36 148.203 323.305 148.221Z" fill="white"/>
<path d="M289.031 158.365C289.181 158.462 289.33 158.559 289.48 158.659C291.482 159.971 293.374 161.443 295.137 163.061C295.275 163.183 295.414 163.31 295.548 163.437C299.754 167.378 303.189 172.064 305.678 177.255C306.667 179.322 307.497 181.46 308.16 183.652C309.075 186.679 309.826 190.034 311.639 192.511C311.825 192.771 312.027 193.02 312.244 193.255H328.622C328.659 193.237 328.697 193.222 328.734 193.203L329.388 193.233C329.362 193.118 329.332 192.998 329.306 192.883C329.291 192.816 329.272 192.749 329.257 192.682C329.246 192.637 329.235 192.592 329.227 192.552C329.224 192.537 329.22 192.522 329.216 192.511C329.209 192.47 329.198 192.432 329.19 192.395C329.026 191.729 328.856 191.062 328.682 190.396C328.682 190.392 328.682 190.392 328.678 190.388C327.337 185.313 325.558 180.305 323.073 175.725C322.998 175.587 322.924 175.445 322.841 175.307C321.71 173.249 320.411 171.287 318.959 169.439C318.16 168.43 317.311 167.462 316.414 166.538C314.092 164.157 311.409 162.154 308.462 160.603C302.588 157.512 295.787 156.328 289.51 158.216C289.349 158.265 289.192 158.313 289.031 158.365Z" fill="#F0F0F0"/>
<path d="M289.068 158.572C297.224 160.186 304.662 164.32 310.326 170.386C311.568 171.671 312.6 173.142 313.382 174.747C314.094 176.334 314.366 178.083 314.171 179.811C314.021 181.425 313.68 183.06 313.926 184.683C314.065 185.511 314.377 186.302 314.844 187.002C315.311 187.702 315.92 188.295 316.633 188.744C318.381 189.908 320.444 190.377 322.477 190.765C324.734 191.197 327.086 191.609 328.97 193.015C329.199 193.185 329.45 192.822 329.222 192.652C325.944 190.207 321.551 190.72 317.965 188.994C316.292 188.189 314.852 186.876 314.437 185.01C314.075 183.379 314.425 181.693 314.591 180.059C314.807 178.377 314.606 176.667 314.006 175.079C313.307 173.44 312.334 171.932 311.128 170.618C308.46 167.617 305.335 165.053 301.868 163.02C297.923 160.677 293.606 159.024 289.102 158.132C288.823 158.077 288.791 158.517 289.068 158.572Z" fill="white"/>
<path d="M308.617 168.326C309.51 167.241 309.986 165.875 309.961 164.473C309.936 163.07 309.412 161.722 308.481 160.669C308.292 160.456 307.952 160.739 308.141 160.952C309.01 161.931 309.498 163.186 309.519 164.493C309.539 165.799 309.09 167.069 308.253 168.075C308.072 168.294 308.437 168.544 308.617 168.326Z" fill="white"/>
<path d="M314.355 179.002C311.494 179.311 308.621 178.533 306.309 176.825C306.08 176.655 305.829 177.018 306.057 177.188C308.466 178.961 311.457 179.764 314.434 179.436C314.718 179.405 314.637 178.971 314.355 179.002Z" fill="white"/>
<path d="M297.848 161.257C297.591 161.749 297.215 162.169 296.754 162.48C296.293 162.791 295.762 162.983 295.209 163.039C294.925 163.067 295.006 163.501 295.288 163.473C295.899 163.408 296.485 163.195 296.995 162.853C297.505 162.511 297.923 162.049 298.212 161.508C298.244 161.46 298.255 161.401 298.245 161.344C298.235 161.287 298.203 161.236 298.156 161.202C298.108 161.169 298.048 161.156 297.991 161.166C297.933 161.177 297.882 161.209 297.848 161.257Z" fill="white"/>
<path d="M5.9788 43.9386C9.28081 43.9386 11.9576 41.2712 11.9576 37.9808C11.9576 34.6905 9.28081 32.0231 5.9788 32.0231C2.6768 32.0231 0 34.6905 0 37.9808C0 41.2712 2.6768 43.9386 5.9788 43.9386Z" fill="#E4E4E4"/>
<path d="M306.04 43.9386C309.342 43.9386 312.019 41.2712 312.019 37.9808C312.019 34.6905 309.342 32.0231 306.04 32.0231C302.738 32.0231 300.061 34.6905 300.061 37.9808C300.061 41.2712 302.738 43.9386 306.04 43.9386Z" fill="#E4E4E4"/>
<path d="M307.908 37.6085H244.713V38.3532H307.908V37.6085Z" fill="#E4E4E4"/>
<path d="M228.083 37.6085H169.684V38.3532H228.083V37.6085Z" fill="#E4E4E4"/>
<path d="M153.054 37.6085H94.1603V38.3532H153.054V37.6085Z" fill="#E4E4E4"/>
<path d="M77.6008 37.6085H5.97876V38.3532H77.6008V37.6085Z" fill="#E4E4E4"/>
<path d="M87.8137 48.2207C86.1508 48.2207 84.5253 47.7293 83.1426 46.8087C81.76 45.8882 80.6824 44.5797 80.046 43.0488C79.4097 41.5179 79.2431 39.8333 79.5676 38.2081C79.892 36.5829 80.6927 35.0901 81.8686 33.9184C83.0444 32.7467 84.5425 31.9487 86.1735 31.6255C87.8044 31.3022 89.4949 31.4681 91.0312 32.1022C92.5675 32.7363 93.8806 33.8102 94.8045 35.188C95.7283 36.5657 96.2214 38.1856 96.2214 39.8426C96.2189 42.0638 95.3323 44.1934 93.7561 45.7641C92.1799 47.3347 90.0428 48.2182 87.8137 48.2207Z" fill="#116845"/>
<path d="M85.9452 46.5451C84.2454 46.5451 82.5837 46.0428 81.1704 45.1018C79.757 44.1607 78.6554 42.8232 78.0049 41.2582C77.3544 39.6933 77.1842 37.9713 77.5159 36.31C77.8475 34.6487 78.666 33.1227 79.868 31.9249C81.07 30.7272 82.6014 29.9115 84.2685 29.5811C85.9357 29.2506 87.6638 29.4202 89.2342 30.0684C90.8047 30.7166 92.147 31.8144 93.0913 33.2227C94.0357 34.6311 94.5398 36.287 94.5398 37.9808C94.5372 40.2514 93.6309 42.4283 92.0196 44.0338C90.4084 45.6394 88.2239 46.5425 85.9452 46.5451ZM85.9452 30.1612C84.3932 30.1612 82.876 30.6198 81.5856 31.4791C80.2951 32.3383 79.2893 33.5595 78.6954 34.9884C78.1015 36.4172 77.9461 37.9895 78.2488 39.5063C78.5516 41.0232 79.299 42.4165 80.3965 43.5101C81.4939 44.6037 82.8921 45.3484 84.4143 45.6501C85.9365 45.9519 87.5143 45.797 88.9482 45.2052C90.3821 44.6133 91.6077 43.6111 92.4699 42.3251C93.3322 41.0392 93.7924 39.5274 93.7924 37.9808C93.7901 35.9076 92.9626 33.9201 91.4915 32.4541C90.0203 30.9882 88.0257 30.1636 85.9452 30.1612Z" fill="#3F3D56"/>
<path d="M85.7585 40.5873C85.6098 40.5873 85.4672 40.5284 85.3621 40.4237L82.1859 37.2586C82.1336 37.2068 82.0921 37.1452 82.0638 37.0774C82.0355 37.0096 82.0208 36.9369 82.0208 36.8634C82.0207 36.7899 82.0351 36.7172 82.0633 36.6493C82.0915 36.5814 82.1328 36.5197 82.1849 36.4678C82.2371 36.4159 82.299 36.3747 82.3671 36.3466C82.4352 36.3185 82.5082 36.3041 82.5819 36.3042C82.6557 36.3043 82.7286 36.3189 82.7967 36.3472C82.8648 36.3754 82.9265 36.4167 82.9785 36.4688L85.7585 39.239L91.2865 33.7303C91.3917 33.6259 91.5341 33.5674 91.6826 33.5675C91.831 33.5677 91.9733 33.6265 92.0783 33.7311C92.1833 33.8357 92.2423 33.9775 92.2425 34.1254C92.2426 34.2734 92.1839 34.4153 92.0791 34.5201L86.1548 40.4237C86.0497 40.5285 85.9071 40.5873 85.7585 40.5873Z" fill="white"/>
<path d="M163.296 48.2207C161.633 48.2207 160.008 47.7293 158.625 46.8087C157.242 45.8882 156.165 44.5797 155.528 43.0488C154.892 41.5179 154.726 39.8333 155.05 38.2081C155.374 36.5829 156.175 35.0901 157.351 33.9184C158.527 32.7467 160.025 31.9487 161.656 31.6255C163.287 31.3022 164.977 31.4681 166.514 32.1022C168.05 32.7363 169.363 33.8102 170.287 35.188C171.211 36.5657 171.704 38.1856 171.704 39.8426C171.701 42.0638 170.815 44.1934 169.238 45.7641C167.662 47.3347 165.525 48.2182 163.296 48.2207Z" fill="#116845"/>
<path d="M161.428 46.5451C159.728 46.5451 158.066 46.0428 156.653 45.1018C155.239 44.1607 154.138 42.8232 153.487 41.2582C152.837 39.6933 152.667 37.9713 152.998 36.31C153.33 34.6487 154.148 33.1227 155.35 31.9249C156.552 30.7272 158.084 29.9115 159.751 29.5811C161.418 29.2506 163.146 29.4202 164.717 30.0684C166.287 30.7166 167.629 31.8144 168.574 33.2227C169.518 34.6311 170.022 36.287 170.022 37.9808C170.02 40.2514 169.113 42.4283 167.502 44.0338C165.891 45.6394 163.706 46.5425 161.428 46.5451ZM161.428 30.1612C159.876 30.1612 158.359 30.6198 157.068 31.4791C155.778 32.3383 154.772 33.5595 154.178 34.9884C153.584 36.4172 153.429 37.9895 153.731 39.5063C154.034 41.0232 154.781 42.4165 155.879 43.5101C156.976 44.6037 158.375 45.3484 159.897 45.6501C161.419 45.9519 162.997 45.797 164.431 45.2052C165.865 44.6133 167.09 43.6111 167.952 42.3251C168.815 41.0392 169.275 39.5274 169.275 37.9808C169.273 35.9076 168.445 33.9201 166.974 32.4541C165.503 30.9882 163.508 30.1636 161.428 30.1612Z" fill="#3F3D56"/>
<path d="M161.241 40.5873C161.092 40.5873 160.95 40.5284 160.844 40.4237L157.668 37.2586C157.616 37.2068 157.575 37.1452 157.546 37.0774C157.518 37.0096 157.503 36.9368 157.503 36.8634C157.503 36.7899 157.517 36.7172 157.546 36.6493C157.574 36.5814 157.615 36.5197 157.667 36.4678C157.719 36.4158 157.781 36.3746 157.849 36.3466C157.918 36.3185 157.991 36.3041 158.064 36.3042C158.138 36.3043 158.211 36.3189 158.279 36.3471C158.347 36.3754 158.409 36.4167 158.461 36.4688L161.241 39.2389L166.769 33.7303C166.821 33.6782 166.883 33.6369 166.951 33.6087C167.019 33.5805 167.092 33.566 167.165 33.5659C167.239 33.5658 167.312 33.5803 167.38 33.6083C167.448 33.6364 167.51 33.6776 167.562 33.7295C167.614 33.7814 167.656 33.8431 167.684 33.9109C167.712 33.9788 167.726 34.0515 167.726 34.1249C167.726 34.1984 167.712 34.2711 167.683 34.3389C167.655 34.4067 167.614 34.4683 167.561 34.5201L161.637 40.4237C161.532 40.5284 161.389 40.5873 161.241 40.5873Z" fill="white"/>
<path d="M238.405 48.2207C236.742 48.2207 235.116 47.7293 233.734 46.8087C232.351 45.8882 231.273 44.5797 230.637 43.0488C230.001 41.5179 229.834 39.8333 230.159 38.2081C230.483 36.5829 231.284 35.0901 232.46 33.9184C233.635 32.7467 235.134 31.9487 236.765 31.6255C238.395 31.3022 240.086 31.4681 241.622 32.1022C243.159 32.7363 244.472 33.8102 245.396 35.188C246.319 36.5657 246.812 38.1856 246.812 39.8426C246.81 42.0638 245.923 44.1934 244.347 45.7641C242.771 47.3347 240.634 48.2182 238.405 48.2207Z" fill="#F0F0F0"/>
<path d="M236.536 46.5451C234.837 46.5451 233.175 46.0428 231.762 45.1018C230.348 44.1607 229.247 42.8232 228.596 41.2582C227.946 39.6933 227.775 37.9713 228.107 36.31C228.439 34.6487 229.257 33.1227 230.459 31.9249C231.661 30.7272 233.193 29.9115 234.86 29.5811C236.527 29.2506 238.255 29.4202 239.825 30.0684C241.396 30.7166 242.738 31.8144 243.683 33.2227C244.627 34.6311 245.131 36.287 245.131 37.9808C245.128 40.2514 244.222 42.4283 242.611 44.0338C241 45.6394 238.815 46.5425 236.536 46.5451ZM236.536 30.1612C234.984 30.1612 233.467 30.6198 232.177 31.4791C230.886 32.3383 229.881 33.5595 229.287 34.9884C228.693 36.4172 228.537 37.9895 228.84 39.5063C229.143 41.0232 229.89 42.4165 230.988 43.5101C232.085 44.6037 233.483 45.3484 235.006 45.6501C236.528 45.9519 238.106 45.797 239.539 45.2052C240.973 44.6133 242.199 43.6111 243.061 42.3251C243.923 41.0392 244.384 39.5274 244.384 37.9808C244.381 35.9076 243.554 33.9201 242.083 32.4541C240.611 30.9882 238.617 30.1636 236.536 30.1612Z" fill="#CACACA"/>
<path d="M231.143 81.3667C229.48 81.3667 227.855 80.8753 226.472 79.9547C225.089 79.0341 224.012 77.7257 223.375 76.1948C222.739 74.6639 222.573 72.9793 222.897 71.3541C223.221 69.7289 224.022 68.2361 225.198 67.0644C226.374 65.8927 227.872 65.0947 229.503 64.7715C231.134 64.4482 232.824 64.6141 234.361 65.2482C235.897 65.8823 237.21 66.9562 238.134 68.334C239.058 69.7117 239.551 71.3316 239.551 72.9886C239.548 75.2098 238.662 77.3394 237.086 78.9101C235.509 80.4807 233.372 81.3642 231.143 81.3667Z" fill="#116845"/>
<path d="M230.583 75.5952C230.434 75.5951 230.291 75.5363 230.186 75.4315L227.01 72.2665C226.905 72.1617 226.846 72.0196 226.846 71.8715C226.846 71.7234 226.905 71.5813 227.01 71.4766C227.115 71.3719 227.258 71.313 227.406 71.313C227.555 71.313 227.698 71.3719 227.803 71.4766L230.583 74.2468L236.111 68.7381C236.216 68.6337 236.358 68.5752 236.507 68.5753C236.655 68.5755 236.797 68.6343 236.902 68.7389C237.007 68.8435 237.066 68.9853 237.067 69.1333C237.067 69.2812 237.008 69.4231 236.903 69.5279L230.979 75.4315C230.874 75.5363 230.731 75.5951 230.583 75.5952Z" fill="white"/>
<path d="M249.917 189.41L245.39 188.713L245.936 170.98L252.618 172.009L249.917 189.41Z" fill="#9E616A"/>
<path d="M250.394 193.961L235.795 191.712L235.824 191.528C236.057 190.026 236.879 188.678 238.11 187.781C239.34 186.883 240.878 186.509 242.384 186.741L251.301 188.115L250.394 193.961Z" fill="#13131A"/>
<path d="M297.5 188.963L292.923 189.158L289.993 171.658L296.748 171.371L297.5 188.963Z" fill="#9E616A"/>
<path d="M298.857 193.335L284.098 193.961L284.09 193.775C284.026 192.257 284.568 190.776 285.6 189.657C286.631 188.537 288.066 187.872 289.59 187.807L298.604 187.425L298.857 193.335Z" fill="#13131A"/>
<path d="M288.489 84.6354C288.705 84.5749 288.926 84.5339 289.149 84.5128L286.296 61.24L276.614 40.8093C276.005 39.524 275.908 38.0565 276.342 36.7026C276.776 35.3487 277.709 34.2091 278.953 33.5139C280.197 32.8186 281.66 32.6193 283.045 32.9561C284.431 33.293 285.637 34.141 286.42 35.329C288.957 39.1789 290.877 43.3995 292.109 47.8388L296.176 62.4937L293.202 87.6253C293.316 88.3337 293.222 89.0598 292.932 89.7163C292.642 90.3728 292.167 90.9317 291.566 91.3257C290.964 91.7198 290.261 91.9322 289.541 91.9375C288.821 91.9427 288.115 91.7406 287.508 91.3553C286.9 90.9701 286.418 90.4182 286.118 89.766C285.818 89.1138 285.713 88.3891 285.817 87.6792C285.921 86.9692 286.228 86.3043 286.702 85.7643C287.176 85.2243 287.796 84.8323 288.489 84.6354Z" fill="#9E616A"/>
<path d="M274.333 40.7661C273.634 38.8693 273.706 36.775 274.534 34.9304C275.362 33.0857 276.881 31.6367 278.767 30.8926C280.653 30.1485 282.755 30.1681 284.626 30.9474C286.498 31.7267 287.989 33.2039 288.783 35.0637L294.842 49.2663L282.61 63.2099L274.333 40.7661Z" fill="#13131A"/>
<path d="M264.936 43.1938L273.157 29.4165C278.835 25.7165 283.507 28.1358 285.998 34.4248C288.168 39.9044 289.853 46.8368 288.851 53.9923C286.607 70.0208 284.741 71.8656 284.741 71.8656C284.741 71.8656 298.753 87.3186 295.764 107.054L298.006 181.526L291.28 181.153L281.938 138.332L274.838 111.522L262.507 144.29L251.67 182.271L244.197 180.781L248.681 138.704L255.033 90.2975L262.32 71.8656L258.77 59.0192C258.77 59.0192 254.66 50.0825 264.936 43.1938Z" fill="#13131A"/>
<path d="M237.618 62.8708C237.768 63.0364 237.904 63.2151 238.023 63.4049L257.642 50.4627L271.659 32.7032C272.54 31.586 273.814 30.8435 275.224 30.6255C276.633 30.4076 278.073 30.7303 279.253 31.5287C280.433 32.327 281.266 33.5416 281.582 34.9274C281.899 36.3133 281.677 37.7672 280.96 38.996C278.637 42.9783 275.706 46.5752 272.271 49.6572L260.931 59.8312L237.039 68.4087C236.454 68.8269 235.761 69.0677 235.041 69.1022C234.322 69.1367 233.608 68.9634 232.986 68.6031C232.363 68.2429 231.858 67.711 231.532 67.0716C231.206 66.4321 231.072 65.7123 231.146 64.9987C231.221 64.2852 231.501 63.6083 231.952 63.0494C232.404 62.4906 233.007 62.0738 233.691 61.8489C234.375 61.6241 235.109 61.601 235.806 61.7823C236.502 61.9636 237.131 62.3416 237.618 62.8708Z" fill="#9E616A"/>
<path d="M270.678 30.6504C272.069 29.1792 273.981 28.3076 276.007 28.2219C278.033 28.1361 280.013 28.8429 281.524 30.1914C283.034 31.5398 283.956 33.4232 284.092 35.4396C284.229 37.4559 283.569 39.4455 282.254 40.9839L272.21 52.7317L254.227 48.0574L270.678 30.6504Z" fill="#13131A"/>
<path d="M277.353 23.162C282.737 20.2296 284.715 13.5035 281.772 8.13906C278.829 2.77458 272.08 0.803063 266.696 3.73555C261.313 6.66804 259.334 13.3941 262.277 18.7585C265.22 24.123 271.97 26.0945 277.353 23.162Z" fill="#9E616A"/>
<path d="M270.167 2.16827e-10H277.343C282.048 2.16827e-10 285.862 4.27542 285.862 9.54943L285.529 22.3417C280.446 22.9718 275.474 24.2969 270.754 26.2796L270.084 23.4294L268.763 27.1831C267.588 27.7504 266.423 28.3708 265.268 29.0441C266.616 22.7322 267.171 16.4349 266.245 11.5432H263.815V8.89268L262.99 11.5432H258.583C258.583 10.0273 258.883 8.52626 259.465 7.12578C260.047 5.72529 260.9 4.45278 261.976 3.3809C263.052 2.30901 264.329 1.45875 265.734 0.878653C267.14 0.298558 268.646 -9.2907e-06 270.167 2.16827e-10Z" fill="#13131A"/>
<path d="M342.626 194H200.256C200.157 194 200.062 193.961 199.992 193.891C199.922 193.821 199.882 193.726 199.882 193.628C199.882 193.529 199.922 193.434 199.992 193.364C200.062 193.294 200.157 193.255 200.256 193.255H342.626C342.725 193.255 342.82 193.294 342.891 193.364C342.961 193.434 343 193.529 343 193.628C343 193.726 342.961 193.821 342.891 193.891C342.82 193.961 342.725 194 342.626 194Z" fill="#CACACA"/>
<path d="M85.9453 88.6219C85.8462 88.6219 85.7512 88.5826 85.6811 88.5128C85.611 88.443 85.5717 88.3483 85.5717 88.2495V46.5451C85.5717 46.4463 85.611 46.3516 85.6811 46.2818C85.7512 46.212 85.8462 46.1727 85.9453 46.1727C86.0444 46.1727 86.1395 46.212 86.2096 46.2818C86.2796 46.3516 86.319 46.4463 86.319 46.5451V88.2495C86.319 88.3483 86.2796 88.443 86.2096 88.5128C86.1395 88.5826 86.0444 88.6219 85.9453 88.6219Z" fill="#3F3D56"/>
<path d="M59.5875 95.0935C58.9586 95.0935 58.3555 95.3425 57.9108 95.7856C57.4661 96.2287 57.2163 96.8297 57.2163 97.4564C57.2163 98.0831 57.4661 98.6841 57.9108 99.1272C58.3555 99.5703 58.9586 99.8193 59.5875 99.8193H112.313C112.941 99.8182 113.543 99.5687 113.987 99.1257C114.431 98.6827 114.68 98.0823 114.68 97.4564C114.68 96.8304 114.431 96.2301 113.987 95.7871C113.543 95.3441 112.941 95.0946 112.313 95.0935H59.5875Z" fill="#E4E4E4"/>
<path d="M73.7252 106.292C73.4138 106.291 73.1053 106.352 72.8174 106.47C72.5295 106.588 72.2677 106.761 72.047 106.98C71.8264 107.199 71.6512 107.459 71.5314 107.746C71.4116 108.032 71.3497 108.339 71.349 108.65C71.3483 108.96 71.409 109.267 71.5276 109.554C71.6461 109.841 71.8203 110.102 72.04 110.322C72.2597 110.542 72.5207 110.717 72.8082 110.836C73.0956 110.955 73.4038 111.017 73.7152 111.018H98.1753C98.8042 111.018 99.4074 110.769 99.852 110.326C100.297 109.882 100.547 109.281 100.547 108.655C100.547 108.028 100.297 107.427 99.852 106.984C99.4074 106.541 98.8042 106.292 98.1753 106.292H73.7252Z" fill="#E4E4E4"/>
<path d="M136.191 95.0935C135.562 95.0935 134.959 95.3425 134.514 95.7856C134.07 96.2287 133.82 96.8297 133.82 97.4564C133.82 98.0831 134.07 98.6841 134.514 99.1272C134.959 99.5703 135.562 99.8193 136.191 99.8193H188.916C189.545 99.8182 190.147 99.5687 190.59 99.1257C191.034 98.6827 191.283 98.0823 191.283 97.4564C191.283 96.8304 191.034 96.2301 190.59 95.7871C190.147 95.3441 189.545 95.0946 188.916 95.0935H136.191Z" fill="#E4E4E4"/>
<path d="M150.329 106.292C150.017 106.291 149.709 106.352 149.421 106.47C149.133 106.588 148.871 106.761 148.65 106.98C148.43 107.199 148.255 107.459 148.135 107.746C148.015 108.032 147.953 108.339 147.952 108.65C147.952 108.96 148.012 109.267 148.131 109.554C148.25 109.841 148.424 110.102 148.643 110.322C148.863 110.542 149.124 110.717 149.412 110.836C149.699 110.955 150.007 111.017 150.319 111.018H174.779C175.408 111.018 176.011 110.769 176.456 110.326C176.9 109.882 177.15 109.281 177.15 108.655C177.15 108.028 176.9 107.427 176.456 106.984C176.011 106.541 175.408 106.292 174.779 106.292H150.329Z" fill="#E4E4E4"/>
<path d="M162.549 88.6219C162.45 88.6219 162.355 88.5826 162.285 88.5128C162.214 88.443 162.175 88.3483 162.175 88.2495V46.5451C162.175 46.4463 162.214 46.3516 162.285 46.2818C162.355 46.212 162.45 46.1727 162.549 46.1727C162.648 46.1727 162.743 46.212 162.813 46.2818C162.883 46.3516 162.922 46.4463 162.922 46.5451V88.2495C162.922 88.3483 162.883 88.443 162.813 88.5128C162.743 88.5826 162.648 88.6219 162.549 88.6219Z" fill="#3F3D56"/>
</g>
<defs>
<clipPath id="clip0_478_1323">
<rect width="343" height="194" fill="white"/>
</clipPath>
</defs>
</svg>
