<svg width="301" height="24" viewBox="0 0 301 24" fill="none" xmlns="http://www.w3.org/2000/svg">
<path d="M0.6 19.02C0.6 18.7 0.626667 18.36 0.68 18C0.746667 17.6267 0.84 17.2333 0.96 16.82C1.09333 16.3933 1.25333 15.9467 1.44 15.48L2.88 16.04C2.74667 16.4133 2.62667 16.7667 2.52 17.1C2.42667 17.4333 2.35333 17.7467 2.3 18.04C2.26 18.3333 2.24 18.6133 2.24 18.88C2.24 19.56 2.42 20.1333 2.78 20.6C3.14 21.0667 3.60667 21.4133 4.18 21.64C4.76667 21.88 5.39333 22 6.06 22C7.36667 22 8.38667 21.7667 9.12 21.3C9.85333 20.8467 10.3667 20.24 10.66 19.48C10.9533 18.7333 11.08 17.9133 11.04 17.02L10.6 4.72H12.26L12.58 14.86C12.6067 15.54 12.7133 16.0733 12.9 16.46C13.1 16.8333 13.3667 17.0933 13.7 17.24C14.0333 17.3867 14.4 17.46 14.8 17.46C15.08 17.46 15.28 17.54 15.4 17.7C15.5333 17.8467 15.6 18.0267 15.6 18.24C15.6 18.4533 15.5067 18.6533 15.32 18.84C15.1333 19.0133 14.8933 19.1 14.6 19.1C14.1867 19.1 13.8333 19.0467 13.54 18.94C13.2467 18.82 13.0067 18.6733 12.82 18.5C12.6333 18.3133 12.4867 18.1067 12.38 17.88C12.2733 17.64 12.1933 17.4 12.14 17.16L12.7 17.72C12.6467 18.4267 12.4933 19.1267 12.24 19.82C12 20.5267 11.6267 21.1667 11.12 21.74C10.6133 22.3133 9.93333 22.7733 9.08 23.12C8.24 23.4667 7.2 23.64 5.96 23.64C5.26667 23.64 4.59333 23.5333 3.94 23.32C3.3 23.12 2.72667 22.82 2.22 22.42C1.72667 22.02 1.33333 21.5333 1.04 20.96C0.746667 20.4 0.6 19.7533 0.6 19.02ZM14.6094 19.1L14.8094 17.46C15.476 17.46 15.996 17.4133 16.3694 17.32C16.7427 17.2133 17.0227 17.02 17.2094 16.74C17.4094 16.4467 17.5694 16.0267 17.6894 15.48C17.8094 14.9333 17.956 14.22 18.1294 13.34L19.6894 13.64C19.636 13.88 19.576 14.1467 19.5094 14.44C19.4427 14.7333 19.3827 15.0267 19.3294 15.32C19.2894 15.6 19.2694 15.8467 19.2694 16.06C19.2694 16.26 19.2827 16.4467 19.3094 16.62C19.336 16.7933 19.436 16.94 19.6094 17.06C19.7827 17.18 20.076 17.28 20.4894 17.36C20.9027 17.4267 21.496 17.46 22.2694 17.46C22.5494 17.46 22.7494 17.54 22.8694 17.7C23.0027 17.8467 23.0694 18.0267 23.0694 18.24C23.0694 18.4533 22.976 18.6533 22.7894 18.84C22.6027 19.0133 22.3627 19.1 22.0694 19.1C21.256 19.1 20.6094 19.06 20.1294 18.98C19.6494 18.8867 19.2827 18.7533 19.0294 18.58C18.7894 18.4067 18.616 18.1933 18.5094 17.94C18.416 17.6733 18.3427 17.3667 18.2894 17.02L18.8894 17.06C18.676 17.4867 18.4427 17.8333 18.1894 18.1C17.9494 18.3667 17.6694 18.5733 17.3494 18.72C17.0294 18.8667 16.6427 18.9667 16.1894 19.02C15.7494 19.0733 15.2227 19.1 14.6094 19.1ZM19.6494 22.88C19.3694 22.88 19.1294 22.78 18.9294 22.58C18.7427 22.3933 18.6494 22.1667 18.6494 21.9C18.6494 21.6333 18.7427 21.4 18.9294 21.2C19.1294 21 19.3694 20.9 19.6494 20.9C19.916 20.9 20.1427 21 20.3294 21.2C20.5294 21.4 20.6294 21.6333 20.6294 21.9C20.6294 22.1667 20.5294 22.3933 20.3294 22.58C20.1427 22.78 19.916 22.88 19.6494 22.88ZM16.9094 22.88C16.6294 22.88 16.3894 22.78 16.1894 22.58C16.0027 22.3933 15.9094 22.1667 15.9094 21.9C15.9094 21.6333 16.0027 21.4 16.1894 21.2C16.3894 21 16.6294 20.9 16.9094 20.9C17.176 20.9 17.4027 21 17.5894 21.2C17.7894 21.4 17.8894 21.6333 17.8894 21.9C17.8894 22.1667 17.7894 22.3933 17.5894 22.58C17.4027 22.78 17.176 22.88 16.9094 22.88ZM34.8103 19.1C34.2503 19.1 33.737 19.0667 33.2703 19C32.8036 18.92 32.3836 18.78 32.0103 18.58C31.637 18.38 31.3236 18.0933 31.0703 17.72C30.817 17.3333 30.6236 16.8267 30.4903 16.2L31.6703 15.5C31.8436 16.0333 32.057 16.44 32.3103 16.72C32.5636 17 32.9036 17.1933 33.3303 17.3C33.7703 17.4067 34.3303 17.46 35.0103 17.46C35.2903 17.46 35.4903 17.54 35.6103 17.7C35.7436 17.8467 35.8103 18.0267 35.8103 18.24C35.8103 18.4533 35.717 18.6533 35.5303 18.84C35.3436 19.0133 35.1036 19.1 34.8103 19.1ZM22.0703 19.1L22.2503 17.46C22.9436 17.46 23.6236 17.4067 24.2903 17.3C24.957 17.1933 25.6103 17.04 26.2503 16.84C26.8903 16.64 27.5036 16.4 28.0903 16.12C28.6903 15.8267 29.257 15.4933 29.7903 15.12C29.4436 14.8133 29.0436 14.5467 28.5903 14.32C28.137 14.0933 27.637 13.92 27.0903 13.8C26.557 13.6667 25.9903 13.6 25.3903 13.6C25.177 13.6 24.977 13.6067 24.7903 13.62C24.6036 13.6333 24.417 13.66 24.2303 13.7C24.0436 13.7267 23.8303 13.7667 23.5903 13.82L23.2703 12.3C23.6303 12.1933 23.9903 12.1133 24.3503 12.06C24.7103 11.9933 25.057 11.96 25.3903 11.96C26.0836 11.96 26.7103 12.0467 27.2703 12.22C27.8303 12.38 28.337 12.58 28.7903 12.82C29.257 13.06 29.6903 13.3 30.0903 13.54C30.5036 13.78 30.9036 13.9867 31.2903 14.16C31.677 14.32 32.077 14.4 32.4903 14.4H32.9103L33.0503 15.84C32.477 15.84 31.9503 15.92 31.4703 16.08C30.9903 16.24 30.517 16.4467 30.0503 16.7C29.597 16.94 29.117 17.2 28.6103 17.48C28.1036 17.7467 27.5436 18.0067 26.9303 18.26C26.317 18.5 25.6103 18.7 24.8103 18.86C24.0236 19.02 23.1103 19.1 22.0703 19.1ZM27.2903 22.72C27.0103 22.72 26.7703 22.62 26.5703 22.42C26.3836 22.2333 26.2903 22.0067 26.2903 21.74C26.2903 21.4733 26.3836 21.24 26.5703 21.04C26.7703 20.84 27.0103 20.74 27.2903 20.74C27.557 20.74 27.7836 20.84 27.9703 21.04C28.1703 21.24 28.2703 21.4733 28.2703 21.74C28.2703 22.0067 28.1703 22.2333 27.9703 22.42C27.7836 22.62 27.557 22.72 27.2903 22.72ZM34.8047 19.1L35.0047 17.46C35.4314 17.46 35.778 17.4333 36.0447 17.38C36.3114 17.3133 36.5314 17.16 36.7047 16.92C36.8914 16.6667 37.0647 16.2733 37.2247 15.74C37.3847 15.2067 37.5714 14.46 37.7847 13.5L39.2847 13.92C39.2047 14.2533 39.1114 14.6533 39.0047 15.12C38.898 15.5867 38.8447 16.0133 38.8447 16.4C38.8447 16.6133 38.898 16.8 39.0047 16.96C39.1114 17.12 39.2914 17.2467 39.5447 17.34C39.8114 17.42 40.1647 17.46 40.6047 17.46C41.0047 17.46 41.3314 17.4267 41.5847 17.36C41.838 17.2933 42.0447 17.1333 42.2047 16.88C42.378 16.6267 42.5314 16.22 42.6647 15.66C42.798 15.1 42.938 14.3333 43.0847 13.36L44.6047 13.64C44.5647 13.88 44.518 14.1733 44.4647 14.52C44.4114 14.8667 44.358 15.2133 44.3047 15.56C44.2647 15.8933 44.2447 16.1733 44.2447 16.4C44.2447 16.5867 44.2847 16.7667 44.3647 16.94C44.458 17.1 44.6314 17.2267 44.8847 17.32C45.1514 17.4133 45.5447 17.46 46.0647 17.46C46.7314 17.46 47.2114 17.32 47.5047 17.04C47.8114 16.76 47.9647 16.3333 47.9647 15.76C47.9647 15.4533 47.958 15.1333 47.9447 14.8C47.9314 14.4533 47.9047 14.0733 47.8647 13.66C47.838 13.2333 47.7914 12.7467 47.7247 12.2L49.1847 12.1C49.2647 13.18 49.3514 14.0667 49.4447 14.76C49.5514 15.4533 49.698 16 49.8847 16.4C50.0847 16.7867 50.3514 17.06 50.6847 17.22C51.018 17.38 51.458 17.46 52.0047 17.46C52.2847 17.46 52.4847 17.54 52.6047 17.7C52.738 17.8467 52.8047 18.0267 52.8047 18.24C52.8047 18.4533 52.7114 18.6533 52.5247 18.84C52.338 19.0133 52.098 19.1 51.8047 19.1C51.3514 19.1 50.9447 19.04 50.5847 18.92C50.238 18.7867 49.9314 18.6133 49.6647 18.4C49.4114 18.1733 49.198 17.92 49.0247 17.64C48.8647 17.3467 48.7514 17.04 48.6847 16.72L49.0447 16.84C48.898 17.44 48.6647 17.9067 48.3447 18.24C48.038 18.56 47.6714 18.7867 47.2447 18.92C46.818 19.04 46.3647 19.1 45.8847 19.1C45.298 19.1 44.818 19.0267 44.4447 18.88C44.0714 18.7333 43.778 18.5133 43.5647 18.22C43.3647 17.9133 43.2314 17.5267 43.1647 17.06H43.8447C43.5914 17.6333 43.3247 18.0667 43.0447 18.36C42.7647 18.6533 42.418 18.8533 42.0047 18.96C41.5914 19.0533 41.0447 19.1 40.3647 19.1C40.0314 19.1 39.6714 19.0467 39.2847 18.94C38.9114 18.8333 38.5847 18.6267 38.3047 18.32C38.0247 18 37.858 17.5267 37.8047 16.9L38.4047 16.78C38.178 17.46 37.898 17.9667 37.5647 18.3C37.2447 18.62 36.858 18.8333 36.4047 18.94C35.9514 19.0467 35.418 19.1 34.8047 19.1ZM51.7969 19.1L51.9969 17.46C52.6635 17.46 53.1835 17.4133 53.5569 17.32C53.9302 17.2133 54.2102 17.02 54.3969 16.74C54.5969 16.4467 54.7569 16.0267 54.8769 15.48C54.9969 14.9333 55.1435 14.22 55.3169 13.34L56.8769 13.64C56.8235 13.88 56.7635 14.1467 56.6969 14.44C56.6302 14.7333 56.5702 15.0267 56.5169 15.32C56.4769 15.6 56.4569 15.8467 56.4569 16.06C56.4569 16.26 56.4702 16.4467 56.4969 16.62C56.5235 16.7933 56.6235 16.94 56.7969 17.06C56.9702 17.18 57.2635 17.28 57.6769 17.36C58.0902 17.4267 58.6835 17.46 59.4569 17.46C59.7369 17.46 59.9369 17.54 60.0569 17.7C60.1902 17.8467 60.2569 18.0267 60.2569 18.24C60.2569 18.4533 60.1635 18.6533 59.9769 18.84C59.7902 19.0133 59.5502 19.1 59.2569 19.1C58.4435 19.1 57.7969 19.06 57.3169 18.98C56.8369 18.8867 56.4702 18.7533 56.2169 18.58C55.9769 18.4067 55.8035 18.1933 55.6969 17.94C55.6035 17.6733 55.5302 17.3667 55.4769 17.02L56.0769 17.06C55.8635 17.4867 55.6302 17.8333 55.3769 18.1C55.1369 18.3667 54.8569 18.5733 54.5369 18.72C54.2169 18.8667 53.8302 18.9667 53.3769 19.02C52.9369 19.0733 52.4102 19.1 51.7969 19.1ZM57.1369 11.28C56.8569 11.28 56.6169 11.1867 56.4169 11C56.2302 10.8 56.1369 10.5667 56.1369 10.3C56.1369 10.0333 56.2302 9.8 56.4169 9.6C56.6169 9.4 56.8569 9.3 57.1369 9.3C57.4035 9.3 57.6302 9.4 57.8169 9.6C58.0169 9.8 58.1169 10.0333 58.1169 10.3C58.1169 10.5667 58.0169 10.8 57.8169 11C57.6302 11.1867 57.4035 11.28 57.1369 11.28ZM54.3969 11.28C54.1169 11.28 53.8769 11.1867 53.6769 11C53.4902 10.8 53.3969 10.5667 53.3969 10.3C53.3969 10.0333 53.4902 9.8 53.6769 9.6C53.8769 9.4 54.1169 9.3 54.3969 9.3C54.6635 9.3 54.8902 9.4 55.0769 9.6C55.2769 9.8 55.3769 10.0333 55.3769 10.3C55.3769 10.5667 55.2769 10.8 55.0769 11C54.8902 11.1867 54.6635 11.28 54.3969 11.28ZM59.2578 19.1L59.4378 17.46C60.1978 17.46 60.7311 17.3867 61.0378 17.24C61.3445 17.0933 61.5178 16.8333 61.5578 16.46C61.6111 16.0867 61.6245 15.5667 61.5978 14.9L61.2178 4.72H62.8378L63.2378 14.72C63.2645 15.4267 63.2378 16.0533 63.1578 16.6C63.0911 17.1467 62.9178 17.6067 62.6378 17.98C62.3711 18.3533 61.9645 18.6333 61.4178 18.82C60.8845 19.0067 60.1645 19.1 59.2578 19.1ZM66.2931 19L65.8931 4.72H67.5131L67.9131 19H66.2931ZM75.6717 23.6L75.3117 21.96C76.1117 21.8533 76.8451 21.7 77.5117 21.5C78.1917 21.3133 78.7717 21.04 79.2517 20.68C79.7451 20.32 80.1251 19.8467 80.3917 19.26C80.6584 18.6733 80.7917 17.94 80.7917 17.06C80.7917 16.6467 80.7517 16.2533 80.6717 15.88C80.5917 15.4933 80.4717 15.1533 80.3117 14.86C80.1517 14.5667 79.9584 14.3333 79.7317 14.16C79.5184 13.9867 79.2717 13.9 78.9917 13.9C78.6851 13.9 78.4051 14.02 78.1517 14.26C77.9117 14.4867 77.7184 14.78 77.5717 15.14C77.4384 15.5 77.3717 15.86 77.3717 16.22C77.3717 16.5 77.4251 16.7467 77.5317 16.96C77.6517 17.16 77.8451 17.3133 78.1117 17.42C78.3784 17.5267 78.7251 17.58 79.1517 17.58C79.5384 17.58 79.9251 17.54 80.3117 17.46C80.7117 17.38 81.0517 17.2733 81.3317 17.14L81.4117 18.54C81.0917 18.7667 80.7117 18.9267 80.2717 19.02C79.8451 19.1133 79.4117 19.16 78.9717 19.16C78.4651 19.16 78.0117 19.1067 77.6117 19C77.2251 18.8933 76.8917 18.74 76.6117 18.54C76.3451 18.3267 76.1384 18.06 75.9917 17.74C75.8584 17.42 75.7917 17.0467 75.7917 16.62C75.7917 16.1133 75.8717 15.6067 76.0317 15.1C76.1917 14.58 76.4184 14.1067 76.7117 13.68C77.0051 13.2533 77.3584 12.9133 77.7717 12.66C78.1851 12.3933 78.6451 12.26 79.1517 12.26C79.6851 12.26 80.1517 12.4 80.5517 12.68C80.9517 12.9467 81.2851 13.3133 81.5517 13.78C81.8184 14.2467 82.0184 14.7733 82.1517 15.36C82.2851 15.9467 82.3517 16.5533 82.3517 17.18C82.3517 18.42 82.0984 19.4867 81.5917 20.38C81.0984 21.2867 80.3517 22.0067 79.3517 22.54C78.3651 23.0733 77.1384 23.4267 75.6717 23.6ZM93.05 17.46C93.7167 17.46 94.2433 17.3933 94.63 17.26C95.03 17.1267 95.3167 16.9333 95.49 16.68C95.6767 16.4133 95.77 16.1067 95.77 15.76C95.77 15.4933 95.6967 15.1733 95.55 14.8C95.4167 14.4267 95.23 14.0133 94.99 13.56C94.75 13.0933 94.47 12.6067 94.15 12.1C93.8433 11.58 93.51 11.0533 93.15 10.52L94.53 9.62C95.05 10.4067 95.5033 11.1533 95.89 11.86C96.2767 12.5533 96.6033 13.2067 96.87 13.82C97.1367 14.42 97.35 14.9867 97.51 15.52C97.6967 16.1067 97.9033 16.54 98.13 16.82C98.37 17.1 98.6167 17.28 98.87 17.36C99.1233 17.4267 99.3567 17.46 99.57 17.46C99.85 17.46 100.057 17.54 100.19 17.7C100.323 17.8467 100.39 18.0267 100.39 18.24C100.39 18.4533 100.297 18.6533 100.11 18.84C99.9233 19.0133 99.6833 19.1 99.39 19.1C98.95 19.1 98.5167 19.02 98.09 18.86C97.6767 18.6867 97.3167 18.4133 97.01 18.04C96.7033 17.6533 96.49 17.14 96.37 16.5L97.17 15.86C97.17 16.3933 97.0567 16.9133 96.83 17.42C96.6033 17.9133 96.19 18.32 95.59 18.64C95.0033 18.96 94.1567 19.12 93.05 19.12C92.57 19.12 92.1033 19.08 91.65 19C91.21 18.92 90.8033 18.8067 90.43 18.66C90.0567 18.5 89.73 18.3133 89.45 18.1L90.25 16.72C90.5167 16.8933 90.89 17.06 91.37 17.22C91.85 17.38 92.41 17.46 93.05 17.46ZM105.535 23.34C104.695 23.34 103.935 23.1467 103.255 22.76C102.575 22.3733 102.035 21.7867 101.635 21C101.235 20.2267 101.035 19.2533 101.035 18.08C101.035 17 101.161 16.0067 101.415 15.1C101.668 14.1933 102.001 13.4133 102.415 12.76C102.841 12.0933 103.308 11.58 103.815 11.22C104.321 10.86 104.821 10.68 105.315 10.68C105.755 10.68 106.148 10.8067 106.495 11.06C106.841 11.3133 107.115 11.6667 107.315 12.12C107.515 12.5733 107.615 13.1133 107.615 13.74C107.615 14.3 107.528 14.86 107.355 15.42C107.181 15.98 106.855 16.4867 106.375 16.94C105.908 17.3933 105.235 17.74 104.355 17.98L105.655 16.88C106.081 16.9867 106.508 17.0867 106.935 17.18C107.375 17.26 107.821 17.3267 108.275 17.38C108.741 17.4333 109.228 17.46 109.735 17.46C110.015 17.46 110.215 17.54 110.335 17.7C110.468 17.8467 110.535 18.0267 110.535 18.24C110.535 18.4533 110.441 18.6533 110.255 18.84C110.068 19.0133 109.828 19.1 109.535 19.1C109.175 19.1 108.788 19.08 108.375 19.04C107.961 19 107.548 18.9533 107.135 18.9C106.721 18.8333 106.328 18.76 105.955 18.68L107.695 18.62C108.028 18.98 108.255 19.3667 108.375 19.78C108.508 20.2067 108.541 20.6267 108.475 21.04C108.421 21.4667 108.268 21.8533 108.015 22.2C107.775 22.5467 107.448 22.82 107.035 23.02C106.621 23.2333 106.121 23.34 105.535 23.34ZM99.3945 19.1L99.5945 17.46C99.8745 17.46 100.155 17.46 100.435 17.46C100.715 17.46 100.981 17.4533 101.235 17.44L101.315 18.92C101.008 18.9733 100.688 19.0133 100.355 19.04C100.035 19.08 99.7145 19.1 99.3945 19.1ZM105.575 21.7C105.815 21.7 106.048 21.6533 106.275 21.56C106.515 21.48 106.708 21.3333 106.855 21.12C107.015 20.92 107.095 20.6467 107.095 20.3C107.095 19.9667 107.008 19.66 106.835 19.38C106.675 19.1133 106.388 18.8933 105.975 18.72C105.561 18.5467 104.975 18.46 104.215 18.46C104.055 18.46 103.875 18.4733 103.675 18.5C103.488 18.5133 103.295 18.54 103.095 18.58C102.895 18.6067 102.688 18.6467 102.475 18.7V17.34C102.981 17.2733 103.441 17.1733 103.855 17.04C104.281 16.8933 104.655 16.6933 104.975 16.44C105.295 16.1867 105.541 15.8533 105.715 15.44C105.888 15.0267 105.975 14.52 105.975 13.92C105.975 13.72 105.948 13.4933 105.895 13.24C105.855 12.9867 105.775 12.7733 105.655 12.6C105.535 12.4133 105.375 12.32 105.175 12.32C104.975 12.32 104.728 12.4533 104.435 12.72C104.155 12.9867 103.875 13.36 103.595 13.84C103.328 14.32 103.101 14.8933 102.915 15.56C102.741 16.2133 102.655 16.9333 102.655 17.72C102.655 18.5867 102.748 19.28 102.935 19.8C103.135 20.3333 103.388 20.7333 103.695 21C104.001 21.28 104.321 21.4667 104.655 21.56C104.988 21.6533 105.295 21.7 105.575 21.7ZM109.531 19.1L109.731 17.46C110.531 17.46 111.285 17.3867 111.991 17.24C112.698 17.08 113.345 16.8733 113.931 16.62C114.531 16.3533 115.045 16.0533 115.471 15.72C115.898 15.3733 116.225 15.02 116.451 14.66C116.691 14.2867 116.811 13.92 116.811 13.56C116.811 13.3867 116.751 13.2133 116.631 13.04C116.511 12.8533 116.305 12.7 116.011 12.58C115.731 12.46 115.351 12.4 114.871 12.4C114.578 12.4 114.251 12.44 113.891 12.52C113.531 12.6 113.185 12.7133 112.851 12.86C112.531 12.9933 112.265 13.1467 112.051 13.32C112.411 13.6133 112.745 13.9 113.051 14.18C113.371 14.46 113.698 14.7667 114.031 15.1C114.365 15.42 114.725 15.7867 115.111 16.2C115.418 16.4267 115.758 16.62 116.131 16.78C116.518 16.94 116.931 17.0733 117.371 17.18C117.825 17.2733 118.285 17.3467 118.751 17.4C119.218 17.44 119.685 17.46 120.151 17.46C120.431 17.46 120.631 17.54 120.751 17.7C120.885 17.8467 120.951 18.0267 120.951 18.24C120.951 18.4533 120.858 18.6533 120.671 18.84C120.485 19.0133 120.245 19.1 119.951 19.1C119.218 19.1 118.465 19.0333 117.691 18.9C116.931 18.7533 116.218 18.54 115.551 18.26C114.885 17.9667 114.318 17.6 113.851 17.16C113.625 16.8667 113.371 16.5733 113.091 16.28C112.811 15.9867 112.505 15.6933 112.171 15.4C111.851 15.0933 111.505 14.8067 111.131 14.54C111.051 14.4733 110.971 14.3533 110.891 14.18C110.811 14.0067 110.745 13.8267 110.691 13.64C110.638 13.4533 110.611 13.3133 110.611 13.22C110.611 13.02 110.738 12.78 110.991 12.5C111.245 12.22 111.585 11.9533 112.011 11.7C112.438 11.4333 112.925 11.2133 113.471 11.04C114.018 10.8667 114.585 10.78 115.171 10.78C115.931 10.78 116.545 10.8933 117.011 11.12C117.491 11.3467 117.838 11.64 118.051 12C118.278 12.3467 118.391 12.72 118.391 13.12C118.391 13.7067 118.245 14.2933 117.951 14.88C117.658 15.4533 117.238 15.9933 116.691 16.5C116.145 17.0067 115.505 17.46 114.771 17.86C114.038 18.2467 113.225 18.5533 112.331 18.78C111.451 18.9933 110.518 19.1 109.531 19.1ZM119.961 19.1L120.161 17.46C120.828 17.46 121.348 17.4133 121.721 17.32C122.094 17.2133 122.374 17.02 122.561 16.74C122.761 16.4467 122.921 16.0267 123.041 15.48C123.161 14.9333 123.308 14.22 123.481 13.34L125.041 13.64C124.988 13.88 124.928 14.1467 124.861 14.44C124.794 14.7333 124.734 15.0267 124.681 15.32C124.641 15.6 124.621 15.8467 124.621 16.06C124.621 16.26 124.634 16.4467 124.661 16.62C124.688 16.7933 124.788 16.94 124.961 17.06C125.134 17.18 125.428 17.28 125.841 17.36C126.254 17.4267 126.848 17.46 127.621 17.46C127.901 17.46 128.101 17.54 128.221 17.7C128.354 17.8467 128.421 18.0267 128.421 18.24C128.421 18.4533 128.328 18.6533 128.141 18.84C127.954 19.0133 127.714 19.1 127.421 19.1C126.608 19.1 125.961 19.06 125.481 18.98C125.001 18.8867 124.634 18.7533 124.381 18.58C124.141 18.4067 123.968 18.1933 123.861 17.94C123.768 17.6733 123.694 17.3667 123.641 17.02L124.241 17.06C124.028 17.4867 123.794 17.8333 123.541 18.1C123.301 18.3667 123.021 18.5733 122.701 18.72C122.381 18.8667 121.994 18.9667 121.541 19.02C121.101 19.0733 120.574 19.1 119.961 19.1ZM125.301 11.28C125.021 11.28 124.781 11.1867 124.581 11C124.394 10.8 124.301 10.5667 124.301 10.3C124.301 10.0333 124.394 9.8 124.581 9.6C124.781 9.4 125.021 9.3 125.301 9.3C125.568 9.3 125.794 9.4 125.981 9.6C126.181 9.8 126.281 10.0333 126.281 10.3C126.281 10.5667 126.181 10.8 125.981 11C125.794 11.1867 125.568 11.28 125.301 11.28ZM122.561 11.28C122.281 11.28 122.041 11.1867 121.841 11C121.654 10.8 121.561 10.5667 121.561 10.3C121.561 10.0333 121.654 9.8 121.841 9.6C122.041 9.4 122.281 9.3 122.561 9.3C122.828 9.3 123.054 9.4 123.241 9.6C123.441 9.8 123.541 10.0333 123.541 10.3C123.541 10.5667 123.441 10.8 123.241 11C123.054 11.1867 122.828 11.28 122.561 11.28ZM127.422 19.1L127.602 17.46C128.362 17.46 128.895 17.3867 129.202 17.24C129.509 17.0933 129.682 16.8333 129.722 16.46C129.775 16.0867 129.789 15.5667 129.762 14.9L129.382 4.72H131.002L131.402 14.72C131.429 15.4267 131.402 16.0533 131.322 16.6C131.255 17.1467 131.082 17.6067 130.802 17.98C130.535 18.3533 130.129 18.6333 129.582 18.82C129.049 19.0067 128.329 19.1 127.422 19.1ZM134.457 19L134.057 4.72H135.677L136.077 19H134.457Z" fill="#116845"/>
<path d="M158 2C152.49 2 148 6.49 148 12C148 17.51 152.49 22 158 22C163.51 22 168 17.51 168 12C168 6.49 163.51 2 158 2ZM162.78 9.7L157.11 15.37C156.97 15.51 156.78 15.59 156.58 15.59C156.38 15.59 156.19 15.51 156.05 15.37L153.22 12.54C152.93 12.25 152.93 11.77 153.22 11.48C153.51 11.19 153.99 11.19 154.28 11.48L156.58 13.78L161.72 8.64C162.01 8.35 162.49 8.35 162.78 8.64C163.07 8.93 163.07 9.4 162.78 9.7Z" fill="#116845"/>
<path d="M190 2C184.49 2 180 6.49 180 12C180 17.51 184.49 22 190 22C195.51 22 200 17.51 200 12C200 6.49 195.51 2 190 2ZM194.78 9.7L189.11 15.37C188.97 15.51 188.78 15.59 188.58 15.59C188.38 15.59 188.19 15.51 188.05 15.37L185.22 12.54C184.93 12.25 184.93 11.77 185.22 11.48C185.51 11.19 185.99 11.19 186.28 11.48L188.58 13.78L193.72 8.64C194.01 8.35 194.49 8.35 194.78 8.64C195.07 8.93 195.07 9.4 194.78 9.7Z" fill="#9E9E9E"/>
<path d="M225 2C219.49 2 215 6.49 215 12C215 17.51 219.49 22 225 22C230.51 22 235 17.51 235 12C235 6.49 230.51 2 225 2ZM229.78 9.7L224.11 15.37C223.97 15.51 223.78 15.59 223.58 15.59C223.38 15.59 223.19 15.51 223.05 15.37L220.22 12.54C219.93 12.25 219.93 11.77 220.22 11.48C220.51 11.19 220.99 11.19 221.28 11.48L223.58 13.78L228.72 8.64C229.01 8.35 229.49 8.35 229.78 8.64C230.07 8.93 230.07 9.4 229.78 9.7Z" fill="#9E9E9E"/>
<path d="M257 2C251.49 2 247 6.49 247 12C247 17.51 251.49 22 257 22C262.51 22 267 17.51 267 12C267 6.49 262.51 2 257 2ZM261.78 9.7L256.11 15.37C255.97 15.51 255.78 15.59 255.58 15.59C255.38 15.59 255.19 15.51 255.05 15.37L252.22 12.54C251.93 12.25 251.93 11.77 252.22 11.48C252.51 11.19 252.99 11.19 253.28 11.48L255.58 13.78L260.72 8.64C261.01 8.35 261.49 8.35 261.78 8.64C262.07 8.93 262.07 9.4 261.78 9.7Z" fill="#9E9E9E"/>
<path d="M289 2C283.49 2 279 6.49 279 12C279 17.51 283.49 22 289 22C294.51 22 299 17.51 299 12C299 6.49 294.51 2 289 2ZM293.78 9.7L288.11 15.37C287.97 15.51 287.78 15.59 287.58 15.59C287.38 15.59 287.19 15.51 287.05 15.37L284.22 12.54C283.93 12.25 283.93 11.77 284.22 11.48C284.51 11.19 284.99 11.19 285.28 11.48L287.58 13.78L292.72 8.64C293.01 8.35 293.49 8.35 293.78 8.64C294.07 8.93 294.07 9.4 293.78 9.7Z" fill="#9E9E9E"/>
</svg>
